<?xml version="1.0" encoding="UTF-8"?>
<svg version="1.1" xmlns="http://www.w3.org/2000/svg" width="625" height="625">
<path d="M0 0 C1.43291942 -0.00258688 2.86583811 -0.00560094 4.29875582 -0.0090034 C8.22315228 -0.01703912 12.1475304 -0.01886106 16.0719341 -0.01960087 C20.31010192 -0.02145749 24.54826037 -0.02900801 28.78642273 -0.03573608 C38.04932471 -0.04929694 47.31222235 -0.05534101 56.57513261 -0.05974674 C62.36580067 -0.06251374 68.15646708 -0.066752 73.94713402 -0.07125092 C89.9983869 -0.08344211 106.04963847 -0.09374077 122.10089588 -0.09712601 C123.12753156 -0.09734557 124.15416724 -0.09756514 125.21191309 -0.09779136 C126.24093141 -0.09800964 127.26994973 -0.09822791 128.33015043 -0.09845281 C130.41514321 -0.09889626 132.500136 -0.09934283 134.58512878 -0.09979248 C135.61934543 -0.10001391 136.65356207 -0.10023534 137.71911862 -0.10046348 C154.45733123 -0.10440704 171.19550018 -0.12184822 187.93369595 -0.145152 C205.14300154 -0.168917 222.35228528 -0.18133025 239.56160754 -0.18249393 C249.2139964 -0.18340795 258.86632843 -0.18909107 268.51870155 -0.20731354 C276.74224329 -0.22278437 284.96571062 -0.22779419 293.18926416 -0.21957543 C297.37795582 -0.2156931 301.56649797 -0.21647876 305.75517082 -0.23063278 C350.59827603 -0.37319491 389.50677337 9.64030699 422.44377136 41.64044189 C447.84351878 66.93662959 462.94663126 102.374265 463.05949521 138.21892959 C463.05871517 139.55395788 463.05783642 140.88898611 463.05686951 142.22401428 C463.05945639 143.6569337 463.06247045 145.0898524 463.06587291 146.52277011 C463.07390863 150.44716656 463.07573056 154.37154468 463.07647038 158.29594839 C463.078327 162.53411621 463.08587751 166.77227465 463.09260559 171.01043701 C463.10616644 180.27333899 463.11221051 189.53623663 463.11661625 198.79914689 C463.11938325 204.58981495 463.12362151 210.38048136 463.12812042 216.1711483 C463.14031162 232.22240119 463.15061028 248.27365275 463.15399551 264.32491016 C463.15421508 265.35154584 463.15443465 266.37818152 463.15466087 267.43592737 C463.15487914 268.46494569 463.15509742 269.49396401 463.15532231 270.55416471 C463.15576577 272.63915749 463.15621233 274.72415028 463.15666199 276.80914307 C463.15688342 277.84335971 463.15710485 278.87757636 463.15733299 279.9431329 C463.16127654 296.68134551 463.17871773 313.41951447 463.20202151 330.15771023 C463.22578651 347.36701582 463.23819975 364.57629957 463.23936343 381.78562182 C463.24027746 391.43801069 463.24596057 401.09034271 463.26418304 410.74271584 C463.27965388 418.96625757 463.2846637 427.1897249 463.27644494 435.41327844 C463.27256261 439.6019701 463.27334826 443.79051225 463.28750229 447.9791851 C463.43006442 492.82229032 453.41656251 531.73078765 421.41642761 564.66778564 C396.12023992 590.06753306 360.68260451 605.17064554 324.83793992 605.28350949 C323.50291163 605.28272945 322.16788339 605.28185071 320.83285522 605.28088379 C319.39993581 605.28347067 317.96701711 605.28648473 316.5340994 605.28988719 C312.60970295 605.29792291 308.68532482 605.29974485 304.76092112 605.30048466 C300.5227533 605.30234128 296.28459486 605.30989179 292.0464325 605.31661987 C282.78353051 605.33018073 273.52063287 605.3362248 264.25772262 605.34063053 C258.46705455 605.34339753 252.67638815 605.34763579 246.88572121 605.3521347 C230.83446832 605.3643259 214.78321676 605.37462456 198.73195934 605.3780098 C197.70532366 605.37822936 196.67868799 605.37844893 195.62094213 605.37867515 C194.59192381 605.37889343 193.56290549 605.3791117 192.5027048 605.3793366 C190.41771201 605.37978005 188.33271923 605.38022662 186.24772644 605.38067627 C185.2135098 605.3808977 184.17929315 605.38111913 183.11373661 605.38134727 C166.375524 605.38529083 149.63735504 605.40273201 132.89915927 605.42603579 C115.68985368 605.44980079 98.48056994 605.46221403 81.27124768 605.46337771 C71.61885882 605.46429174 61.9665268 605.46997486 52.31415367 605.48819733 C44.09061194 605.50366816 35.86714461 605.50867798 27.64359107 605.50045922 C23.45489941 605.49657689 19.26635725 605.49736255 15.0776844 605.51151657 C-29.76542081 605.6540787 -68.67391814 595.64057679 -101.61091614 563.64044189 C-127.01066355 538.3442542 -142.11377604 502.90661879 -142.22663999 467.0619542 C-142.22585995 465.72692591 -142.2249812 464.39189767 -142.22401428 463.05686951 C-142.22660116 461.62395009 -142.22961522 460.19103139 -142.23301768 458.75811368 C-142.2410534 454.83371723 -142.24287534 450.90933911 -142.24361515 446.9849354 C-142.24547177 442.74676758 -142.25302229 438.50860914 -142.25975037 434.27044678 C-142.27331122 425.00754479 -142.27935529 415.74464715 -142.28376102 406.4817369 C-142.28652803 400.69106884 -142.29076628 394.90040243 -142.2952652 389.10973549 C-142.30745639 373.0584826 -142.31775505 357.00723104 -142.32114029 340.95597363 C-142.32135986 339.92933795 -142.32157942 338.90270227 -142.32180564 337.84495642 C-142.32202392 336.8159381 -142.3222422 335.78691978 -142.32246709 334.72671908 C-142.32291055 332.64172629 -142.32335711 330.55673351 -142.32380676 328.47174072 C-142.32402819 327.43752408 -142.32424962 326.40330743 -142.32447776 325.33775089 C-142.32842132 308.59953828 -142.3458625 291.86136932 -142.36916628 275.12317356 C-142.39293129 257.91386797 -142.40534453 240.70458422 -142.40650821 223.49526197 C-142.40742223 213.8428731 -142.41310535 204.19054108 -142.43132782 194.53816795 C-142.44679865 186.31462622 -142.45180847 178.09115889 -142.44358972 169.86760535 C-142.43970738 165.67891369 -142.44049304 161.49037154 -142.45464706 157.30169868 C-142.59720919 112.45859347 -132.58370729 73.55009614 -100.58357239 40.61309814 C-73.83821348 13.75824677 -37.59490825 -0.02722877 0 0 Z " fill="#418FCC" transform="translate(152.0835723876953,9.85955810546875)"/>
<path d="M0 0 C0.90162872 -0.01053406 1.80325745 -0.02106812 2.73220825 -0.03192139 C52.01322453 -0.47649478 96.14331093 21.31742908 131.4375 54.5 C132.07429688 55.08265625 132.71109375 55.6653125 133.3671875 56.265625 C139.44476594 62.02333089 144.4014514 68.84061689 149.4375 75.5 C150.07945312 76.34691406 150.72140625 77.19382812 151.3828125 78.06640625 C179.20532511 116.30618521 189.69191616 165.80643103 182.92456055 212.35595703 C177.74766245 244.10103219 165.1513391 272.05623493 146.4375 298 C145.96844238 298.65387695 145.49938477 299.30775391 145.01611328 299.98144531 C143.8750197 301.52722662 142.66248219 303.01981318 141.4375 304.5 C140.7775 304.5 140.1175 304.5 139.4375 304.5 C139.05464844 305.36963379 139.05464844 305.36963379 138.6640625 306.25683594 C137.31165223 308.73015312 135.80017476 310.39602109 133.8125 312.390625 C133.10609375 313.09960938 132.3996875 313.80859375 131.671875 314.5390625 C130.93453125 315.26867187 130.1971875 315.99828125 129.4375 316.75 C128.70015625 317.49507813 127.9628125 318.24015625 127.203125 319.0078125 C126.49671875 319.71164062 125.7903125 320.41546875 125.0625 321.140625 C124.41539062 321.78547852 123.76828125 322.43033203 123.1015625 323.09472656 C121.4375 324.5 121.4375 324.5 119.4375 324.5 C119.4375 325.16 119.4375 325.82 119.4375 326.5 C118.05493164 327.76171875 118.05493164 327.76171875 116.09765625 329.1875 C115.37320312 329.71641846 114.64875 330.24533691 113.90234375 330.7902832 C113.10957031 331.35448975 112.31679688 331.91869629 111.5 332.5 C110.6853125 333.08160889 109.870625 333.66321777 109.03125 334.26245117 C68.27897289 362.97249338 19.06001332 375.44925998 -30.45703125 367.40625 C-32.15971768 367.10907245 -33.86158443 366.80715113 -35.5625 366.5 C-36.35060059 366.36078125 -37.13870117 366.2215625 -37.95068359 366.078125 C-55.9339648 362.79531178 -72.52276103 356.15703025 -88.5625 347.5 C-89.17464355 347.17386719 -89.78678711 346.84773438 -90.41748047 346.51171875 C-132.51674698 323.9388677 -163.16361379 284.25759504 -177.34423828 239.00537109 C-178.05414308 236.61550228 -178.72667657 234.21976623 -179.375 231.8125 C-179.55772461 231.13848145 -179.74044922 230.46446289 -179.92871094 229.77001953 C-183.46413637 215.75574997 -185.06531011 201.94783609 -184.95361328 187.52319336 C-184.93752507 185.06632839 -184.95358273 182.6111129 -184.97265625 180.15429688 C-184.99213674 165.58587843 -183.21823267 151.14136733 -179.375 137.0625 C-179.16705811 136.29357422 -178.95911621 135.52464844 -178.74487305 134.73242188 C-169.87339809 103.32200463 -152.7311569 77.07938961 -130.5625 53.5 C-129.97984375 52.86320312 -129.3971875 52.22640625 -128.796875 51.5703125 C-123.03916911 45.49273406 -116.22188311 40.5360486 -109.5625 35.5 C-108.71558594 34.85804688 -107.86867188 34.21609375 -106.99609375 33.5546875 C-88.10114784 19.80709572 -66.12463721 10.22999647 -43.5625 4.5 C-42.79502441 4.28972168 -42.02754883 4.07944336 -41.23681641 3.86279297 C-27.66243249 0.24047163 -13.95653986 0.08251649 0 0 Z " fill="#E3E4E5" transform="translate(312.5625,127.5)"/>
<path d="M0 0 C0.66 0 1.32 0 2 0 C2.35602295 0.66717041 2.7120459 1.33434082 3.07885742 2.02172852 C9.90444854 14.79637955 16.79938028 27.51575576 23.96386719 40.10424805 C28.3529646 47.82602799 32.65636253 55.59309885 36.9375 63.375 C41.94626354 72.47702687 46.9783683 81.56474261 52.0625 90.625 C58.78103524 102.5978721 65.45167669 114.59693903 72.11328125 126.6015625 C73.98023477 129.96439804 75.84914115 133.3261401 77.71875 136.6875 C84.52564089 148.92738106 91.3084124 161.18010293 98.06628418 173.44708252 C104.0003071 184.21568477 109.99233122 194.95072248 116.01171875 205.671875 C116.51437256 206.57607178 117.01702637 207.48026855 117.53491211 208.41186523 C118.48891585 210.09714997 119.47042165 211.76725283 120.48266602 213.41821289 C126.93457507 224.14469762 124.63094774 236.55772617 121.83276367 248.26953125 C112.20162205 285.71276303 89.59360109 317.69181467 56.2109375 337.61328125 C33.95019608 350.46639465 11.31046467 356.33829744 -14.25756836 356.70556641 C-16.14514339 356.74246474 -18.03270124 356.78025103 -19.92024231 356.81884766 C-37.03984556 357.15004723 -54.1641373 357.31256588 -71.28635311 357.43807411 C-83.91431756 357.53220324 -96.5363307 357.70245118 -109.16176504 357.97357047 C-118.07851497 358.15850355 -126.9936507 358.25444523 -135.91224581 358.28604639 C-141.22419147 358.30733334 -146.52896416 358.36691212 -151.83878899 358.52348709 C-184.96282979 359.45768471 -184.96282979 359.45768471 -192.31778336 353.73938751 C-197.57774417 348.440619 -200.91735168 342.50857782 -203.81859112 335.67718792 C-205.39246447 332.11063717 -207.41174395 329.22699511 -209.71875 326.09375 C-210.98022167 324.22988026 -212.24066816 322.36531619 -213.5 320.5 C-218.96132143 312.43654554 -224.47967729 304.41726573 -230.0625 296.4375 C-236.32013583 287.49137543 -242.4196012 278.44911725 -248.42211914 269.32983398 C-252.15526633 263.67888353 -256.02859835 258.16588559 -260.03564453 252.70605469 C-263.18333153 248.36986743 -266.18423558 243.93687986 -269.1875 239.5 C-270.49595715 237.57412593 -271.8045535 235.64834644 -273.11328125 233.72265625 C-273.76248535 232.76633301 -274.41168945 231.81000977 -275.08056641 230.82470703 C-278.00354239 226.52315118 -280.93799008 222.22948193 -283.875 217.9375 C-284.66849854 216.7777063 -284.66849854 216.7777063 -285.47802734 215.59448242 C-289.96150738 209.04640833 -294.47184996 202.51725988 -299 196 C-294.9823188 196 -293.21082735 198.00115699 -290.25 200.4375 C-274.40510551 213.01039579 -255.91902445 222.03631999 -237 229 C-236.3500708 229.24459961 -235.7001416 229.48919922 -235.03051758 229.74121094 C-228.35275892 232.13000265 -221.53040697 233.37839489 -214.5625 234.625 C-213.39912109 234.8415625 -212.23574219 235.058125 -211.03710938 235.28125 C-165.37219013 243.60732419 -115.97576829 234.94802874 -77.2109375 208.8359375 C-72.06104618 205.26996595 -66.98226686 201.6346913 -62.1484375 197.6484375 C-60 196 -60 196 -58 196 C-58 195.34 -58 194.68 -58 194 C-56.63671875 192.66015625 -56.63671875 192.66015625 -54.6875 191.0625 C-50.9842528 187.91673088 -47.49761908 184.61924083 -44.0625 181.1875 C-43.5780542 180.70740479 -43.0936084 180.22730957 -42.59448242 179.73266602 C-39.96667347 177.11528876 -39.96667347 177.11528876 -38 174 C-37.34 174 -36.68 174 -36 174 C-35.72091797 173.4117041 -35.44183594 172.8234082 -35.15429688 172.21728516 C-34.0790101 170.15177025 -32.91773281 168.38893448 -31.53125 166.5234375 C-24.14076436 156.41920984 -17.77507838 146.10213498 -12 135 C-11.67161133 134.39043457 -11.34322266 133.78086914 -11.00488281 133.15283203 C8.66656456 96.47185205 9.87746218 50.40631189 1.32128906 10.54541016 C1.15081055 9.74925293 0.98033203 8.9530957 0.8046875 8.1328125 C0.64983887 7.43043457 0.49499023 6.72805664 0.33544922 6.00439453 C0 4 0 4 0 0 Z " fill="#3588B5" transform="translate(490,258)"/>
<path d="M0 0 C6.27850697 3.64849583 9.74500062 8.51415187 11.6875 15.4375 C11.87491268 18.01101608 11.97067377 20.47492657 11.96165466 23.04585266 C11.96950968 24.16495247 11.96950968 24.16495247 11.97752339 25.30666035 C11.99247441 27.79604787 11.99322745 30.28522895 11.99389648 32.7746582 C12.00152124 34.5638768 12.00994928 36.35309212 12.01911926 38.14230347 C12.04103926 42.99570982 12.04985975 47.84905318 12.05494571 52.70250344 C12.05859207 55.73688453 12.06483358 58.77124919 12.0719471 61.80562401 C12.09643241 72.39768573 12.10949162 82.98969854 12.11303711 93.58178711 C12.1166722 103.44526715 12.14656807 113.308436 12.18844169 123.17182094 C12.22316279 131.64845636 12.23858586 140.12498872 12.23928314 148.60169476 C12.2400753 153.66074918 12.24878595 158.71948643 12.27728081 163.77846718 C12.30349275 168.53843382 12.3056492 173.29782101 12.28962517 178.057827 C12.2878132 179.80046415 12.2944786 181.54313488 12.31044388 183.28569984 C12.46088365 200.77820931 12.46088365 200.77820931 6.6875 207.4375 C0.59839047 213.05084496 -5.16157015 213.92810472 -13.203125 213.83984375 C-19.85752611 212.97878431 -23.67046766 209.35284629 -27.90124512 204.41786194 C-32.01596588 197.65766565 -30.98983719 189.30253171 -30.92773438 181.65795898 C-30.93123839 179.84549439 -30.93690013 178.03303289 -30.94454956 176.22058105 C-30.95876586 171.31351105 -30.94176752 166.40700354 -30.91826439 161.49998736 C-30.89811889 156.35831614 -30.90403682 151.21666743 -30.90637207 146.07496643 C-30.90631854 137.44254306 -30.8865873 128.81033889 -30.85449219 120.17797852 C-30.81758974 110.20427729 -30.80881876 100.23086301 -30.8157897 90.25710243 C-30.82209907 80.65263022 -30.81133309 71.04825618 -30.79182434 61.44380379 C-30.78365947 57.36063295 -30.78093911 53.27751235 -30.78251648 49.19433403 C-30.78339667 44.38516608 -30.76914287 39.57626998 -30.74328995 34.76717377 C-30.73614008 33.00437043 -30.73403884 31.24153814 -30.73740768 29.47872353 C-30.74113467 27.06844403 -30.72633341 24.65895261 -30.70690918 22.24876404 C-30.71223711 21.55478545 -30.71756503 20.86080686 -30.72305441 20.14579862 C-30.63768272 13.98627488 -29.03406298 9.49381133 -25.0625 4.75 C-17.43697997 -1.66236912 -9.61064244 -4.25298545 0 0 Z " fill="#419BD4" transform="translate(380.3125,206.5625)"/>
<path d="M0 0 C6.16113341 3.63250158 9.84679858 8.55230823 11.625 15.4375 C11.93020129 19.53821394 11.91873159 23.63108294 11.91552734 27.74169922 C11.92224457 28.97818207 11.92896179 30.21466492 11.93588257 31.48861694 C11.95159571 34.86893169 11.95823581 38.24900068 11.95951414 41.62933493 C11.960939 43.74441796 11.96521491 45.85947548 11.97050858 47.97455215 C11.98899185 55.36244585 11.99718125 62.75026754 11.99560547 70.13818359 C11.99440423 77.01039524 12.01550726 83.88229275 12.0470928 90.75442493 C12.07329442 96.66716348 12.08397116 102.57979967 12.08269465 108.49259579 C12.08218619 112.01850072 12.08780451 115.54412621 12.10905075 119.06997299 C12.13211684 123.0049427 12.12288842 126.93948553 12.11083984 130.87451172 C12.12207886 132.03321777 12.13331787 133.19192383 12.14489746 134.38574219 C12.08386263 142.23857353 10.97570004 147.68806022 5.58984375 153.71484375 C4.58630859 154.53662109 4.58630859 154.53662109 3.5625 155.375 C2.89089844 155.94089844 2.21929687 156.50679687 1.52734375 157.08984375 C-3.6150304 160.73279874 -10.3693944 159.95247343 -16.375 159.4375 C-22.75561425 157.485389 -26.42881763 152.36486732 -29.98937988 147.00921631 C-32.03149919 141.74524046 -31.809074 136.76490283 -31.79492188 131.16503906 C-31.80339142 129.9317688 -31.81186096 128.69849854 -31.82058716 127.42785645 C-31.83994284 124.05556831 -31.84573655 120.68383428 -31.84383965 117.31152821 C-31.84371963 114.48881498 -31.85229687 111.66615302 -31.86061716 108.84345412 C-31.87983292 102.17782761 -31.88274254 95.51232631 -31.87597656 88.84667969 C-31.86934439 81.99032793 -31.8921705 75.13451533 -31.92929029 68.27827287 C-31.96007721 62.37567765 -31.97133743 56.47325501 -31.96745348 50.5705812 C-31.96539436 47.05238455 -31.97073328 43.53460713 -31.99534607 40.01648712 C-32.02193193 36.08662678 -32.00781685 32.15746117 -31.99023438 28.22753906 C-32.00349762 27.07602356 -32.01676086 25.92450806 -32.03042603 24.73809814 C-31.94526633 16.51685917 -30.30664758 9.57685077 -24.50240326 3.46597672 C-17.83765336 -2.58483485 -8.31598557 -3.76390836 0 0 Z " fill="#4395D0" transform="translate(322.375,260.5625)"/>
<path d="M0 0 C5.48975052 5.17605049 7.55041476 10.31885099 7.92150879 17.80420589 C8.03941597 22.35097572 8.0435069 26.89341614 8.0234375 31.44140625 C8.02935349 33.42480903 8.03660317 35.40820824 8.04512024 37.39160156 C8.05696813 41.53729944 8.05034596 45.68245933 8.03100586 49.828125 C8.00811435 55.12430559 8.03491889 60.41888225 8.07606792 65.71490479 C8.10171752 69.80723853 8.0990467 73.89919205 8.08817482 77.99157715 C8.08669437 79.94349627 8.09430551 81.89544543 8.1114254 83.84729004 C8.24650166 102.22746044 8.24650166 102.22746044 2.84301758 108.7419281 C-2.10133807 113.46061457 -7.56285814 115.45498655 -14.36328125 115.75390625 C-21.34494664 115.38023965 -25.32552909 112.87145727 -29.98828125 107.81640625 C-34.57538454 102.5129608 -34.97426468 96.50190112 -34.96630859 89.74267578 C-34.97302582 88.9158429 -34.97974304 88.08901001 -34.98666382 87.23712158 C-35.00559118 84.51609208 -35.00956524 81.7953099 -35.01171875 79.07421875 C-35.01814996 77.17381694 -35.02487857 75.27341611 -35.03189087 73.37301636 C-35.04385021 69.39367376 -35.04757304 65.41441789 -35.04638672 61.43505859 C-35.04618352 56.34867777 -35.07349236 51.26285562 -35.10793114 46.17660713 C-35.1302225 42.25252757 -35.13422358 38.32858203 -35.13316727 34.40444565 C-35.13551959 32.52984567 -35.14432227 30.65524179 -35.159832 28.7807045 C-35.179539 26.15305225 -35.17363605 23.52659942 -35.16162109 20.89892578 C-35.17286011 20.13295074 -35.18409912 19.36697571 -35.19567871 18.57778931 C-35.12173467 12.17901108 -33.10930191 7.06940557 -28.96484375 2.16796875 C-19.68120757 -5.37226158 -10.30476968 -5.97846968 0 0 Z " fill="#418ECB" transform="translate(267.67578125,304.80859375)"/>
</svg>
