<?xml version="1.0" encoding="UTF-8"?>
<svg version="1.1" xmlns="http://www.w3.org/2000/svg" width="625" height="625">
<path d="M0 0 C1.43291942 -0.00258688 2.86583811 -0.00560094 4.29875582 -0.0090034 C8.22315228 -0.01703912 12.1475304 -0.01886106 16.0719341 -0.01960087 C20.31010192 -0.02145749 24.54826037 -0.02900801 28.78642273 -0.03573608 C38.04932471 -0.04929694 47.31222235 -0.05534101 56.57513261 -0.05974674 C62.36580067 -0.06251374 68.15646708 -0.066752 73.94713402 -0.07125092 C89.9983869 -0.08344211 106.04963847 -0.09374077 122.10089588 -0.09712601 C123.12753156 -0.09734557 124.15416724 -0.09756514 125.21191309 -0.09779136 C126.24093141 -0.09800964 127.26994973 -0.09822791 128.33015043 -0.09845281 C130.41514321 -0.09889626 132.500136 -0.09934283 134.58512878 -0.09979248 C135.61934543 -0.10001391 136.65356207 -0.10023534 137.71911862 -0.10046348 C154.45733123 -0.10440704 171.19550018 -0.12184822 187.93369595 -0.145152 C205.14300154 -0.168917 222.35228528 -0.18133025 239.56160754 -0.18249393 C249.2139964 -0.18340795 258.86632843 -0.18909107 268.51870155 -0.20731354 C276.74224329 -0.22278437 284.96571062 -0.22779419 293.18926416 -0.21957543 C297.37795582 -0.2156931 301.56649797 -0.21647876 305.75517082 -0.23063278 C350.59827603 -0.37319491 389.50677337 9.64030699 422.44377136 41.64044189 C447.84351878 66.93662959 462.94663126 102.374265 463.05949521 138.21892959 C463.05871517 139.55395788 463.05783642 140.88898611 463.05686951 142.22401428 C463.05945639 143.6569337 463.06247045 145.0898524 463.06587291 146.52277011 C463.07390863 150.44716656 463.07573056 154.37154468 463.07647038 158.29594839 C463.078327 162.53411621 463.08587751 166.77227465 463.09260559 171.01043701 C463.10616644 180.27333899 463.11221051 189.53623663 463.11661625 198.79914689 C463.11938325 204.58981495 463.12362151 210.38048136 463.12812042 216.1711483 C463.14031162 232.22240119 463.15061028 248.27365275 463.15399551 264.32491016 C463.15421508 265.35154584 463.15443465 266.37818152 463.15466087 267.43592737 C463.15487914 268.46494569 463.15509742 269.49396401 463.15532231 270.55416471 C463.15576577 272.63915749 463.15621233 274.72415028 463.15666199 276.80914307 C463.15688342 277.84335971 463.15710485 278.87757636 463.15733299 279.9431329 C463.16127654 296.68134551 463.17871773 313.41951447 463.20202151 330.15771023 C463.22578651 347.36701582 463.23819975 364.57629957 463.23936343 381.78562182 C463.24027746 391.43801069 463.24596057 401.09034271 463.26418304 410.74271584 C463.27965388 418.96625757 463.2846637 427.1897249 463.27644494 435.41327844 C463.27256261 439.6019701 463.27334826 443.79051225 463.28750229 447.9791851 C463.43006442 492.82229032 453.41656251 531.73078765 421.41642761 564.66778564 C396.12023992 590.06753306 360.68260451 605.17064554 324.83793992 605.28350949 C323.50291163 605.28272945 322.16788339 605.28185071 320.83285522 605.28088379 C319.39993581 605.28347067 317.96701711 605.28648473 316.5340994 605.28988719 C312.60970295 605.29792291 308.68532482 605.29974485 304.76092112 605.30048466 C300.5227533 605.30234128 296.28459486 605.30989179 292.0464325 605.31661987 C282.78353051 605.33018073 273.52063287 605.3362248 264.25772262 605.34063053 C258.46705455 605.34339753 252.67638815 605.34763579 246.88572121 605.3521347 C230.83446832 605.3643259 214.78321676 605.37462456 198.73195934 605.3780098 C197.70532366 605.37822936 196.67868799 605.37844893 195.62094213 605.37867515 C194.59192381 605.37889343 193.56290549 605.3791117 192.5027048 605.3793366 C190.41771201 605.37978005 188.33271923 605.38022662 186.24772644 605.38067627 C185.2135098 605.3808977 184.17929315 605.38111913 183.11373661 605.38134727 C166.375524 605.38529083 149.63735504 605.40273201 132.89915927 605.42603579 C115.68985368 605.44980079 98.48056994 605.46221403 81.27124768 605.46337771 C71.61885882 605.46429174 61.9665268 605.46997486 52.31415367 605.48819733 C44.09061194 605.50366816 35.86714461 605.50867798 27.64359107 605.50045922 C23.45489941 605.49657689 19.26635725 605.49736255 15.0776844 605.51151657 C-29.76542081 605.6540787 -68.67391814 595.64057679 -101.61091614 563.64044189 C-127.01066355 538.3442542 -142.11377604 502.90661879 -142.22663999 467.0619542 C-142.22585995 465.72692591 -142.2249812 464.39189767 -142.22401428 463.05686951 C-142.22660116 461.62395009 -142.22961522 460.19103139 -142.23301768 458.75811368 C-142.2410534 454.83371723 -142.24287534 450.90933911 -142.24361515 446.9849354 C-142.24547177 442.74676758 -142.25302229 438.50860914 -142.25975037 434.27044678 C-142.27331122 425.00754479 -142.27935529 415.74464715 -142.28376102 406.4817369 C-142.28652803 400.69106884 -142.29076628 394.90040243 -142.2952652 389.10973549 C-142.30745639 373.0584826 -142.31775505 357.00723104 -142.32114029 340.95597363 C-142.32135986 339.92933795 -142.32157942 338.90270227 -142.32180564 337.84495642 C-142.32202392 336.8159381 -142.3222422 335.78691978 -142.32246709 334.72671908 C-142.32291055 332.64172629 -142.32335711 330.55673351 -142.32380676 328.47174072 C-142.32402819 327.43752408 -142.32424962 326.40330743 -142.32447776 325.33775089 C-142.32842132 308.59953828 -142.3458625 291.86136932 -142.36916628 275.12317356 C-142.39293129 257.91386797 -142.40534453 240.70458422 -142.40650821 223.49526197 C-142.40742223 213.8428731 -142.41310535 204.19054108 -142.43132782 194.53816795 C-142.44679865 186.31462622 -142.45180847 178.09115889 -142.44358972 169.86760535 C-142.43970738 165.67891369 -142.44049304 161.49037154 -142.45464706 157.30169868 C-142.59720919 112.45859347 -132.58370729 73.55009614 -100.58357239 40.61309814 C-73.83821348 13.75824677 -37.59490825 -0.02722877 0 0 Z " fill="#8B3B8D" transform="translate(152.0835723876953,9.85955810546875)"/>
<path d="M0 0 C1.5056726 -0.00761181 1.5056726 -0.00761181 3.04176283 -0.0153774 C4.14251914 -0.01587516 5.24327544 -0.01637292 6.377388 -0.01688576 C8.13390898 -0.02345914 8.13390898 -0.02345914 9.92591524 -0.03016531 C13.17736794 -0.04122231 16.42879349 -0.0477754 19.68026066 -0.05234647 C23.1869383 -0.058309 26.69359827 -0.06991732 30.20026398 -0.08063698 C38.6703564 -0.10514776 47.14045466 -0.11978706 55.61057162 -0.13269705 C58.00396751 -0.13641022 60.39736282 -0.14038336 62.79075813 -0.14444971 C77.66113838 -0.16968966 92.53151957 -0.19173753 107.4019165 -0.20417786 C110.84560398 -0.20710744 114.28929142 -0.21006912 117.73297882 -0.21308327 C118.58886614 -0.21382932 119.44475347 -0.21457537 120.32657677 -0.21534403 C134.18251127 -0.22798985 148.03831723 -0.26120312 161.89419168 -0.3028851 C176.12801331 -0.34535205 190.36176922 -0.36887846 204.59565401 -0.37409842 C212.5840572 -0.37750736 220.57225957 -0.3892011 228.56060028 -0.42220116 C235.36595034 -0.4502685 242.1710584 -0.46117189 248.97646183 -0.4500057 C252.44542617 -0.44483581 255.91388429 -0.44759534 259.38277435 -0.47247124 C263.15353299 -0.49520299 266.92302804 -0.48684689 270.69379425 -0.47098732 C271.77670478 -0.48486941 272.85961532 -0.49875149 273.97534132 -0.51305425 C283.05178902 -0.41940641 290.79401581 2.12846568 298.22711945 7.39092064 C299.34280304 8.53367455 299.34280304 8.53367455 300.4810257 9.69951439 C301.6237796 10.81519798 301.6237796 10.81519798 302.78961945 11.95342064 C311.05853875 23.63309002 310.75810037 34.86017819 310.67462921 48.64360619 C310.6797743 50.80809171 310.68706001 52.97257304 310.69631195 55.13704491 C310.71475541 60.98608487 310.70193307 66.83466636 310.68222165 72.68368697 C310.6657819 78.81737049 310.67465516 84.9510262 310.67974091 91.08472252 C310.68425487 101.3796524 310.66843256 111.67440017 310.64044952 121.96928978 C310.60837541 133.86075402 310.60842564 145.75189036 310.62566429 157.64337796 C310.6415409 169.10167966 310.63479011 180.55986149 310.61772728 192.01815796 C310.61086631 196.88678058 310.6118794 201.75530684 310.61927223 206.62392807 C310.62694708 212.35737954 310.61476933 218.09045877 310.58742332 223.82384682 C310.58055204 225.92445267 310.58042799 228.02509337 310.58763885 230.12569809 C310.59636506 232.99936347 310.58032395 235.87188826 310.55818939 238.7454586 C310.56643016 239.57095717 310.57467093 240.39645573 310.58316141 241.2469694 C310.45156769 250.54204473 306.23072552 258.34828125 300.0435257 265.13701439 C291.27208262 273.49257008 281.30381805 274.59072159 269.61725616 274.47759056 C268.41610672 274.47802864 267.21495728 274.47846672 265.97740936 274.47891808 C262.71555053 274.47719827 259.45408854 274.46225537 256.19230795 274.4411962 C252.77172954 274.42231686 249.35114158 274.42067017 245.9305191 274.41711998 C239.46736425 274.40783231 233.00436343 274.38326349 226.5412761 274.35307151 C219.17723998 274.31942476 211.81319613 274.30301579 204.44910216 274.28798521 C189.31381036 274.25671054 174.17871835 274.20174009 159.0435257 274.13701439 C159.0435257 282.38701439 159.0435257 290.63701439 159.0435257 299.13701439 C162.1269632 299.09060814 165.2104007 299.04420189 168.3872757 298.99638939 C171.39246731 298.9651436 174.39764043 298.94088441 177.4029007 298.91728783 C179.48241094 298.8972428 181.56186532 298.86999926 183.64118195 298.83525658 C186.64002057 298.78642491 189.63811032 298.76397411 192.6372757 298.74638939 C193.5584317 298.72574425 194.47958771 298.70509911 195.42865753 298.68382835 C202.59368823 298.6813693 207.78506678 300.38378691 213.2857132 305.03154564 C217.78394394 310.31535257 219.7067327 314.49965006 220.3560257 321.51201439 C219.70986535 329.00747437 217.60397843 334.21654814 212.3482132 339.62920189 C205.06730595 344.3926429 197.21959203 344.57125758 188.76593781 344.52519798 C186.96907784 344.53308342 186.96907784 344.53308342 185.13591766 344.54112816 C181.8755615 344.55201063 178.6155754 344.54954334 175.35522532 344.5399909 C171.92901687 344.53234642 168.50283152 344.53945295 165.07662201 344.5441494 C159.32620618 344.54959237 153.57590631 344.54245307 147.82550812 344.52812767 C141.19355038 344.5117961 134.5618693 344.51709907 127.92991823 344.53360689 C122.21668389 344.54725424 116.50353246 344.54912584 110.79028708 344.54129088 C107.38633637 344.53663314 103.9825154 344.53593693 100.57857323 344.54590034 C96.78276602 344.55353623 92.98748703 344.54187994 89.19171906 344.52519798 C88.07512909 344.53127068 86.95853912 344.53734337 85.8081131 344.54360008 C78.31552472 344.48273333 72.90698999 343.38321456 66.3560257 339.57451439 C61.67207315 334.63737522 58.76594923 328.87536907 58.5435257 322.01201439 C59.01970311 314.21003063 61.43521205 309.1920145 66.9341507 303.67998314 C73.21518391 299.08552366 78.80800072 298.71794193 86.35211945 298.84404564 C87.80220146 298.8504129 87.80220146 298.8504129 89.28157806 298.8569088 C92.34835219 298.87360917 95.41445249 298.9112454 98.4810257 298.94951439 C100.56890678 298.96457239 102.65679824 298.97825884 104.74469757 298.99053001 C109.84477106 299.02092378 114.94340027 299.07966187 120.0435257 299.13701439 C120.0435257 290.88701439 120.0435257 282.63701439 120.0435257 274.13701439 C116.40015167 274.15272484 112.75677765 274.16843529 109.00299835 274.18462181 C96.94907882 274.23438887 84.89516641 274.26764489 72.84117317 274.2924509 C65.53470988 274.30788814 58.22834425 274.32891711 50.92194366 274.36333275 C44.55010547 274.39333185 38.17833804 274.41261222 31.80643117 274.41927987 C28.43577455 274.42317444 25.06532031 274.43226063 21.69472885 274.45420456 C17.92236458 274.47606346 14.15041603 274.47897769 10.37799835 274.47759056 C8.72074234 274.4937693 8.72074234 274.4937693 7.03000641 274.51027489 C-2.36686012 274.47302256 -10.36868881 272.9601986 -17.9564743 267.13701439 C-19.1939743 266.33263939 -19.1939743 266.33263939 -20.4564743 265.51201439 C-26.54572536 259.72722589 -30.93758392 251.43781579 -31.21374321 242.97522163 C-31.22727468 241.34778845 -31.22993218 239.72024215 -31.22389984 238.0927639 C-31.23069651 236.74195996 -31.23069651 236.74195996 -31.23763049 235.36386704 C-31.25027267 232.35167363 -31.24865422 229.33966106 -31.24700165 226.32744408 C-31.25298705 224.16546967 -31.25979262 222.0034974 -31.26735687 219.84152794 C-31.28502389 213.97155286 -31.28971258 208.1016361 -31.29098845 202.231637 C-31.29241032 198.56272272 -31.29668063 194.89382325 -31.30198288 191.22491264 C-31.32048618 178.42070131 -31.3286532 165.61653162 -31.32707977 152.81230736 C-31.32587862 140.88465974 -31.34697518 128.95719314 -31.3785671 117.02959132 C-31.40473736 106.78310571 -31.41544673 96.53667919 -31.41416895 86.29016042 C-31.4136595 80.17311633 -31.41933359 74.05623308 -31.44052505 67.93922234 C-31.45991961 62.18373058 -31.46002331 56.4285529 -31.44549179 50.67304993 C-31.44340406 48.5647905 -31.44810241 46.45651135 -31.46021271 44.34828568 C-31.53490162 30.44141575 -31.26908196 19.77055506 -21.2455368 9.18388939 C-14.92160021 3.52903823 -8.51602182 0.02289642 0 0 Z " fill="#763477" transform="translate(172.95647430419922,150.8629856109619)"/>
<path d="M0 0 C2.0692716 2.71713679 3.84666566 5.38248915 5.4609375 8.39453125 C5.92532227 9.25506104 6.38970703 10.11559082 6.86816406 11.00219727 C7.36541992 11.92959717 7.86267578 12.85699707 8.375 13.8125 C12.58933909 21.60799881 16.86943861 29.35919865 21.25 37.0625 C26.18816982 45.75729145 31.05261805 54.49066038 35.875 63.25 C36.21123383 63.86068329 36.54746765 64.47136658 36.89389038 65.10055542 C37.23078888 65.71246735 37.56768738 66.32437927 37.91479492 66.95483398 C38.59552896 68.19124977 39.2762744 69.42765928 39.95703125 70.6640625 C40.46247719 71.58213432 40.46247719 71.58213432 40.97813416 72.51875305 C46.32791099 82.23158098 51.72478721 91.91832295 57.11474609 101.60888672 C59.06375708 105.11468347 61.01072927 108.6216052 62.95703125 112.12890625 C70.69571749 126.08277575 70.69571749 126.08277575 78.5 140 C84.39767459 150.45189608 90.20488554 160.95438821 96.02832031 171.44775391 C99.79869664 178.24125614 103.57308938 185.03252866 107.34716797 191.82397461 C110.27350189 197.09037481 113.19877223 202.35735674 116.12011719 207.62652588 C117.49785653 210.11136577 118.8762234 212.59585729 120.25463867 215.08032227 C121.22570973 216.83120364 122.19587435 218.58258765 123.16601562 220.33398438 C123.75576172 221.39681641 124.34550781 222.45964844 124.953125 223.5546875 C125.47036133 224.48780762 125.98759766 225.42092773 126.52050781 226.38232422 C127.9251753 228.98180379 127.9251753 228.98180379 129.56721497 231.16404724 C131.40469889 234.80103219 131.42830132 238.01110615 131.40405273 241.99291992 C131.41091599 242.78403671 131.41777924 243.5751535 131.42485046 244.39024353 C131.44313264 247.00383541 131.43927326 249.61682662 131.43359375 252.23046875 C131.43816039 254.06350395 131.4434674 255.89653745 131.44947815 257.72956848 C131.4584162 261.578816 131.45598471 265.42785624 131.44604492 269.27709961 C131.43465377 274.15966849 131.45461003 279.04150346 131.48396206 283.92397594 C131.50252122 287.71723336 131.50199122 291.51032212 131.49632454 295.30361366 C131.49617318 297.10016204 131.50206051 298.89672326 131.51461601 300.69322777 C131.73632108 337.67083829 116.0799729 371.20517191 90.5 397.52734375 C63.80915216 424.32746089 28.88851172 437.37590017 -8.47021484 437.53100586 C-10.48736585 437.54984624 -12.5045068 437.56979058 -14.52163696 437.59074402 C-21.08466619 437.653238 -27.64769298 437.68485878 -34.2109375 437.71484375 C-36.48136115 437.72700337 -38.75178377 437.73935461 -41.02220535 437.751894 C-51.67791219 437.80887345 -62.33355841 437.85162929 -72.98938787 437.87672991 C-85.26158438 437.90612587 -97.53216902 437.98535632 -109.80379713 438.10623258 C-119.31670179 438.19670657 -128.82914329 438.24113331 -138.34246981 438.25107294 C-144.01456194 438.25811648 -149.68492006 438.28488913 -155.35654831 438.36045647 C-160.68445575 438.43032116 -166.00948732 438.4429991 -171.33773422 438.41217232 C-173.28848349 438.41068698 -175.23937513 438.42963085 -177.18968964 438.47084045 C-191.88294018 438.76388327 -191.88294018 438.76388327 -197.06964493 434.44244576 C-199.39570211 431.39193242 -201.20788796 428.38580601 -203 425 C-204.32391929 423.01097927 -205.66399388 421.03251607 -207.02734375 419.0703125 C-208.33363323 417.09045469 -209.63697626 415.10864996 -210.9375 413.125 C-217.42379171 403.31075064 -217.42379171 403.31075064 -224.1875 393.6875 C-229.71916418 386.04677322 -235.01757745 378.25198134 -240.32666016 370.45556641 C-243.04513996 366.46629446 -245.77287399 362.48336394 -248.5 358.5 C-251.71786496 353.79893052 -254.93457283 349.09709782 -258.14453125 344.390625 C-264.15551986 335.58274727 -270.2126647 326.80912727 -276.3125 318.0625 C-280.97685043 311.37332797 -285.60210021 304.66970669 -290.09375 297.86328125 C-293.85273295 292.21710399 -297.7252866 286.64782864 -301.57666016 281.06445312 C-302.97323275 279.03882399 -304.3679131 277.01190885 -305.76171875 274.984375 C-306.21450195 274.32574463 -306.66728516 273.66711426 -307.13378906 272.98852539 C-308.04121678 271.66776078 -308.9481219 270.34663697 -309.85449219 269.02514648 C-312.24361683 265.54393634 -314.6453983 262.07241006 -317.06640625 258.61328125 C-317.56785156 257.89333984 -318.06929687 257.17339844 -318.5859375 256.43164062 C-319.54414915 255.05642945 -320.50617162 253.68386278 -321.47265625 252.31445312 C-323.79202497 248.97690915 -325.68476421 245.88626167 -327 242 C-326.33613281 242.27714844 -325.67226563 242.55429687 -324.98828125 242.83984375 C-324.10527344 243.20207031 -323.22226562 243.56429687 -322.3125 243.9375 C-321.44238281 244.29714844 -320.57226562 244.65679687 -319.67578125 245.02734375 C-315.35930114 246.59640002 -311.34622623 247.12520743 -306.76713562 247.15821838 C-305.7337355 247.1680072 -304.70033539 247.17779602 -303.63562012 247.18788147 C-302.5128064 247.19363693 -301.38999268 247.1993924 -300.2331543 247.20532227 C-298.44715569 247.22017166 -298.44715569 247.22017166 -296.62507629 247.23532104 C-293.3692904 247.26145505 -290.11350943 247.2833392 -286.85768104 247.30332303 C-283.45170987 247.32523692 -280.04578255 247.3525991 -276.6398468 247.37937927 C-270.19433129 247.42923326 -263.74879135 247.47419905 -257.3032282 247.51740164 C-249.96344064 247.56683647 -242.62369708 247.62173137 -235.28395212 247.67708123 C-220.18934101 247.79078927 -205.09468821 247.89693178 -190 248 C-190 256.25 -190 264.5 -190 273 C-194.62515625 273.03867187 -194.62515625 273.03867187 -199.34375 273.078125 C-202.34904891 273.11660066 -205.35417946 273.16174315 -208.359375 273.20751953 C-210.43871952 273.23564499 -212.51816929 273.25690121 -214.59765625 273.27099609 C-217.59689892 273.29254238 -220.59488745 273.33925276 -223.59375 273.390625 C-224.51490601 273.39185364 -225.43606201 273.39308228 -226.38513184 273.39434814 C-233.34403362 273.55022525 -238.65874727 275.17477086 -244.0234375 279.7109375 C-248.77997923 285.56725766 -250.56567039 290.75135492 -250.37109375 298.33984375 C-249.58823599 303.9516978 -247.35614079 308.96578736 -243.02734375 312.703125 C-238.03824227 315.94837232 -233.81759744 317.12076976 -227.87202454 317.14044189 C-226.83617722 317.14615204 -225.8003299 317.15186218 -224.73309326 317.15774536 C-223.03663666 317.15942215 -223.03663666 317.15942215 -221.3059082 317.16113281 C-220.11033798 317.16609772 -218.91476776 317.17106262 -217.68296814 317.17617798 C-214.40583993 317.18827554 -211.12874738 317.19574224 -207.85160089 317.20018864 C-205.80118744 317.20312442 -203.75077953 317.20723024 -201.70036888 317.21169281 C-195.27658055 317.22536288 -188.85280493 317.23503111 -182.42900306 317.2388947 C-175.02991634 317.24337003 -167.63101486 317.2608954 -160.23198444 317.2898953 C-154.50271968 317.31156584 -148.77350683 317.32160189 -143.04420155 317.32293582 C-139.62726313 317.3239803 -136.21049893 317.32981111 -132.7936039 317.34775543 C-128.97594905 317.36485377 -125.1587423 317.36292588 -121.34106445 317.35644531 C-120.22021454 317.3656601 -119.09936462 317.37487488 -117.94454956 317.3843689 C-110.62010955 317.34551841 -103.64029341 316.79555086 -97.66015625 312.203125 C-92.48355116 305.87475692 -90.28198744 300.32894567 -91 292 C-92.18935 285.38203269 -94.72092822 281.67852424 -99.8671875 277.41015625 C-105.4698514 273.70583085 -110.58316754 273.66647081 -117.11328125 273.5859375 C-118.08283249 273.56657135 -119.05238373 273.5472052 -120.05131531 273.5272522 C-123.13828828 273.46762564 -126.22529888 273.4211386 -129.3125 273.375 C-131.40952118 273.33680466 -133.50652694 273.29775202 -135.60351562 273.2578125 C-140.73559536 273.16032939 -145.86751709 273.08062602 -151 273 C-151 264.75 -151 256.5 -151 248 C-147.32633301 247.98541748 -143.65266602 247.97083496 -139.86767578 247.95581055 C-127.7138607 247.90541634 -115.5601829 247.83896136 -103.40649605 247.76428509 C-96.03956665 247.71941055 -88.6726847 247.67997691 -81.30566406 247.65356445 C-74.88099843 247.63051651 -68.45648399 247.59704333 -62.03193843 247.55129844 C-58.63340288 247.52745726 -55.23501621 247.50866915 -51.83639908 247.50238609 C-48.03279796 247.49272745 -44.22973692 247.46464514 -40.42626953 247.43237305 C-39.31208145 247.43380814 -38.19789337 247.43524323 -37.04994202 247.4367218 C-25.88489627 247.30323211 -17.05905424 244.99741711 -9 237 C-2.81396015 229.38335565 -0.69937844 222.53901176 -0.7215271 212.85049438 C-0.7128385 211.48298163 -0.7128385 211.48298163 -0.70397437 210.08784235 C-0.68699357 207.038506 -0.68409949 203.98932118 -0.68115234 200.93994141 C-0.67185285 198.75188832 -0.66168415 196.56383879 -0.65071106 194.37579346 C-0.62339943 188.43832911 -0.60825813 182.50088851 -0.59528303 176.56337786 C-0.57965765 170.35735887 -0.55286551 164.15138841 -0.5272522 157.94540405 C-0.48311458 146.86266711 -0.44744184 135.77992456 -0.41623981 124.6971442 C-0.38782888 114.63775845 -0.3548352 104.57839914 -0.31738281 94.51904297 C-0.31492126 93.85750629 -0.31245972 93.19596961 -0.30992357 92.51438637 C-0.29754871 89.1955461 -0.28508777 85.87670616 -0.27259517 82.55786633 C-0.16925977 55.03861366 -0.08000455 27.51932969 0 0 Z " fill="#7D397C" transform="translate(483,177)"/>
<path d="M0 0 C1.5056726 -0.00761181 1.5056726 -0.00761181 3.04176283 -0.0153774 C4.14251914 -0.01587516 5.24327544 -0.01637292 6.377388 -0.01688576 C8.13390898 -0.02345914 8.13390898 -0.02345914 9.92591524 -0.03016531 C13.17736794 -0.04122231 16.42879349 -0.0477754 19.68026066 -0.05234647 C23.1869383 -0.058309 26.69359827 -0.06991732 30.20026398 -0.08063698 C38.6703564 -0.10514776 47.14045466 -0.11978706 55.61057162 -0.13269705 C58.00396751 -0.13641022 60.39736282 -0.14038336 62.79075813 -0.14444971 C77.66113838 -0.16968966 92.53151957 -0.19173753 107.4019165 -0.20417786 C110.84560398 -0.20710744 114.28929142 -0.21006912 117.73297882 -0.21308327 C118.58886614 -0.21382932 119.44475347 -0.21457537 120.32657677 -0.21534403 C134.18251127 -0.22798985 148.03831723 -0.26120312 161.89419168 -0.3028851 C176.12801331 -0.34535205 190.36176922 -0.36887846 204.59565401 -0.37409842 C212.5840572 -0.37750736 220.57225957 -0.3892011 228.56060028 -0.42220116 C235.36595034 -0.4502685 242.1710584 -0.46117189 248.97646183 -0.4500057 C252.44542617 -0.44483581 255.91388429 -0.44759534 259.38277435 -0.47247124 C263.15353299 -0.49520299 266.92302804 -0.48684689 270.69379425 -0.47098732 C271.77670478 -0.48486941 272.85961532 -0.49875149 273.97534132 -0.51305425 C283.05178902 -0.41940641 290.79401581 2.12846568 298.22711945 7.39092064 C299.34280304 8.53367455 299.34280304 8.53367455 300.4810257 9.69951439 C301.6237796 10.81519798 301.6237796 10.81519798 302.78961945 11.95342064 C311.05853875 23.63309002 310.75810037 34.86017819 310.67462921 48.64360619 C310.6797743 50.80809171 310.68706001 52.97257304 310.69631195 55.13704491 C310.71475541 60.98608487 310.70193307 66.83466636 310.68222165 72.68368697 C310.6657819 78.81737049 310.67465516 84.9510262 310.67974091 91.08472252 C310.68425487 101.3796524 310.66843256 111.67440017 310.64044952 121.96928978 C310.60837541 133.86075402 310.60842564 145.75189036 310.62566429 157.64337796 C310.6415409 169.10167966 310.63479011 180.55986149 310.61772728 192.01815796 C310.61086631 196.88678058 310.6118794 201.75530684 310.61927223 206.62392807 C310.62694708 212.35737954 310.61476933 218.09045877 310.58742332 223.82384682 C310.58055204 225.92445267 310.58042799 228.02509337 310.58763885 230.12569809 C310.59636506 232.99936347 310.58032395 235.87188826 310.55818939 238.7454586 C310.56643016 239.57095717 310.57467093 240.39645573 310.58316141 241.2469694 C310.45156769 250.54204473 306.23072552 258.34828125 300.0435257 265.13701439 C291.27208262 273.49257008 281.30381805 274.59072159 269.61725616 274.47759056 C268.41610672 274.47802864 267.21495728 274.47846672 265.97740936 274.47891808 C262.71555053 274.47719827 259.45408854 274.46225537 256.19230795 274.4411962 C252.77172954 274.42231686 249.35114158 274.42067017 245.9305191 274.41711998 C239.46736425 274.40783231 233.00436343 274.38326349 226.5412761 274.35307151 C219.17723998 274.31942476 211.81319613 274.30301579 204.44910216 274.28798521 C189.31381036 274.25671054 174.17871835 274.20174009 159.0435257 274.13701439 C159.0435257 282.38701439 159.0435257 290.63701439 159.0435257 299.13701439 C162.1269632 299.09060814 165.2104007 299.04420189 168.3872757 298.99638939 C171.39246731 298.9651436 174.39764043 298.94088441 177.4029007 298.91728783 C179.48241094 298.8972428 181.56186532 298.86999926 183.64118195 298.83525658 C186.64002057 298.78642491 189.63811032 298.76397411 192.6372757 298.74638939 C193.5584317 298.72574425 194.47958771 298.70509911 195.42865753 298.68382835 C202.59368823 298.6813693 207.78506678 300.38378691 213.2857132 305.03154564 C217.78394394 310.31535257 219.7067327 314.49965006 220.3560257 321.51201439 C219.70986535 329.00747437 217.60397843 334.21654814 212.3482132 339.62920189 C205.06730595 344.3926429 197.21959203 344.57125758 188.76593781 344.52519798 C186.96907784 344.53308342 186.96907784 344.53308342 185.13591766 344.54112816 C181.8755615 344.55201063 178.6155754 344.54954334 175.35522532 344.5399909 C171.92901687 344.53234642 168.50283152 344.53945295 165.07662201 344.5441494 C159.32620618 344.54959237 153.57590631 344.54245307 147.82550812 344.52812767 C141.19355038 344.5117961 134.5618693 344.51709907 127.92991823 344.53360689 C122.21668389 344.54725424 116.50353246 344.54912584 110.79028708 344.54129088 C107.38633637 344.53663314 103.9825154 344.53593693 100.57857323 344.54590034 C96.78276602 344.55353623 92.98748703 344.54187994 89.19171906 344.52519798 C88.07512909 344.53127068 86.95853912 344.53734337 85.8081131 344.54360008 C78.31552472 344.48273333 72.90698999 343.38321456 66.3560257 339.57451439 C61.67207315 334.63737522 58.76594923 328.87536907 58.5435257 322.01201439 C59.01970311 314.21003063 61.43521205 309.1920145 66.9341507 303.67998314 C73.21518391 299.08552366 78.80800072 298.71794193 86.35211945 298.84404564 C87.80220146 298.8504129 87.80220146 298.8504129 89.28157806 298.8569088 C92.34835219 298.87360917 95.41445249 298.9112454 98.4810257 298.94951439 C100.56890678 298.96457239 102.65679824 298.97825884 104.74469757 298.99053001 C109.84477106 299.02092378 114.94340027 299.07966187 120.0435257 299.13701439 C120.0435257 290.88701439 120.0435257 282.63701439 120.0435257 274.13701439 C116.40015167 274.15272484 112.75677765 274.16843529 109.00299835 274.18462181 C96.94907882 274.23438887 84.89516641 274.26764489 72.84117317 274.2924509 C65.53470988 274.30788814 58.22834425 274.32891711 50.92194366 274.36333275 C44.55010547 274.39333185 38.17833804 274.41261222 31.80643117 274.41927987 C28.43577455 274.42317444 25.06532031 274.43226063 21.69472885 274.45420456 C17.92236458 274.47606346 14.15041603 274.47897769 10.37799835 274.47759056 C8.72074234 274.4937693 8.72074234 274.4937693 7.03000641 274.51027489 C-2.36686012 274.47302256 -10.36868881 272.9601986 -17.9564743 267.13701439 C-19.1939743 266.33263939 -19.1939743 266.33263939 -20.4564743 265.51201439 C-26.54572536 259.72722589 -30.93758392 251.43781579 -31.21374321 242.97522163 C-31.22727468 241.34778845 -31.22993218 239.72024215 -31.22389984 238.0927639 C-31.23069651 236.74195996 -31.23069651 236.74195996 -31.23763049 235.36386704 C-31.25027267 232.35167363 -31.24865422 229.33966106 -31.24700165 226.32744408 C-31.25298705 224.16546967 -31.25979262 222.0034974 -31.26735687 219.84152794 C-31.28502389 213.97155286 -31.28971258 208.1016361 -31.29098845 202.231637 C-31.29241032 198.56272272 -31.29668063 194.89382325 -31.30198288 191.22491264 C-31.32048618 178.42070131 -31.3286532 165.61653162 -31.32707977 152.81230736 C-31.32587862 140.88465974 -31.34697518 128.95719314 -31.3785671 117.02959132 C-31.40473736 106.78310571 -31.41544673 96.53667919 -31.41416895 86.29016042 C-31.4136595 80.17311633 -31.41933359 74.05623308 -31.44052505 67.93922234 C-31.45991961 62.18373058 -31.46002331 56.4285529 -31.44549179 50.67304993 C-31.44340406 48.5647905 -31.44810241 46.45651135 -31.46021271 44.34828568 C-31.53490162 30.44141575 -31.26908196 19.77055506 -21.2455368 9.18388939 C-14.92160021 3.52903823 -8.51602182 0.02289642 0 0 Z M-7.3939743 26.57451439 C-10.62299962 31.8701159 -12.33120089 35.67123428 -12.34415436 41.95485497 C-12.3495399 42.61587247 -12.35492543 43.27688998 -12.36047417 43.95793831 C-12.37471286 46.15958739 -12.36766054 48.36063172 -12.36052704 50.56230736 C-12.36623283 52.14625594 -12.3731979 53.73020041 -12.38132477 55.31413841 C-12.39924975 59.60763119 -12.39808888 63.90091951 -12.39238238 68.19443846 C-12.38928912 71.78281437 -12.39538462 75.37115108 -12.40142113 78.95952141 C-12.41546301 87.4277359 -12.4139083 95.89584951 -12.40251923 104.36406517 C-12.39104218 113.09033514 -12.40510744 121.81629763 -12.4319157 130.54252708 C-12.45409373 138.04336993 -12.46070523 145.54411641 -12.45483929 153.04498971 C-12.45147307 157.52101004 -12.45386229 161.99683335 -12.47109032 166.472826 C-12.48659063 170.6836678 -12.48256995 174.89405533 -12.46378517 179.10487938 C-12.46010759 180.64635317 -12.4631835 182.18786085 -12.47367096 183.72930336 C-12.53091051 192.84119076 -12.29474015 199.76432019 -6.35100555 207.12529564 C1.34842175 213.57000146 9.32624603 214.58369955 19.11894989 214.53142357 C20.20172543 214.53751467 21.28450097 214.54360578 22.40008789 214.54988146 C26.01107823 214.56646731 29.62171424 214.56174183 33.23273468 214.55693626 C35.82864497 214.56427906 38.42455199 214.5728659 41.02045441 214.58260155 C47.32923077 214.60360235 53.63791512 214.60819953 59.94672232 214.60641366 C65.07658202 214.60510353 70.20641314 214.60892294 75.33626747 214.61633873 C76.81662895 214.61843803 78.29699043 214.62053563 79.77735192 214.62263155 C80.51427228 214.62367508 81.25119265 214.62471861 82.01044393 214.62579376 C95.93083169 214.64467394 109.85116668 214.64365252 123.77156193 214.63682443 C136.49367423 214.63124844 149.21558519 214.65208068 161.93765043 214.6851849 C175.0167645 214.71895279 188.09578219 214.73408652 201.17494065 214.72946787 C208.51149924 214.72722659 215.84787168 214.73241648 223.18439293 214.75736046 C230.08330358 214.78061799 236.98178864 214.77775332 243.88070679 214.75743294 C246.40984485 214.75402223 248.93901111 214.75911444 251.46811104 214.77341652 C254.92626766 214.79162035 258.38300361 214.77884929 261.84111786 214.75847435 C262.83695167 214.7709922 263.83278547 214.78351005 264.85879606 214.79640722 C272.56311142 214.69938756 279.28606526 212.69169263 284.99195379 207.29373884 C289.55183829 202.24114353 291.29064667 198.42646892 291.31768036 191.5284481 C291.32291704 190.86576146 291.32815372 190.20307482 291.33354908 189.52030677 C291.34854331 187.30109149 291.3492541 185.08210691 291.34992218 182.86284447 C291.35754425 181.27096226 291.36597183 179.67908373 291.37514496 178.0872097 C291.39709654 173.76259293 291.40589013 169.43804687 291.4109714 165.11338067 C291.41461523 162.40967359 291.42085553 159.70598502 291.42797279 157.002285 C291.45247288 147.56435775 291.46551968 138.12648548 291.46906281 128.68852806 C291.47269501 119.90093543 291.50256628 111.11369273 291.54446739 102.32620698 C291.57920558 94.77529293 291.59461188 87.22449459 291.59530884 79.67350119 C291.59610067 75.16660757 291.60479553 70.66007012 291.6333065 66.15325928 C291.65954667 61.91038611 291.66165953 57.6681628 291.64565086 53.42524529 C291.64384088 51.87289 291.65048636 50.32049686 291.66646957 48.76822281 C291.74874188 40.2550214 291.58810214 33.05057893 286.0435257 26.13701439 C283.86044698 23.95433009 283.86044698 23.95433009 281.4810257 22.63701439 C280.73723663 22.17295189 279.99344757 21.70888939 279.22711945 21.23076439 C275.61722344 19.4225875 272.40501688 19.0115819 268.39381218 19 C267.45846496 18.99492546 266.52311774 18.98985091 265.55942667 18.9846226 C264.53512509 18.98412484 263.5108235 18.98362708 262.45548248 18.98311424 C261.36472841 18.97873199 260.27397434 18.97434973 259.15016711 18.96983469 C255.48229402 18.95644246 251.81444496 18.95026684 248.14655304 18.9441433 C245.52182659 18.93624268 242.89710123 18.92797376 240.27237701 18.91936302 C232.3866541 18.89485821 224.50092492 18.88021481 216.61517566 18.86730295 C214.38712568 18.86358966 212.15907631 18.85961654 209.93102694 18.85555029 C196.08887064 18.83031271 182.24671333 18.80826422 168.40453911 18.79582214 C165.19940309 18.79289255 161.9942671 18.78993087 158.78913116 18.78691673 C157.99253152 18.78617068 157.19593187 18.78542463 156.37519284 18.78465597 C143.47494851 18.77200625 130.57484214 18.73878714 117.67466228 18.6971149 C104.42396103 18.65466197 91.17333035 18.63112326 77.92256129 18.62590158 C70.48530416 18.6224913 63.04826263 18.61078149 55.61107254 18.57779884 C49.27630839 18.54975092 42.94180405 18.53881966 36.60698263 18.5499943 C33.37720387 18.55516901 30.14808085 18.54962665 26.91835785 18.52752876 C23.40961083 18.50483167 19.90222535 18.51313661 16.39347076 18.52901268 C14.87709489 18.50818955 14.87709489 18.50818955 13.33008516 18.48694575 C5.25941924 18.57666517 -1.5919469 20.77248698 -7.3939743 26.57451439 Z " fill="#D9D9DB" transform="translate(172.95647430419922,150.8629856109619)"/>
<path d="M0 0 C1.3785172 -0.00456967 2.75703213 -0.00987756 4.13554382 -0.0158844 C7.01778443 -0.02478965 9.89974761 -0.02242373 12.78198242 -0.01245117 C16.45020275 -0.00098735 20.11745664 -0.02114499 23.78555012 -0.05036831 C26.63144376 -0.06884417 29.47711089 -0.06841508 32.32304955 -0.06273079 C34.32471713 -0.06250566 36.32636378 -0.07930489 38.32795715 -0.09654236 C47.0670193 -0.03031984 54.46835857 0.98977501 61.5078125 6.4765625 C62.10722656 7.18425781 62.70664062 7.89195312 63.32421875 8.62109375 C64.25041016 9.66330078 64.25041016 9.66330078 65.1953125 10.7265625 C70.87312272 19.8136814 70.3447994 29.49948145 70.3203125 39.8046875 C70.3248818 41.49422921 70.33018959 43.18376907 70.3361969 44.87330627 C70.34509706 48.4026752 70.3427403 51.93181747 70.33276367 55.46118164 C70.32127661 59.96106029 70.34149696 64.46015385 70.37068081 68.95992947 C70.38911679 72.44575382 70.38873572 75.93139257 70.38304329 79.41725349 C70.38289099 81.07527836 70.38885937 82.73331654 70.40133476 84.39129448 C70.46856969 94.78975398 69.655237 103.05610133 64.26171875 112.18359375 C57.40313913 118.6811955 50.41180972 121.51917939 41.06176758 121.6105957 C39.91319778 121.62343094 38.76462799 121.63626617 37.58125305 121.64949036 C36.34787704 121.65687729 35.11450104 121.66426422 33.84375 121.671875 C32.56497482 121.67994675 31.28619965 121.68801849 29.96867371 121.69633484 C27.26288998 121.71132208 24.55713209 121.72117807 21.85131836 121.72875977 C18.4095538 121.73979366 14.96844115 121.77417397 11.52690601 121.81393147 C8.21588225 121.84659419 4.90492226 121.85089271 1.59375 121.859375 C0.37049515 121.87688309 -0.8527597 121.89439117 -2.11308289 121.91242981 C-10.84443502 121.89049089 -17.49753357 120.30561453 -24.92578125 115.68359375 C-31.60155016 108.81708858 -34.41064516 101.19121184 -34.41967773 91.65917969 C-34.42800125 90.90383438 -34.43632477 90.14848907 -34.44490051 89.37025452 C-34.46889129 86.88610597 -34.47775984 84.40222067 -34.484375 81.91796875 C-34.49335078 80.1793002 -34.50247279 78.44063239 -34.51173401 76.70196533 C-34.52819772 73.06056853 -34.53591913 69.41926337 -34.53881836 65.77783203 C-34.54419447 61.13318088 -34.58185345 56.48940258 -34.62756252 51.84499741 C-34.65744592 48.25367157 -34.66454438 44.66255289 -34.66554451 41.07111359 C-34.66972571 39.36002868 -34.6820748 37.64894195 -34.70306206 35.93798065 C-34.82118811 25.47385193 -34.66781153 16.36986303 -27.12327576 8.30682373 C-18.8274338 0.33781921 -11.10448474 -0.02487413 0 0 Z " fill="#ECECED" transform="translate(242.11328125,206.56640625)"/>
<path d="M0 0 C0.72246414 -0.00511093 1.44492828 -0.01022186 2.18928528 -0.01548767 C4.57370324 -0.02936886 6.95783162 -0.02842785 9.34228516 -0.02612305 C11.00371406 -0.03001119 12.66514197 -0.03434611 14.3265686 -0.03910828 C17.80840273 -0.04656761 21.29013546 -0.0462816 24.77197266 -0.04101562 C29.22629383 -0.03522565 33.68019856 -0.05214178 38.13445091 -0.0753603 C41.56605441 -0.09011864 44.99755816 -0.09096641 48.42918777 -0.08785057 C50.07097828 -0.08836287 51.7127745 -0.09358344 53.35453415 -0.10366249 C55.65459695 -0.11604867 57.95385558 -0.10922247 60.25390625 -0.09765625 C61.5608847 -0.09828568 62.86786316 -0.0989151 64.21444702 -0.0995636 C68.76773781 0.38151728 71.9919088 1.92713317 75.60791016 4.6887207 C77.87037655 7.81307905 77.23367407 11.60440511 76.75634766 15.2746582 C75.54526143 18.12071084 74.67106643 19.65236459 72.12364197 21.38540649 C68.81225957 22.62929596 65.61897493 22.56959973 62.12963867 22.56518555 C61.36655396 22.57190277 60.60346924 22.57862 59.81726074 22.58554077 C57.29819199 22.6045174 54.77938966 22.60844459 52.26025391 22.6105957 C50.50674836 22.61702323 48.75324389 22.62375156 46.9997406 22.63076782 C43.32540398 22.64273928 39.65116138 22.64644872 35.97680664 22.64526367 C31.27119534 22.64506034 26.56618706 22.67237709 21.86071873 22.70680809 C18.23957048 22.72905591 14.61856792 22.73310189 10.99735832 22.73204422 C9.26262265 22.73440281 7.52788311 22.74324089 5.7932148 22.75870895 C3.36586479 22.77832924 0.93982272 22.77254765 -1.48754883 22.76049805 C-2.20199661 22.77173706 -2.9164444 22.78297607 -3.65254211 22.79455566 C-8.44809269 22.73413345 -10.8756492 21.67004228 -14.24365234 18.2746582 C-15.97490356 14.81215577 -15.72180458 11.06057591 -15.24365234 7.2746582 C-11.37167105 0.77526103 -7.24860042 0.02558409 0 0 Z " fill="#DDDCDF" transform="translate(350.24365234375,255.725341796875)"/>
<path d="M0 0 C1.72440354 -0.00150379 3.44880638 -0.00493717 5.17320251 -0.01020813 C8.77865789 -0.01453051 12.38321601 0.00223061 15.98852539 0.03442383 C20.60120174 0.0742348 25.21219926 0.0648873 29.82492924 0.04018879 C33.38274309 0.02598271 36.9401671 0.03610996 40.49795341 0.0537014 C42.19833889 0.05953518 43.89876451 0.05827255 45.59913826 0.0496769 C47.97852901 0.04165224 50.35548723 0.06600618 52.73461914 0.09887695 C53.77980209 0.08605179 53.77980209 0.08605179 54.84609985 0.07296753 C60.39921457 0.20486613 62.68976662 1.9804779 66.46484375 5.76171875 C68.07914298 8.99031722 68.06055032 12.27165528 67.46484375 15.76171875 C65.7288227 18.7868002 63.62904238 21.17961944 60.46484375 22.76171875 C58.0253559 22.88047864 55.61348433 22.94000253 53.17285156 22.95458984 C52.04570236 22.96685608 52.04570236 22.96685608 50.89578247 22.97937012 C48.40318602 23.00422909 45.9106466 23.0207426 43.41796875 23.03515625 C42.56675194 23.04047993 41.71553513 23.0458036 40.83852386 23.0512886 C36.33181152 23.0780242 31.82512691 23.09739652 27.31835938 23.11181641 C22.66651986 23.12845258 18.01539042 23.17322002 13.36381912 23.22418785 C9.78468019 23.2578716 6.20570944 23.26939511 2.6264267 23.27504349 C0.9120212 23.28175441 -0.80237328 23.29697246 -2.51662445 23.3209343 C-4.92019667 23.35261058 -7.32185916 23.35261967 -9.72558594 23.34521484 C-10.4302298 23.36162018 -11.13487366 23.37802551 -11.86087036 23.39492798 C-17.46245926 23.3245042 -19.73825148 21.57946288 -23.53515625 17.76171875 C-24.65120189 15.52962747 -24.86623159 13.99491119 -25.03515625 11.51171875 C-25.1434375 10.39023438 -25.1434375 10.39023438 -25.25390625 9.24609375 C-24.32369851 6.03081046 -22.71404457 4.17027449 -20.14883423 2.06118774 C-14.10942576 -0.94148669 -6.60556427 -0.06646334 0 0 Z " fill="#E3E2E4" transform="translate(359.53515625,218.23828125)"/>
<path d="M0 0 C0.76279266 -0.0049649 1.52558533 -0.00992981 2.31149292 -0.01504517 C4.84137873 -0.02968007 7.37120181 -0.03647142 9.90112305 -0.04199219 C11.65748598 -0.0477431 13.4138489 -0.05350084 15.17021179 -0.05926514 C18.85647881 -0.06977928 22.542724 -0.07561906 26.22900391 -0.07910156 C30.95024452 -0.08458335 35.6711963 -0.10860281 40.39234638 -0.13707352 C44.02205749 -0.15570814 47.65169919 -0.16090596 51.28145409 -0.16243744 C53.02176681 -0.16546327 54.76207833 -0.17348949 56.50234413 -0.18662262 C58.93928527 -0.2036985 61.37552312 -0.20179918 63.8125 -0.1953125 C64.53008987 -0.20452728 65.24767975 -0.21374207 65.98701477 -0.22323608 C70.36816062 -0.18674853 73.12776186 0.45677628 76.6003418 3.16113281 C79.28244091 7.18428148 79.28877595 10.433332 78.6003418 15.16113281 C76.48642302 18.66003285 75.48298121 19.86691968 71.6003418 21.16113281 C69.08716507 21.27232869 66.60095689 21.32874764 64.0871582 21.33813477 C62.94275017 21.34799156 62.94275017 21.34799156 61.77522278 21.35804749 C59.25078227 21.37775643 56.72640113 21.38943654 54.2019043 21.39941406 C52.90803362 21.40552735 52.90803362 21.40552735 51.58802414 21.41176414 C47.02409861 21.43261276 42.46020306 21.44692076 37.89624023 21.45629883 C33.18278931 21.46737209 28.46980932 21.50178578 23.75652504 21.54147053 C20.13110474 21.56761056 16.50579724 21.57598823 12.88029099 21.57958031 C11.14275297 21.58445157 9.40522016 21.59608096 7.6677742 21.6146183 C5.23557357 21.6389591 2.80459952 21.63805468 0.37231445 21.63110352 C-0.34370438 21.64391357 -1.05972321 21.65672363 -1.79743958 21.66992188 C-6.60055625 21.61993812 -9.02765619 20.56378218 -12.3996582 17.16113281 C-14.12835599 13.70373724 -13.88932716 9.94137714 -13.3996582 6.16113281 C-9.66949445 0.19287081 -6.60633012 0.01020496 0 0 Z " fill="#D9DADB" transform="translate(348.399658203125,293.8388671875)"/>
</svg>
