<?xml version="1.0" encoding="UTF-8"?>
<svg version="1.1" xmlns="http://www.w3.org/2000/svg" width="625" height="625">
<path d="M0 0 C1.43291942 -0.00258688 2.86583811 -0.00560094 4.29875582 -0.0090034 C8.22315228 -0.01703912 12.1475304 -0.01886106 16.0719341 -0.01960087 C20.31010192 -0.02145749 24.54826037 -0.02900801 28.78642273 -0.03573608 C38.04932471 -0.04929694 47.31222235 -0.05534101 56.57513261 -0.05974674 C62.36580067 -0.06251374 68.15646708 -0.066752 73.94713402 -0.07125092 C89.9983869 -0.08344211 106.04963847 -0.09374077 122.10089588 -0.09712601 C123.12753156 -0.09734557 124.15416724 -0.09756514 125.21191309 -0.09779136 C126.24093141 -0.09800964 127.26994973 -0.09822791 128.33015043 -0.09845281 C130.41514321 -0.09889626 132.500136 -0.09934283 134.58512878 -0.09979248 C135.61934543 -0.10001391 136.65356207 -0.10023534 137.71911862 -0.10046348 C154.45733123 -0.10440704 171.19550018 -0.12184822 187.93369595 -0.145152 C205.14300154 -0.168917 222.35228528 -0.18133025 239.56160754 -0.18249393 C249.2139964 -0.18340795 258.86632843 -0.18909107 268.51870155 -0.20731354 C276.74224329 -0.22278437 284.96571062 -0.22779419 293.18926416 -0.21957543 C297.37795582 -0.2156931 301.56649797 -0.21647876 305.75517082 -0.23063278 C350.59827603 -0.37319491 389.50677337 9.64030699 422.44377136 41.64044189 C447.84351878 66.93662959 462.94663126 102.374265 463.05949521 138.21892959 C463.05871517 139.55395788 463.05783642 140.88898611 463.05686951 142.22401428 C463.05945639 143.6569337 463.06247045 145.0898524 463.06587291 146.52277011 C463.07390863 150.44716656 463.07573056 154.37154468 463.07647038 158.29594839 C463.078327 162.53411621 463.08587751 166.77227465 463.09260559 171.01043701 C463.10616644 180.27333899 463.11221051 189.53623663 463.11661625 198.79914689 C463.11938325 204.58981495 463.12362151 210.38048136 463.12812042 216.1711483 C463.14031162 232.22240119 463.15061028 248.27365275 463.15399551 264.32491016 C463.15421508 265.35154584 463.15443465 266.37818152 463.15466087 267.43592737 C463.15487914 268.46494569 463.15509742 269.49396401 463.15532231 270.55416471 C463.15576577 272.63915749 463.15621233 274.72415028 463.15666199 276.80914307 C463.15688342 277.84335971 463.15710485 278.87757636 463.15733299 279.9431329 C463.16127654 296.68134551 463.17871773 313.41951447 463.20202151 330.15771023 C463.22578651 347.36701582 463.23819975 364.57629957 463.23936343 381.78562182 C463.24027746 391.43801069 463.24596057 401.09034271 463.26418304 410.74271584 C463.27965388 418.96625757 463.2846637 427.1897249 463.27644494 435.41327844 C463.27256261 439.6019701 463.27334826 443.79051225 463.28750229 447.9791851 C463.43006442 492.82229032 453.41656251 531.73078765 421.41642761 564.66778564 C396.12023992 590.06753306 360.68260451 605.17064554 324.83793992 605.28350949 C323.50291163 605.28272945 322.16788339 605.28185071 320.83285522 605.28088379 C319.39993581 605.28347067 317.96701711 605.28648473 316.5340994 605.28988719 C312.60970295 605.29792291 308.68532482 605.29974485 304.76092112 605.30048466 C300.5227533 605.30234128 296.28459486 605.30989179 292.0464325 605.31661987 C282.78353051 605.33018073 273.52063287 605.3362248 264.25772262 605.34063053 C258.46705455 605.34339753 252.67638815 605.34763579 246.88572121 605.3521347 C230.83446832 605.3643259 214.78321676 605.37462456 198.73195934 605.3780098 C197.70532366 605.37822936 196.67868799 605.37844893 195.62094213 605.37867515 C194.59192381 605.37889343 193.56290549 605.3791117 192.5027048 605.3793366 C190.41771201 605.37978005 188.33271923 605.38022662 186.24772644 605.38067627 C185.2135098 605.3808977 184.17929315 605.38111913 183.11373661 605.38134727 C166.375524 605.38529083 149.63735504 605.40273201 132.89915927 605.42603579 C115.68985368 605.44980079 98.48056994 605.46221403 81.27124768 605.46337771 C71.61885882 605.46429174 61.9665268 605.46997486 52.31415367 605.48819733 C44.09061194 605.50366816 35.86714461 605.50867798 27.64359107 605.50045922 C23.45489941 605.49657689 19.26635725 605.49736255 15.0776844 605.51151657 C-29.76542081 605.6540787 -68.67391814 595.64057679 -101.61091614 563.64044189 C-127.01066355 538.3442542 -142.11377604 502.90661879 -142.22663999 467.0619542 C-142.22585995 465.72692591 -142.2249812 464.39189767 -142.22401428 463.05686951 C-142.22660116 461.62395009 -142.22961522 460.19103139 -142.23301768 458.75811368 C-142.2410534 454.83371723 -142.24287534 450.90933911 -142.24361515 446.9849354 C-142.24547177 442.74676758 -142.25302229 438.50860914 -142.25975037 434.27044678 C-142.27331122 425.00754479 -142.27935529 415.74464715 -142.28376102 406.4817369 C-142.28652803 400.69106884 -142.29076628 394.90040243 -142.2952652 389.10973549 C-142.30745639 373.0584826 -142.31775505 357.00723104 -142.32114029 340.95597363 C-142.32135986 339.92933795 -142.32157942 338.90270227 -142.32180564 337.84495642 C-142.32202392 336.8159381 -142.3222422 335.78691978 -142.32246709 334.72671908 C-142.32291055 332.64172629 -142.32335711 330.55673351 -142.32380676 328.47174072 C-142.32402819 327.43752408 -142.32424962 326.40330743 -142.32447776 325.33775089 C-142.32842132 308.59953828 -142.3458625 291.86136932 -142.36916628 275.12317356 C-142.39293129 257.91386797 -142.40534453 240.70458422 -142.40650821 223.49526197 C-142.40742223 213.8428731 -142.41310535 204.19054108 -142.43132782 194.53816795 C-142.44679865 186.31462622 -142.45180847 178.09115889 -142.44358972 169.86760535 C-142.43970738 165.67891369 -142.44049304 161.49037154 -142.45464706 157.30169868 C-142.59720919 112.45859347 -132.58370729 73.55009614 -100.58357239 40.61309814 C-73.83821348 13.75824677 -37.59490825 -0.02722877 0 0 Z " fill="#32873F" transform="translate(152.0835723876953,9.85955810546875)"/>
<path d="M0 0 C1.76376423 -0.00807831 1.76376423 -0.00807831 3.56316006 -0.01631981 C6.80954184 -0.02811318 10.05559245 -0.02654596 13.30197692 -0.019153 C16.80992346 -0.01441083 20.31781567 -0.02694046 23.82574463 -0.03717041 C30.69146481 -0.05434355 37.55709341 -0.05520148 44.42282949 -0.04995751 C50.00513312 -0.04591162 55.58740973 -0.04736434 61.16971207 -0.05270576 C61.96504496 -0.05345419 62.76037784 -0.05420261 63.57981173 -0.05497371 C65.19567815 -0.05650523 66.81154457 -0.05804358 68.42741098 -0.05958868 C83.57198119 -0.07330848 98.71649971 -0.06787981 113.86106874 -0.05640347 C127.70515559 -0.04647276 141.54910876 -0.05940985 155.39317499 -0.08333766 C169.62034658 -0.10774167 183.84745593 -0.11733326 198.07464802 -0.11068493 C206.0572906 -0.10719546 214.0398304 -0.10940673 222.02245712 -0.12693596 C228.81824861 -0.14167429 235.61386494 -0.14227221 242.40965305 -0.12486505 C245.87426308 -0.11636578 249.33856045 -0.11417873 252.80315399 -0.1295166 C256.56551536 -0.14271554 260.32703032 -0.13118685 264.08935547 -0.11352539 C265.17536321 -0.1231304 266.26137094 -0.1327354 267.380288 -0.14263147 C277.80868432 -0.04211308 286.49972523 3.22720632 294.17166138 10.38768005 C301.09889186 17.95893877 303.62892478 25.63301743 303.57279968 35.73490906 C303.57959635 36.64390984 303.58639302 37.55291063 303.59339565 38.48945689 C303.61230169 41.51847492 303.60993507 44.54708632 303.60745239 47.57615662 C303.61643406 49.75488807 303.62664325 51.93361476 303.63798523 54.11233521 C303.66444856 60.01952922 303.67151718 65.9265928 303.67343259 71.83384037 C303.6755674 75.52791506 303.68197663 79.22195677 303.68992424 82.91602325 C303.71766623 95.81333516 303.72993127 108.71055414 303.72756958 121.6078949 C303.72576788 133.61405208 303.75741481 145.61971235 303.80480057 157.62578416 C303.84407946 167.94708598 303.86011906 178.26825583 303.85820335 188.5896318 C303.8574399 194.74814956 303.86591039 200.90630761 303.8977375 207.06475067 C303.92686981 212.85979682 303.92695826 218.65414156 303.90518761 224.44921303 C303.90206101 226.56954032 303.90907385 228.68991197 303.92726898 230.8101635 C304.03372389 244.08034396 303.59172953 253.87150271 294.60916138 264.38768005 C293.80478638 265.04768005 293.00041138 265.70768005 292.17166138 266.38768005 C291.42916138 267.06830505 290.68666138 267.74893005 289.92166138 268.45018005 C282.02819187 274.01148812 275.11485906 274.96140705 265.58352661 274.84178162 C264.35326248 274.84236572 263.12299835 274.84294983 261.85545349 274.84355164 C258.50859043 274.84125531 255.1627352 274.82130634 251.81605029 274.79325581 C248.30872792 274.7681157 244.80138966 274.76589029 241.29399109 274.76115417 C234.664294 274.74876117 228.03486326 274.71598997 221.40528303 274.67575622 C213.85265601 274.63092339 206.30001573 274.60902266 198.74728858 274.58897448 C183.22189938 274.54725349 167.69687668 274.47394784 152.17166138 274.38768005 C152.17166138 282.63768005 152.17166138 290.88768005 152.17166138 299.38768005 C155.23189575 299.32967224 158.29213013 299.27166443 161.44509888 299.2118988 C164.43709731 299.17280983 167.42906637 299.14250422 170.4211731 299.11302185 C172.48705964 299.08800916 174.55285886 299.05398769 176.61843872 299.01048279 C179.60254562 298.94924448 182.58547425 298.92133745 185.57009888 298.8993988 C186.48093231 298.87359238 187.39176575 298.84778595 188.3302002 298.82119751 C195.16032064 298.81826687 200.51058192 300.49916784 206.17166138 304.38768005 C212.4667043 311.18087963 213.71918537 316.40522182 213.50759888 325.6103363 C212.95285173 331.84801642 210.76631375 335.09590539 206.16384888 339.16111755 C201.4551577 342.86204457 198.04463022 344.50377345 191.98085022 344.54830933 C190.90575195 344.55835495 189.83065369 344.56840057 188.72297668 344.57875061 C186.9533532 344.5874971 186.9533532 344.5874971 185.14797974 344.59642029 C183.90539398 344.60620407 182.66280823 344.61598785 181.38256836 344.62606812 C177.25889016 344.65604938 173.13524664 344.67772382 169.01150513 344.6962738 C167.95760177 344.70121979 167.95760177 344.70121979 166.88240743 344.70626569 C160.24990835 344.73705561 153.6174046 344.76375099 146.9848547 344.78068447 C138.51681925 344.80256072 130.0494203 344.84446548 121.58163923 344.91412205 C115.61969209 344.96148886 109.65791585 344.98563514 103.69578654 344.99288136 C100.13939661 344.99782033 96.58372424 345.0127298 93.02754021 345.05262566 C89.05187687 345.0966383 85.07701944 345.09256702 81.10110474 345.08470154 C79.93552536 345.10470215 78.76994598 345.12470276 77.56904602 345.14530945 C69.78180265 345.07636505 64.22004518 343.43865475 58.17166138 338.38768005 C52.66961483 331.50901071 51.34681372 325.10237483 52.17166138 316.38768005 C53.97730598 309.75164863 58.61612732 305.21551544 64.17166138 301.38768005 C69.04043997 298.76182194 73.90457996 299.13307136 79.28494263 299.19236755 C80.73926949 299.1966124 80.73926949 299.1966124 82.22297668 299.20094299 C85.31016543 299.21211015 88.39706077 299.23720853 91.48416138 299.26268005 C93.58116239 299.27271433 95.67816796 299.2818394 97.775177 299.2900238 C102.9075416 299.31033391 108.03927424 299.34948949 113.17166138 299.38768005 C113.17166138 291.46768005 113.17166138 283.54768005 113.17166138 275.38768005 C109.47817505 275.38357117 105.78468872 275.37946228 101.97927856 275.37522888 C89.74960507 275.35799948 77.52016866 275.31369443 65.29063034 275.25558949 C57.87887068 275.22103085 50.46729525 275.19559602 43.05545044 275.19212341 C36.5904183 275.18907073 30.12571502 275.16840657 23.66080976 275.12715548 C20.24197869 275.10594085 16.82361376 275.09316455 13.40471649 275.10152626 C9.57490116 275.10645107 5.74642846 275.08025206 1.91677856 275.04710388 C0.24225616 275.06004234 0.24225616 275.06004234 -1.46609497 275.07324219 C-11.31739421 274.93114534 -20.99083801 272.10540679 -28.30099487 265.1884613 C-35.18573517 257.07115881 -38.1348556 248.87884708 -38.09576416 238.38139343 C-38.10029527 237.48494102 -38.10482639 236.58848861 -38.10949481 235.66487098 C-38.12213645 232.66649685 -38.12051857 229.66830442 -38.11886597 226.66990662 C-38.1248514 224.51778429 -38.13165698 222.36566411 -38.13922119 220.21354675 C-38.15688787 214.37043027 -38.16157689 208.52737237 -38.16285276 202.68423176 C-38.16427466 199.03206842 -38.16854501 195.37991996 -38.1738472 191.72776031 C-38.1923504 178.98190363 -38.20051753 166.23608878 -38.19894409 153.49021912 C-38.19774295 141.61710272 -38.2188394 129.74416819 -38.25043142 117.8710978 C-38.27660206 107.67132089 -38.28731104 97.47160335 -38.28603327 87.27179313 C-38.28552383 81.18269442 -38.29119732 75.09375729 -38.31238937 69.00469208 C-38.33178458 63.27546469 -38.33188719 57.54655281 -38.31735611 51.81731415 C-38.31526846 49.71873004 -38.31996625 47.62012613 -38.33207703 45.52157593 C-38.40781691 31.48423573 -37.88390051 20.16149636 -27.82833862 9.38768005 C-19.35402003 1.63420599 -11.1948143 -0.06169944 0 0 Z " fill="#2C7336" transform="translate(179.82833862304688,150.61231994628906)"/>
<path d="M0 0 C2.77417132 2.65012055 4.42406982 5.30370869 6.265625 8.6875 C6.57554886 9.25320709 6.88547272 9.81891418 7.20478821 10.40176392 C8.22453713 12.26532912 9.2371425 14.13268179 10.25 16 C10.96676461 17.31201521 11.68414023 18.6236968 12.40209961 19.93505859 C13.50957163 21.95811415 14.61663149 23.9813844 15.7217865 26.00570679 C19.30227105 32.56397384 22.92804436 39.09647649 26.5625 45.625 C27.80344116 47.85673984 29.04432651 50.08851071 30.28515625 52.3203125 C30.89762207 53.42149414 31.51008789 54.52267578 32.14111328 55.65722656 C34.63650482 60.1446052 37.12998366 64.63304511 39.62329102 69.12158203 C40.87231155 71.37004646 42.12149719 73.61841918 43.37084961 75.86669922 C46.52330463 81.53988442 49.6737013 87.21419621 52.8203125 92.890625 C58.67538922 103.44896007 64.54675918 113.99664525 70.5 124.5 C80.8097599 142.69257861 90.90537141 161.00450063 101.00137329 179.31625366 C105.98949452 188.36301835 110.98722155 197.40437197 116 206.4375 C116.58652344 207.49582031 117.17304687 208.55414063 117.77734375 209.64453125 C118.34582031 210.66804687 118.91429687 211.6915625 119.5 212.74609375 C120.29080963 214.19818489 120.29080963 214.19818489 121.09759521 215.67961121 C122.94075084 219.00048625 122.94075084 219.00048625 125.05938721 222.00141907 C131.6351746 231.99805767 132.1289758 240.35856649 131.921875 252.109375 C131.91708895 253.92953973 131.91529912 255.74971451 131.9163208 257.56988525 C131.91010535 261.36591443 131.87731359 265.16041119 131.82324219 268.95605469 C131.75548136 273.7678853 131.73998239 278.57803352 131.74302292 283.39028549 C131.74192303 287.14503391 131.71978909 290.89943065 131.69101715 294.65406036 C131.67848321 296.4254517 131.67045205 298.196882 131.66744232 299.96831512 C131.53268653 337.82810728 115.20775173 371.71844129 88.7109375 398.32373047 C62.39391855 424.10749932 27.8364946 436.38026792 -8.47021484 436.53100586 C-10.48736585 436.54984624 -12.5045068 436.56979058 -14.52163696 436.59074402 C-21.08466619 436.653238 -27.64769298 436.68485878 -34.2109375 436.71484375 C-36.48136115 436.72700337 -38.75178377 436.73935461 -41.02220535 436.751894 C-51.67791219 436.80887345 -62.33355841 436.85162929 -72.98938787 436.87672991 C-85.26158438 436.90612587 -97.53216902 436.98535632 -109.80379713 437.10623258 C-119.31670179 437.19670657 -128.82914329 437.24113331 -138.34246981 437.25107294 C-144.01456194 437.25811648 -149.68492006 437.28488913 -155.35654831 437.36045647 C-160.68445575 437.43032116 -166.00948732 437.4429991 -171.33773422 437.41217232 C-173.28848349 437.41068698 -175.23937513 437.42963085 -177.18968964 437.47084045 C-191.88294018 437.76388327 -191.88294018 437.76388327 -197.06964493 433.44244576 C-199.39570211 430.39193242 -201.20788796 427.38580601 -203 424 C-204.32391933 422.0109793 -205.66399265 420.03251521 -207.02734375 418.0703125 C-208.33362852 416.09045157 -209.63696877 414.10864506 -210.9375 412.125 C-215.91753741 404.59080225 -220.97097574 397.15699915 -226.26953125 389.84375 C-229.99122112 384.65481425 -233.54427675 379.34910936 -237.125 374.0625 C-242.73908905 365.77500568 -248.39472091 357.52011045 -254.125 349.3125 C-260.66790326 339.93903613 -267.12757249 330.51173433 -273.5546875 321.05859375 C-276.06888494 317.3617719 -278.59893842 313.67654482 -281.14160156 309.99926758 C-286.20161374 302.68093422 -291.14271971 295.28832068 -296.0625 287.875 C-301.12074996 280.25755154 -306.25767991 272.72695819 -311.61328125 265.31640625 C-314.45189494 261.38666655 -317.23406338 257.4186424 -320 253.4375 C-320.46962158 252.76976562 -320.93924316 252.10203125 -321.4230957 251.4140625 C-321.86097412 250.78113281 -322.29885254 250.14820313 -322.75 249.49609375 C-323.13671875 248.94107178 -323.5234375 248.3860498 -323.921875 247.81420898 C-325.21941049 245.63078818 -326.07676836 243.36259388 -327 241 C-326.35858063 241.3531427 -325.71716125 241.7062854 -325.05630493 242.07012939 C-313.29525328 247.59170087 -301.12774505 246.71180453 -288.3984375 246.671875 C-285.90987083 246.68247114 -283.42131307 246.69538929 -280.93276978 246.71051025 C-274.41044826 246.74458302 -267.88842619 246.75009704 -261.36602783 246.74859619 C-252.17589678 246.75182874 -242.98584872 246.7946939 -233.79580688 246.83233643 C-228.91098129 246.85220007 -224.02631317 246.86167975 -219.14144897 246.86248779 C-216.89947506 246.86631153 -214.65750118 246.87015568 -212.41552734 246.87402344 C-211.41886551 246.87192368 -210.42220367 246.86982391 -209.39533997 246.86766052 C-208.44820633 246.87022354 -207.50107269 246.87278656 -206.52523804 246.87542725 C-205.71896154 246.8753857 -204.91268505 246.87534416 -204.08197594 246.87530136 C-199.37688621 247.06567218 -194.68960077 247.57367266 -190 248 C-190 255.92 -190 263.84 -190 272 C-194.62515625 272.03867187 -194.62515625 272.03867187 -199.34375 272.078125 C-202.34904891 272.11660066 -205.35417946 272.16174315 -208.359375 272.20751953 C-210.43871952 272.23564499 -212.51816929 272.25690121 -214.59765625 272.27099609 C-217.59689892 272.29254238 -220.59488745 272.33925276 -223.59375 272.390625 C-224.51490601 272.39185364 -225.43606201 272.39308228 -226.38513184 272.39434814 C-233.33904629 272.55011354 -238.70003569 274.1523474 -244.0234375 278.74609375 C-244.69246094 279.58333984 -244.69246094 279.58333984 -245.375 280.4375 C-245.83648437 280.99308594 -246.29796875 281.54867188 -246.7734375 282.12109375 C-250.48383824 287.80486049 -250.82331876 293.3957441 -250 300 C-247.95418462 307.24862505 -244.35708613 311.11823205 -237.90727615 314.77933884 C-232.73149904 316.95246233 -227.69331732 316.8178284 -222.14990234 316.74462891 C-220.90308182 316.75193024 -219.65626129 316.75923157 -218.37165833 316.76675415 C-214.98050917 316.78010929 -211.59158805 316.76686338 -208.20066023 316.74008989 C-204.63699865 316.71729397 -201.07338772 316.72568842 -197.50967407 316.72958374 C-191.52969456 316.73134404 -185.55017093 316.70930373 -179.5703125 316.67236328 C-172.67296749 316.62999701 -165.77628867 316.62301953 -158.87883985 316.6354872 C-152.21950833 316.6469045 -145.56040955 316.63555065 -138.9011116 316.61314011 C-136.07751757 316.60389151 -133.25406687 316.60208135 -130.43046188 316.6063118 C-126.48382819 316.61080353 -122.53781925 316.58176246 -118.59130859 316.54931641 C-117.42953598 316.55427124 -116.26776337 316.55922607 -115.07078552 316.56433105 C-107.86999961 316.47002879 -101.86625792 315.68868928 -96.48326683 310.55292702 C-91.01109202 304.29650676 -90.29558828 298.93013076 -90.5703125 290.77734375 C-91.21407823 285.11805774 -92.9708132 281.92907917 -97 278 C-103.67013591 273.54878452 -109.69907912 272.2588487 -117.6015625 272.29296875 C-118.564039 272.27784744 -119.5265155 272.26272614 -120.51815796 272.24714661 C-123.55401637 272.20459477 -126.58887432 272.19546313 -129.625 272.1875 C-131.69924475 272.16433042 -133.77346615 272.13896001 -135.84765625 272.11132812 C-140.8989691 272.04470409 -145.94756889 272.02341059 -151 272 C-151 263.75 -151 255.5 -151 247 C-145.3688916 247.00169189 -145.3688916 247.00169189 -139.62402344 247.00341797 C-127.19478039 247.00278931 -114.76580157 246.96956552 -102.33666611 246.9197216 C-94.80379793 246.890303 -87.27121031 246.87187384 -79.73828125 246.87988281 C-73.16774517 246.88684007 -66.59764383 246.87259987 -60.02721429 246.83356392 C-56.55241035 246.81364237 -53.07828772 246.80388881 -49.60344696 246.81957626 C-45.71147028 246.83674779 -41.82059504 246.80656391 -37.92871094 246.77294922 C-36.22613632 246.79128059 -36.22613632 246.79128059 -34.48916626 246.8099823 C-26.06047053 246.67954411 -20.23741269 244.18413646 -13 240 C-12.26900967 239.68904325 -11.53801933 239.37808651 -10.78487778 239.05770683 C-8.47969122 237.69166844 -8.05400858 236.43923537 -7 234 C-6.51138929 233.25707577 -6.02277859 232.51415154 -5.5193615 231.74871445 C0.54281248 221.72180853 -0.15562244 211.64356732 -0.22705078 200.25878906 C-0.21887009 198.06984369 -0.208062 195.88090681 -0.19483948 193.69198608 C-0.16650762 187.77948484 -0.17472141 181.86754303 -0.18970728 175.95501423 C-0.19911163 169.76501527 -0.17461412 163.57515059 -0.15377808 157.38519287 C-0.11948475 145.67702196 -0.11549346 133.96904651 -0.12250316 122.26083541 C-0.12900292 108.92579842 -0.10154799 95.59092537 -0.07130075 82.2559247 C-0.00986569 54.83726911 0.00912352 27.41871651 0 0 Z " fill="#317A38" transform="translate(483,178)"/>
<path d="M0 0 C1.76376423 -0.00807831 1.76376423 -0.00807831 3.56316006 -0.01631981 C6.80954184 -0.02811318 10.05559245 -0.02654596 13.30197692 -0.019153 C16.80992346 -0.01441083 20.31781567 -0.02694046 23.82574463 -0.03717041 C30.69146481 -0.05434355 37.55709341 -0.05520148 44.42282949 -0.04995751 C50.00513312 -0.04591162 55.58740973 -0.04736434 61.16971207 -0.05270576 C61.96504496 -0.05345419 62.76037784 -0.05420261 63.57981173 -0.05497371 C65.19567815 -0.05650523 66.81154457 -0.05804358 68.42741098 -0.05958868 C83.57198119 -0.07330848 98.71649971 -0.06787981 113.86106874 -0.05640347 C127.70515559 -0.04647276 141.54910876 -0.05940985 155.39317499 -0.08333766 C169.62034658 -0.10774167 183.84745593 -0.11733326 198.07464802 -0.11068493 C206.0572906 -0.10719546 214.0398304 -0.10940673 222.02245712 -0.12693596 C228.81824861 -0.14167429 235.61386494 -0.14227221 242.40965305 -0.12486505 C245.87426308 -0.11636578 249.33856045 -0.11417873 252.80315399 -0.1295166 C256.56551536 -0.14271554 260.32703032 -0.13118685 264.08935547 -0.11352539 C265.17536321 -0.1231304 266.26137094 -0.1327354 267.380288 -0.14263147 C277.80868432 -0.04211308 286.49972523 3.22720632 294.17166138 10.38768005 C301.09889186 17.95893877 303.62892478 25.63301743 303.57279968 35.73490906 C303.57959635 36.64390984 303.58639302 37.55291063 303.59339565 38.48945689 C303.61230169 41.51847492 303.60993507 44.54708632 303.60745239 47.57615662 C303.61643406 49.75488807 303.62664325 51.93361476 303.63798523 54.11233521 C303.66444856 60.01952922 303.67151718 65.9265928 303.67343259 71.83384037 C303.6755674 75.52791506 303.68197663 79.22195677 303.68992424 82.91602325 C303.71766623 95.81333516 303.72993127 108.71055414 303.72756958 121.6078949 C303.72576788 133.61405208 303.75741481 145.61971235 303.80480057 157.62578416 C303.84407946 167.94708598 303.86011906 178.26825583 303.85820335 188.5896318 C303.8574399 194.74814956 303.86591039 200.90630761 303.8977375 207.06475067 C303.92686981 212.85979682 303.92695826 218.65414156 303.90518761 224.44921303 C303.90206101 226.56954032 303.90907385 228.68991197 303.92726898 230.8101635 C304.03372389 244.08034396 303.59172953 253.87150271 294.60916138 264.38768005 C293.80478638 265.04768005 293.00041138 265.70768005 292.17166138 266.38768005 C291.42916138 267.06830505 290.68666138 267.74893005 289.92166138 268.45018005 C282.02819187 274.01148812 275.11485906 274.96140705 265.58352661 274.84178162 C264.35326248 274.84236572 263.12299835 274.84294983 261.85545349 274.84355164 C258.50859043 274.84125531 255.1627352 274.82130634 251.81605029 274.79325581 C248.30872792 274.7681157 244.80138966 274.76589029 241.29399109 274.76115417 C234.664294 274.74876117 228.03486326 274.71598997 221.40528303 274.67575622 C213.85265601 274.63092339 206.30001573 274.60902266 198.74728858 274.58897448 C183.22189938 274.54725349 167.69687668 274.47394784 152.17166138 274.38768005 C152.17166138 282.63768005 152.17166138 290.88768005 152.17166138 299.38768005 C155.23189575 299.32967224 158.29213013 299.27166443 161.44509888 299.2118988 C164.43709731 299.17280983 167.42906637 299.14250422 170.4211731 299.11302185 C172.48705964 299.08800916 174.55285886 299.05398769 176.61843872 299.01048279 C179.60254562 298.94924448 182.58547425 298.92133745 185.57009888 298.8993988 C186.48093231 298.87359238 187.39176575 298.84778595 188.3302002 298.82119751 C195.16032064 298.81826687 200.51058192 300.49916784 206.17166138 304.38768005 C212.4667043 311.18087963 213.71918537 316.40522182 213.50759888 325.6103363 C212.95285173 331.84801642 210.76631375 335.09590539 206.16384888 339.16111755 C201.4551577 342.86204457 198.04463022 344.50377345 191.98085022 344.54830933 C190.90575195 344.55835495 189.83065369 344.56840057 188.72297668 344.57875061 C186.9533532 344.5874971 186.9533532 344.5874971 185.14797974 344.59642029 C183.90539398 344.60620407 182.66280823 344.61598785 181.38256836 344.62606812 C177.25889016 344.65604938 173.13524664 344.67772382 169.01150513 344.6962738 C167.95760177 344.70121979 167.95760177 344.70121979 166.88240743 344.70626569 C160.24990835 344.73705561 153.6174046 344.76375099 146.9848547 344.78068447 C138.51681925 344.80256072 130.0494203 344.84446548 121.58163923 344.91412205 C115.61969209 344.96148886 109.65791585 344.98563514 103.69578654 344.99288136 C100.13939661 344.99782033 96.58372424 345.0127298 93.02754021 345.05262566 C89.05187687 345.0966383 85.07701944 345.09256702 81.10110474 345.08470154 C79.93552536 345.10470215 78.76994598 345.12470276 77.56904602 345.14530945 C69.78180265 345.07636505 64.22004518 343.43865475 58.17166138 338.38768005 C52.66961483 331.50901071 51.34681372 325.10237483 52.17166138 316.38768005 C53.97730598 309.75164863 58.61612732 305.21551544 64.17166138 301.38768005 C69.04043997 298.76182194 73.90457996 299.13307136 79.28494263 299.19236755 C80.73926949 299.1966124 80.73926949 299.1966124 82.22297668 299.20094299 C85.31016543 299.21211015 88.39706077 299.23720853 91.48416138 299.26268005 C93.58116239 299.27271433 95.67816796 299.2818394 97.775177 299.2900238 C102.9075416 299.31033391 108.03927424 299.34948949 113.17166138 299.38768005 C113.17166138 291.46768005 113.17166138 283.54768005 113.17166138 275.38768005 C109.47817505 275.38357117 105.78468872 275.37946228 101.97927856 275.37522888 C89.74960507 275.35799948 77.52016866 275.31369443 65.29063034 275.25558949 C57.87887068 275.22103085 50.46729525 275.19559602 43.05545044 275.19212341 C36.5904183 275.18907073 30.12571502 275.16840657 23.66080976 275.12715548 C20.24197869 275.10594085 16.82361376 275.09316455 13.40471649 275.10152626 C9.57490116 275.10645107 5.74642846 275.08025206 1.91677856 275.04710388 C0.24225616 275.06004234 0.24225616 275.06004234 -1.46609497 275.07324219 C-11.31739421 274.93114534 -20.99083801 272.10540679 -28.30099487 265.1884613 C-35.18573517 257.07115881 -38.1348556 248.87884708 -38.09576416 238.38139343 C-38.10029527 237.48494102 -38.10482639 236.58848861 -38.10949481 235.66487098 C-38.12213645 232.66649685 -38.12051857 229.66830442 -38.11886597 226.66990662 C-38.1248514 224.51778429 -38.13165698 222.36566411 -38.13922119 220.21354675 C-38.15688787 214.37043027 -38.16157689 208.52737237 -38.16285276 202.68423176 C-38.16427466 199.03206842 -38.16854501 195.37991996 -38.1738472 191.72776031 C-38.1923504 178.98190363 -38.20051753 166.23608878 -38.19894409 153.49021912 C-38.19774295 141.61710272 -38.2188394 129.74416819 -38.25043142 117.8710978 C-38.27660206 107.67132089 -38.28731104 97.47160335 -38.28603327 87.27179313 C-38.28552383 81.18269442 -38.29119732 75.09375729 -38.31238937 69.00469208 C-38.33178458 63.27546469 -38.33188719 57.54655281 -38.31735611 51.81731415 C-38.31526846 49.71873004 -38.31996625 47.62012613 -38.33207703 45.52157593 C-38.40781691 31.48423573 -37.88390051 20.16149636 -27.82833862 9.38768005 C-19.35402003 1.63420599 -11.1948143 -0.06169944 0 0 Z M-14.82833862 28.38768005 C-19.81013019 35.87749702 -19.39061616 44.15068891 -19.33004761 52.78636169 C-19.33383632 54.33134451 -19.3393409 55.87632392 -19.34642029 57.42129517 C-19.36031915 61.59486599 -19.34924513 65.768022 -19.33270907 69.94156957 C-19.31880231 74.32069889 -19.32532495 78.6998055 -19.32884216 83.07894897 C-19.33153957 90.43005515 -19.31810823 97.78099761 -19.29489136 105.13206482 C-19.26827467 113.61808364 -19.26653942 122.10382901 -19.27827972 130.58987528 C-19.28907632 138.77140284 -19.28285632 146.95283197 -19.26872444 155.13435173 C-19.26298195 158.60824868 -19.26303358 162.08207318 -19.26778984 165.55597115 C-19.27257872 169.6494425 -19.26237929 173.74261617 -19.24083519 177.83603096 C-19.23529345 179.33395891 -19.23477789 180.83191561 -19.23978806 182.32984543 C-19.26586623 191.24811851 -18.83900963 198.20932592 -14.26583862 206.07518005 C-7.33287229 212.65260965 0.28058114 214.12357983 9.53938293 214.00914001 C10.64146381 214.01552884 11.74354468 214.02191766 12.87902194 214.02850008 C16.54945452 214.0436864 20.21879671 214.02332961 23.88919067 214.00291443 C26.52954944 214.00641747 29.16983804 214.0118821 31.81018066 214.01972961 C38.22285236 214.03421303 44.6352061 214.02206698 51.04784759 214.00061637 C58.52086773 213.97654083 65.99381604 213.97832467 73.46686635 213.98092228 C86.80155462 213.98460761 100.13609354 213.96382673 113.47073364 213.92967224 C126.4017616 213.89656399 139.33263291 213.88241788 152.26370239 213.88865662 C166.35912009 213.89542369 180.45447229 213.89295292 194.54988033 213.87329721 C195.2954655 213.87225773 196.04105068 213.87121824 196.80922935 213.87014726 C198.3065499 213.86805642 199.80387042 213.86594545 201.30119091 213.86381409 C206.50729959 213.85692586 211.71338807 213.85624792 216.91950035 213.85769653 C223.26370934 213.85913756 229.60779083 213.84942085 235.95195755 213.82575017 C239.18730776 213.81390747 242.42244495 213.80836 245.65781975 213.81258774 C249.16704697 213.81629888 252.67572663 213.80156678 256.18489075 213.78208923 C257.20434475 213.78741716 258.22379876 213.79274508 259.27414531 213.79823446 C266.57952369 213.72820703 272.19307472 212.49333922 277.92166138 207.63768005 C278.47338013 207.1890863 279.02509888 206.74049255 279.59353638 206.27830505 C283.57544619 201.50789824 284.54683818 196.51002162 284.55934143 190.44285583 C284.56472697 189.78027834 284.57011251 189.11770084 284.57566124 188.43504524 C284.58986933 186.23416724 284.58285534 184.0338968 284.57571411 181.83299255 C284.58142139 180.24727397 284.58838704 178.66155948 284.59651184 177.07585144 C284.61441731 172.78248493 284.61328001 168.48932308 284.60756946 164.19593048 C284.60447432 160.60741015 284.61057355 157.01892895 284.6166082 153.4304142 C284.63064276 144.96366227 284.62910059 136.49701127 284.6177063 128.03025818 C284.60622129 119.30337952 284.62030955 110.57680805 284.64710277 101.84996986 C284.6692699 94.34827323 284.67589502 86.84667296 284.67002636 79.34494591 C284.66665858 74.86841344 284.66906013 70.39207796 284.68627739 65.91557312 C284.70176104 61.70636252 284.69777547 57.49760673 284.67897224 53.288414 C284.67529051 51.74651933 284.67838275 50.20459084 284.68885803 48.66272736 C284.74641621 39.48817615 284.50781242 33.38882905 278.31228638 26.2431488 C277.376427 25.41750427 277.376427 25.41750427 276.42166138 24.57518005 C275.80806763 24.01185974 275.19447388 23.44853943 274.56228638 22.8681488 C268.09561436 18.8634614 260.63881321 19.09902262 253.28569031 19.12698364 C252.21123073 19.1231581 251.13677115 19.11933255 250.02975219 19.11539108 C246.4410187 19.10509887 242.85244632 19.10904608 239.26370239 19.11302185 C236.68602348 19.10867332 234.10834586 19.1034897 231.53067017 19.09753418 C225.26287619 19.08480809 218.9951251 19.08299084 212.72732038 19.08533444 C207.63128285 19.08711996 202.53525831 19.08536296 197.43922234 19.08111 C196.71298476 19.08051481 195.98674717 19.07991962 195.23850239 19.0793064 C193.76299525 19.07809461 192.2874881 19.07688047 190.81198096 19.07566402 C176.98606014 19.06479672 163.16016374 19.06694725 149.33424156 19.07304887 C136.69550699 19.07821835 124.05684949 19.06696033 111.41813017 19.04795065 C98.4283336 19.02856325 85.43857348 19.02031776 72.44876236 19.0240739 C65.16089493 19.02598444 57.8730931 19.02351264 50.5852375 19.00935936 C43.73239366 18.99618509 36.87970651 18.9987178 30.0268631 19.01177025 C27.5134342 19.0141372 24.99999446 19.01139713 22.48657799 19.00314713 C19.05241158 18.99268855 15.61876394 19.00077382 12.18461609 19.01345825 C11.19296922 19.00608397 10.20132235 18.99870968 9.17962557 18.99111193 C-0.20292463 19.06388599 -8.54593004 20.98123435 -14.82833862 28.38768005 Z " fill="#DDDEDF" transform="translate(179.82833862304688,150.61231994628906)"/>
<path d="M0 0 C3.88975472 2.8006234 3.88975472 2.8006234 5 6 C5.2388443 14.87338005 3.16748265 23.37252454 0.875 31.875 C0.23123545 34.35205076 -0.40927629 36.82994872 -1.046875 39.30859375 C-1.37365234 40.57815918 -1.70042969 41.84772461 -2.03710938 43.15576172 C-3.59879578 49.39062838 -4.98630232 55.66223883 -6.375 61.9375 C-9.0512376 73.97169725 -11.88763807 85.9613042 -14.8125 97.9375 C-15.00745056 98.73590302 -15.20240112 99.53430603 -15.40325928 100.35690308 C-16.59657035 105.23932477 -17.79429388 110.12062386 -19 115 C-19.1693808 115.71310333 -19.3387616 116.42620667 -19.51327515 117.16091919 C-20.88775735 122.86883947 -22.00116926 126.66744618 -27 130 C-30.99460923 130.70413451 -35.19004979 131.08917358 -38.765625 128.9375 C-41.85981173 125.66548644 -42.33394358 122.71281587 -42.22265625 118.36962891 C-41.77709448 113.6277182 -40.57329107 109.05341705 -39.4375 104.4375 C-38.88306482 102.11613589 -38.32972656 99.79450959 -37.77734375 97.47265625 C-37.48585449 96.25594238 -37.19436523 95.03922852 -36.89404297 93.78564453 C-35.52423775 87.98548076 -34.23563404 82.16740169 -32.94042969 76.35025024 C-30.51897521 65.49044972 -27.96778979 54.67334647 -25.20581055 43.89453125 C-22.93373301 34.9492243 -20.96905708 25.9412002 -19.09155273 16.90527344 C-16.36257486 4.15411237 -16.36257486 4.15411237 -11.875 0.0625 C-7.67617163 -1.48924092 -4.26107675 -1.33062505 0 0 Z " fill="#E7E9E8" transform="translate(331,203)"/>
<path d="M0 0 C3.07157739 1.55658274 5.46274986 3.69081729 8 6 C8.77085937 6.68835938 9.54171875 7.37671875 10.3359375 8.0859375 C12.02225774 9.60202983 13.70170335 11.12579574 15.375 12.65625 C17.9592898 14.96365161 20.6105675 17.14467043 23.3125 19.3125 C27.72036209 22.88167016 31.95175586 26.59990861 36.125 30.4375 C36.69387939 30.95803955 37.26275879 31.4785791 37.84887695 32.01489258 C41.34494536 35.25860676 43.16959864 37.24549575 43.6875 42 C43.64908264 46.77911978 41.81676584 48.80315489 38.5 52.125 C36.68944998 53.77534686 34.85685508 55.40193075 33 57 C32.3090625 57.61746094 31.618125 58.23492187 30.90625 58.87109375 C29.63471223 59.99932296 28.35335503 61.11658087 27.0625 62.22265625 C24.67535264 64.2797624 22.33765244 66.38684772 20 68.5 C18.33358753 70.00028239 16.66693061 71.50029332 15 73 C14.27296875 73.65613281 13.5459375 74.31226563 12.796875 74.98828125 C3.07287094 83.65452151 3.07287094 83.65452151 -2 84.5 C-6.46487958 83.7558534 -9.62823978 81.80822938 -12.375 78.1875 C-13.35285878 74.76499428 -13.53535985 72.56906567 -13 69 C-8.74763858 62.30013796 -1.9168451 57.16799439 4 52 C4.763125 51.31035156 5.52625 50.62070312 6.3125 49.91015625 C7.01375 49.27980469 7.715 48.64945312 8.4375 48 C9.05496094 47.443125 9.67242187 46.88625 10.30859375 46.3125 C12 45 12 45 15 44 C12.55145848 39.12992293 9.10819569 36.23480206 5 32.8125 C3.65286895 31.66627701 2.30652217 30.51913169 0.9609375 29.37109375 C0.29416992 28.80503418 -0.37259766 28.23897461 -1.05957031 27.65576172 C-3.86356068 25.26312675 -6.62648186 22.83135283 -9.375 20.375 C-10.24898438 19.59898437 -11.12296875 18.82296875 -12.0234375 18.0234375 C-14.68641259 15.29730885 -14.96370988 13.39193327 -15.3125 9.625 C-14.94884973 5.40665686 -13.95115008 3.95115008 -11 1 C-7.45910591 -0.77044705 -3.85755399 -0.6336079 0 0 Z " fill="#E0E2E2" transform="translate(362,227)"/>
<path d="M0 0 C3.59998245 0.70935615 5.2207698 2.6144405 7.37890625 5.46875 C7.87390625 5.96375 7.87390625 5.96375 8.37890625 6.46875 C8.76835664 11.53160502 8.50273116 14.43800818 5.37890625 18.46875 C1.38496822 22.84306308 -3.00797129 26.75963455 -7.48828125 30.625 C-9.88542328 32.69725464 -12.25444198 34.79926222 -14.62109375 36.90625 C-15.38421875 37.58558594 -16.14734375 38.26492188 -16.93359375 38.96484375 C-17.49046875 39.46113281 -18.04734375 39.95742188 -18.62109375 40.46875 C-17.12562295 44.06596356 -15.09403067 46.09972221 -12.18359375 48.65625 C-11.29285156 49.44128906 -10.40210938 50.22632813 -9.484375 51.03515625 C-6.65304132 53.44159674 -3.77215709 55.77210561 -0.87109375 58.09375 C9.99089373 66.96822488 9.99089373 66.96822488 10.94140625 73.09375 C10.15166559 77.83219398 8.85273138 80.31358976 5.06640625 83.28125 C1.63573436 84.79712828 0.10487703 85.18528284 -3.62109375 84.46875 C-9.67142591 80.73383341 -14.80265054 75.55478517 -20.03125 70.77734375 C-22.60458942 68.483462 -25.24539226 66.31383407 -27.93359375 64.15625 C-32.34145584 60.58707984 -36.57284961 56.86884139 -40.74609375 53.03125 C-41.59941284 52.25044067 -41.59941284 52.25044067 -42.4699707 51.45385742 C-46.03194979 48.14899015 -47.44929705 46.71427605 -48.12109375 41.84375 C-48.03579482 37.10965935 -46.02219498 34.84602097 -42.8125 31.5390625 C-38.81803332 27.76532392 -34.76607392 24.07678172 -30.62109375 20.46875 C-29.93917969 19.87191406 -29.25726563 19.27507812 -28.5546875 18.66015625 C-27.26968025 17.5360994 -25.98322893 16.41369116 -24.6953125 15.29296875 C-21.43557426 12.42611798 -18.22698591 9.50286516 -15.015625 6.58203125 C-14.22542969 5.88464844 -13.43523437 5.18726563 -12.62109375 4.46875 C-11.79996094 3.73140625 -10.97882813 2.9940625 -10.1328125 2.234375 C-6.62240302 -0.23328454 -4.1737889 -0.14928604 0 0 Z " fill="#EEEFEF" transform="translate(267.62109375,226.53125)"/>
</svg>
