<?xml version="1.0" encoding="UTF-8"?>
<svg version="1.1" xmlns="http://www.w3.org/2000/svg" width="625" height="625">
<path d="M0 0 C1.43291942 -0.00258688 2.86583811 -0.00560094 4.29875582 -0.0090034 C8.22315228 -0.01703912 12.1475304 -0.01886106 16.0719341 -0.01960087 C20.31010192 -0.02145749 24.54826037 -0.02900801 28.78642273 -0.03573608 C38.04932471 -0.04929694 47.31222235 -0.05534101 56.57513261 -0.05974674 C62.36580067 -0.06251374 68.15646708 -0.066752 73.94713402 -0.07125092 C89.9983869 -0.08344211 106.04963847 -0.09374077 122.10089588 -0.09712601 C123.12753156 -0.09734557 124.15416724 -0.09756514 125.21191309 -0.09779136 C126.24093141 -0.09800964 127.26994973 -0.09822791 128.33015043 -0.09845281 C130.41514321 -0.09889626 132.500136 -0.09934283 134.58512878 -0.09979248 C135.61934543 -0.10001391 136.65356207 -0.10023534 137.71911862 -0.10046348 C154.45733123 -0.10440704 171.19550018 -0.12184822 187.93369595 -0.145152 C205.14300154 -0.168917 222.35228528 -0.18133025 239.56160754 -0.18249393 C249.2139964 -0.18340795 258.86632843 -0.18909107 268.51870155 -0.20731354 C276.74224329 -0.22278437 284.96571062 -0.22779419 293.18926416 -0.21957543 C297.37795582 -0.2156931 301.56649797 -0.21647876 305.75517082 -0.23063278 C350.59827603 -0.37319491 389.50677337 9.64030699 422.44377136 41.64044189 C447.84351878 66.93662959 462.94663126 102.374265 463.05949521 138.21892959 C463.05871517 139.55395788 463.05783642 140.88898611 463.05686951 142.22401428 C463.05945639 143.6569337 463.06247045 145.0898524 463.06587291 146.52277011 C463.07390863 150.44716656 463.07573056 154.37154468 463.07647038 158.29594839 C463.078327 162.53411621 463.08587751 166.77227465 463.09260559 171.01043701 C463.10616644 180.27333899 463.11221051 189.53623663 463.11661625 198.79914689 C463.11938325 204.58981495 463.12362151 210.38048136 463.12812042 216.1711483 C463.14031162 232.22240119 463.15061028 248.27365275 463.15399551 264.32491016 C463.15421508 265.35154584 463.15443465 266.37818152 463.15466087 267.43592737 C463.15487914 268.46494569 463.15509742 269.49396401 463.15532231 270.55416471 C463.15576577 272.63915749 463.15621233 274.72415028 463.15666199 276.80914307 C463.15688342 277.84335971 463.15710485 278.87757636 463.15733299 279.9431329 C463.16127654 296.68134551 463.17871773 313.41951447 463.20202151 330.15771023 C463.22578651 347.36701582 463.23819975 364.57629957 463.23936343 381.78562182 C463.24027746 391.43801069 463.24596057 401.09034271 463.26418304 410.74271584 C463.27965388 418.96625757 463.2846637 427.1897249 463.27644494 435.41327844 C463.27256261 439.6019701 463.27334826 443.79051225 463.28750229 447.9791851 C463.43006442 492.82229032 453.41656251 531.73078765 421.41642761 564.66778564 C396.12023992 590.06753306 360.68260451 605.17064554 324.83793992 605.28350949 C323.50291163 605.28272945 322.16788339 605.28185071 320.83285522 605.28088379 C319.39993581 605.28347067 317.96701711 605.28648473 316.5340994 605.28988719 C312.60970295 605.29792291 308.68532482 605.29974485 304.76092112 605.30048466 C300.5227533 605.30234128 296.28459486 605.30989179 292.0464325 605.31661987 C282.78353051 605.33018073 273.52063287 605.3362248 264.25772262 605.34063053 C258.46705455 605.34339753 252.67638815 605.34763579 246.88572121 605.3521347 C230.83446832 605.3643259 214.78321676 605.37462456 198.73195934 605.3780098 C197.70532366 605.37822936 196.67868799 605.37844893 195.62094213 605.37867515 C194.59192381 605.37889343 193.56290549 605.3791117 192.5027048 605.3793366 C190.41771201 605.37978005 188.33271923 605.38022662 186.24772644 605.38067627 C185.2135098 605.3808977 184.17929315 605.38111913 183.11373661 605.38134727 C166.375524 605.38529083 149.63735504 605.40273201 132.89915927 605.42603579 C115.68985368 605.44980079 98.48056994 605.46221403 81.27124768 605.46337771 C71.61885882 605.46429174 61.9665268 605.46997486 52.31415367 605.48819733 C44.09061194 605.50366816 35.86714461 605.50867798 27.64359107 605.50045922 C23.45489941 605.49657689 19.26635725 605.49736255 15.0776844 605.51151657 C-29.76542081 605.6540787 -68.67391814 595.64057679 -101.61091614 563.64044189 C-127.01066355 538.3442542 -142.11377604 502.90661879 -142.22663999 467.0619542 C-142.22585995 465.72692591 -142.2249812 464.39189767 -142.22401428 463.05686951 C-142.22660116 461.62395009 -142.22961522 460.19103139 -142.23301768 458.75811368 C-142.2410534 454.83371723 -142.24287534 450.90933911 -142.24361515 446.9849354 C-142.24547177 442.74676758 -142.25302229 438.50860914 -142.25975037 434.27044678 C-142.27331122 425.00754479 -142.27935529 415.74464715 -142.28376102 406.4817369 C-142.28652803 400.69106884 -142.29076628 394.90040243 -142.2952652 389.10973549 C-142.30745639 373.0584826 -142.31775505 357.00723104 -142.32114029 340.95597363 C-142.32135986 339.92933795 -142.32157942 338.90270227 -142.32180564 337.84495642 C-142.32202392 336.8159381 -142.3222422 335.78691978 -142.32246709 334.72671908 C-142.32291055 332.64172629 -142.32335711 330.55673351 -142.32380676 328.47174072 C-142.32402819 327.43752408 -142.32424962 326.40330743 -142.32447776 325.33775089 C-142.32842132 308.59953828 -142.3458625 291.86136932 -142.36916628 275.12317356 C-142.39293129 257.91386797 -142.40534453 240.70458422 -142.40650821 223.49526197 C-142.40742223 213.8428731 -142.41310535 204.19054108 -142.43132782 194.53816795 C-142.44679865 186.31462622 -142.45180847 178.09115889 -142.44358972 169.86760535 C-142.43970738 165.67891369 -142.44049304 161.49037154 -142.45464706 157.30169868 C-142.59720919 112.45859347 -132.58370729 73.55009614 -100.58357239 40.61309814 C-73.83821348 13.75824677 -37.59490825 -0.02722877 0 0 Z " fill="#F2776C" transform="translate(152.0835723876953,9.85955810546875)"/>
<path d="M0 0 C2.24471461 2.86946792 4.09510931 5.79693121 5.86328125 8.98046875 C6.41306641 9.96660156 6.96285156 10.95273438 7.52929688 11.96875 C8.11775391 13.0309375 8.70621094 14.093125 9.3125 15.1875 C10.57935032 17.46228233 11.84627958 19.73702071 13.11328125 22.01171875 C13.76649755 23.18665354 14.41965509 24.361621 15.07275391 25.53662109 C18.03727327 30.86404341 21.01889781 36.18184529 24 41.5 C25.16547402 43.58066787 26.33083822 45.66139726 27.49609375 47.7421875 C28.07343262 48.77311523 28.65077148 49.80404297 29.24560547 50.86621094 C31.00959024 54.01713057 32.77250143 57.16864871 34.53515625 60.3203125 C40.14672415 70.35144606 45.77156769 80.37446046 51.4375 90.375 C56.81602438 99.86980071 62.1207389 109.40438265 67.41162109 118.94824219 C71.95426559 127.13552577 76.54299405 135.29548193 81.15844727 143.44189453 C86.88662934 153.55518317 92.56051503 163.69866584 98.23388672 173.84277344 C101.15398137 179.06293711 104.07713566 184.28138679 107 189.5 C108.16668154 191.58332501 109.3333482 193.66665834 110.5 195.75 C111.36625 197.296875 111.36625 197.296875 112.25 198.875 C117.5 208.25000001 117.5 208.25000001 119.25024414 211.37548828 C120.41603752 213.45722732 121.58189032 215.53893309 122.74780273 217.62060547 C125.6783206 222.85305923 128.60777916 228.08610086 131.53515625 233.3203125 C137.16934113 243.39204122 142.81542249 253.45661343 148.5 263.5 C154.77382269 274.58445199 160.99930356 285.69561503 167.21630859 296.81201172 C169.62803916 301.12249321 172.04293321 305.43119672 174.45898438 309.73925781 C175.64124996 311.85044636 176.820991 313.96305088 177.99804688 316.07714844 C180.66130523 320.85731672 183.34818455 325.61585535 186.13671875 330.32421875 C186.61270508 331.14092041 187.08869141 331.95762207 187.57910156 332.79907227 C188.4523735 334.29433857 189.3399694 335.7813798 190.24511719 337.25756836 C192.19768547 340.63254556 192.99747925 342.54525647 193.01953125 346.5234375 C191.80395256 350.66851426 190.08697954 353.89218943 187.75 357.5 C187.30889893 358.1899707 186.86779785 358.87994141 186.41333008 359.59082031 C165.94683954 390.71775378 133.66432152 412.50378399 97.36366272 420.6026001 C87.61673554 422.5950183 77.84076289 422.46779322 67.93139648 422.48339844 C65.85026782 422.49731502 63.76914666 422.51239321 61.68803406 422.52853394 C56.08126269 422.56756056 50.4745984 422.58716642 44.86771274 422.60056591 C41.36108984 422.6094002 37.85449543 422.62172112 34.34788704 422.63507843 C23.36379668 422.67598072 12.37977239 422.70505358 1.39561123 422.7166841 C-11.26514158 422.73016761 -23.92492942 422.78305239 -36.58538872 422.86968589 C-46.39379187 422.93447005 -56.20192268 422.96479247 -66.01053756 422.96880746 C-71.86159207 422.9719518 -77.71173435 422.98968089 -83.56256294 423.0432663 C-89.05507815 423.09260817 -94.54599109 423.09922831 -100.03864861 423.07284927 C-102.05349388 423.07053389 -104.06842442 423.08362407 -106.08305359 423.11322403 C-121.32304053 423.32403133 -121.32304053 423.32403133 -125.48684597 420.03652859 C-127.06676321 417.71667605 -128.06072265 415.63371066 -129 413 C-129.63091553 411.95078369 -130.26183105 410.90156738 -130.91186523 409.82055664 C-131.45528564 408.86012451 -131.99870605 407.89969238 -132.55859375 406.91015625 C-133.49662842 405.25935059 -133.49662842 405.25935059 -134.45361328 403.57519531 C-134.77654358 403.00337524 -135.09947388 402.43155518 -135.43218994 401.84240723 C-136.82413006 399.37796927 -138.22376616 396.91792948 -139.62286377 394.45755005 C-140.34714432 393.18372882 -141.07106052 391.90970036 -141.7946167 390.63546753 C-145.37865873 384.32526264 -148.99679835 378.0349124 -152.625 371.75 C-153.55010376 370.14717163 -153.55010376 370.14717163 -154.49389648 368.51196289 C-159.21268341 360.34509405 -163.96268821 352.19667082 -168.72216797 344.0534668 C-173.09185868 336.57198929 -177.42605972 329.07049696 -181.75 321.5625 C-185.91135671 314.33862245 -190.08169321 307.12096011 -194.3125 299.9375 C-194.89076538 298.95330078 -194.89076538 298.95330078 -195.48071289 297.94921875 C-197.58694888 294.37142946 -199.71721394 290.80950562 -201.8671875 287.2578125 C-202.33858154 286.472854 -202.80997559 285.68789551 -203.2956543 284.87915039 C-204.20447237 283.36647285 -205.11973136 281.85764119 -206.04223633 280.35327148 C-207.08946226 278.60412115 -208.05356223 276.80567566 -209 275 C-208.67 274.34 -208.34 273.68 -208 273 C-206.32082583 273.00414807 -206.32082583 273.00414807 -204.60772896 273.00837994 C-177.35715685 273.07500662 -150.10659532 273.12429062 -122.85595894 273.15543652 C-109.67770618 273.17089914 -96.49950726 273.1919772 -83.32128906 273.22631836 C-71.83389305 273.25623911 -60.34653603 273.2755794 -48.85910213 273.28226548 C-42.77775486 273.28617318 -36.69651915 273.29534443 -30.61520767 273.31719017 C-24.88776133 273.33759746 -19.16047219 273.34382516 -13.43299294 273.33932304 C-11.33440992 273.34014634 -9.23582148 273.34608657 -7.13726997 273.35761642 C-4.26353319 273.37262688 -1.39038355 273.36892247 1.48336792 273.36076355 C2.30635718 273.36950207 3.12934644 273.3782406 3.97727478 273.38724393 C13.96331423 273.31104306 23.06666568 270.06666742 31 264 C37.89735951 256.98423088 41.83106127 247.69528123 42.25 237.9375 C42.05922585 226.4719733 38.12978473 217.07872992 30.125 208.9375 C29.42375 208.298125 28.7225 207.65875 28 207 C28.969375 206.690625 29.93875 206.38125 30.9375 206.0625 C33.84065792 205.30476658 33.84065792 205.30476658 35 204 C35.62818823 199.18389026 34.84562699 196.34217743 32.6875 192 C25.20751089 176.44502264 25.12436409 158.34099849 30 142 C31.26422803 138.8921061 32.61975138 135.83861594 33.9921875 132.77734375 C35.48377931 128.66679424 35.36057997 125.32695963 35 121 C31.52699275 119.84233092 28.38915053 119.82480443 24.7746582 119.79467773 C23.6767244 119.77982834 23.6767244 119.77982834 22.55661011 119.76467896 C20.13803335 119.73309989 17.71943696 119.70832077 15.30078125 119.68359375 C13.62354523 119.66302112 11.94631436 119.64202456 10.26908875 119.62062073 C5.85505341 119.56543199 1.44097154 119.51600861 -2.97314453 119.46777344 C-7.47758119 119.41753507 -11.98195028 119.36186119 -16.48632812 119.30664062 C-25.32416102 119.19909817 -34.16205259 119.09764449 -43 119 C-40.11679073 116.10019672 -37.23995999 113.27465476 -34.125 110.625 C-32.748689 109.41816013 -31.37364958 108.20986829 -30 107 C-29.4328125 106.51273437 -28.865625 106.02546875 -28.28125 105.5234375 C-11.75469645 90.32212645 -4.69565314 68.2182258 0 47 C0.29801514 45.65808594 0.29801514 45.65808594 0.60205078 44.2890625 C2.01570014 37.32492651 2.30222252 30.59355872 2.25 23.5 C2.25773438 22.44941406 2.26546875 21.39882812 2.2734375 20.31640625 C2.25619942 13.34360455 1.48464655 6.81111198 0 0 Z " fill="#C6685E" transform="translate(406,192)"/>
<path d="M0 0 C2.25 0.9375 2.25 0.9375 4.25 3.9375 C6.69891434 13.51196511 5.3618334 22.05353879 1.25 30.9375 C0.59 31.9275 -0.07 32.9175 -0.75 33.9375 C0.37148438 33.61652344 1.49296875 33.29554688 2.6484375 32.96484375 C16.89310707 29.43028728 31.7452784 31.23709792 44.3046875 38.76953125 C58.07255834 48.22794658 65.96643595 61.65173023 69.25 77.9375 C69.68449781 81.84495364 69.77390878 85.6954658 69.75 89.625 C69.74468262 91.23217896 69.74468262 91.23217896 69.73925781 92.87182617 C69.50331495 104.56382072 67.21749673 115.66280955 64.25 126.9375 C63.78400391 128.72220703 63.78400391 128.72220703 63.30859375 130.54296875 C56.82767549 152.07821732 43.0717834 172.50627394 24.25 184.9375 C25.16819519 184.94114563 26.08639038 184.94479126 27.03240967 184.94854736 C35.68447347 184.98640993 44.33615965 185.0432428 52.987957 185.12140274 C57.43599679 185.16091651 61.88383746 185.1930857 66.33203125 185.20849609 C70.62462525 185.22363722 74.91667197 185.25803683 79.20902252 185.30580902 C80.84682713 185.32064922 82.48470986 185.32854253 84.12258148 185.32938385 C86.41662479 185.33174746 88.70914813 185.35877478 91.00292969 185.39160156 C92.96150909 185.40492523 92.96150909 185.40492523 94.95965576 185.41851807 C98.78265495 186.02151501 99.98337495 186.85264105 102.25 189.9375 C103.1743027 194.86711438 101.93499934 197.95417574 99.9375 202.5 C92.8185766 218.76026822 92.41421444 235.93669138 97.25 252.9375 C98.47693129 255.87337131 99.8249437 258.7089869 101.23046875 261.5625 C102.71469307 265.0200034 102.86712682 267.23473907 102.25 270.9375 C100.7030279 273.25795815 99.71104026 273.79260163 97.0625 274.625 C96.464375 274.728125 95.86625 274.83125 95.25 274.9375 C95.99894531 275.49179687 96.74789063 276.04609375 97.51953125 276.6171875 C104.6127524 282.64490333 108.44308973 290.76263135 109.25 299.9375 C109.31960938 300.68773437 109.38921875 301.43796875 109.4609375 302.2109375 C109.90949108 312.04461211 106.20623975 321.21644847 100.25 328.9375 C91.0532978 337.99564548 80.91061331 341.1014912 68.3346405 341.05775452 C67.43607041 341.05860894 66.53750032 341.05946337 65.61170083 341.06034368 C62.60073275 341.06199081 59.58982037 341.05648963 56.57885742 341.05102539 C54.42051189 341.05074333 52.26216627 341.05090163 50.1038208 341.0514679 C44.24272517 341.05175512 38.38164995 341.04587039 32.52055907 341.03889394 C26.39597537 341.03264804 20.27139121 341.03205562 14.14680481 341.03086853 C2.54823751 341.02775887 -9.05032037 341.01955038 -20.64888352 341.00951904 C-33.85310008 340.99834659 -47.05731709 340.99284459 -60.26153719 340.98782361 C-87.42436335 340.97736748 -114.58718115 340.95977508 -141.75 340.9375 C-140.77628495 335.78381298 -139.19257848 330.88429016 -137.56640625 325.90820312 C-132.47060444 310.00266789 -133.46150806 292.65504596 -138.75 276.9375 C-139.01554687 276.13054687 -139.28109375 275.32359375 -139.5546875 274.4921875 C-141.78096501 269.08551355 -145.93454971 265.89709584 -150.28515625 262.140625 C-158.24073212 255.02977747 -163.32504301 245.4722662 -164.19921875 234.7421875 C-164.80692202 220.72565315 -161.17875025 209.55742688 -151.75 198.9375 C-143.19627293 190.65009776 -132.65853864 185.91043313 -120.76635742 185.73217773 C-119.58551071 185.71223251 -118.404664 185.69228729 -117.18803406 185.67173767 C-115.29091423 185.64666893 -115.29091423 185.64666893 -113.35546875 185.62109375 C-112.05297684 185.60031265 -110.75048492 185.57953156 -109.40852356 185.55812073 C-105.95790737 185.50311816 -102.50723365 185.45361341 -99.05651855 185.40527344 C-95.53046594 185.35489836 -92.00449613 185.29929613 -88.47851562 185.24414062 C-81.56908229 185.13682622 -74.65957405 185.03532275 -67.75 184.9375 C-68.42546875 184.40205566 -69.1009375 183.86661133 -69.796875 183.31494141 C-70.68890625 182.60515137 -71.5809375 181.89536133 -72.5 181.1640625 C-73.82257813 180.113396 -73.82257813 180.113396 -75.171875 179.04150391 C-97.56672981 160.76509683 -108.16881748 132.96502326 -111.75 104.9375 C-111.95273616 100.6723613 -111.97775743 96.41107164 -111.99023438 92.14135742 C-111.9999257 90.14034071 -112.03113037 88.13946615 -112.0625 86.13867188 C-112.09293098 78.52712373 -111.54563644 72.04163432 -108.75 64.9375 C-108.39679688 64.009375 -108.04359375 63.08125 -107.6796875 62.125 C-101.15618475 48.59477208 -89.7114471 38.42886049 -75.7421875 33.18359375 C-62.05514202 29.34585355 -45.13307648 31.17038555 -32.59765625 37.5390625 C-30.24821676 38.92961434 -27.97962473 40.36364725 -25.75 41.9375 C-25.8325 40.885625 -25.915 39.83375 -26 38.75 C-25.95845422 27.01331722 -20.26628355 15.41500736 -12.25 7.0625 C-4.5409263 -0.10320287 -4.5409263 -0.10320287 0 0 Z " fill="#E4E5E6" transform="translate(339.75,125.0625)"/>
<path d="M0 0 C0.85602572 -0.00085442 1.71205144 -0.00170885 2.59401733 -0.00258917 C5.47300301 -0.00424113 8.3519309 0.0012728 11.23091125 0.00672913 C13.29044086 0.00701108 15.34997057 0.00685309 17.40950012 0.00628662 C23.01039228 0.00599899 28.61126314 0.01189027 34.21215034 0.01886058 C40.06181211 0.02509973 45.91147433 0.02569836 51.76113892 0.02688599 C62.8426999 0.02999764 73.92425105 0.03820881 85.0058077 0.04823548 C97.6199044 0.05940175 110.23400156 0.06490836 122.84810197 0.06993091 C148.80033618 0.08039154 174.75256164 0.09798779 200.70478821 0.12025452 C200.22607787 3.02583337 199.74395243 5.92328993 199.16963196 8.81166077 C196.14193328 25.29579803 196.37342574 43.12616712 201.70478821 59.12025452 C174.85351424 59.16697943 148.00224637 59.2022458 121.15093994 59.22387886 C108.68336121 59.23419053 96.21580775 59.24824883 83.74824524 59.27113342 C72.88126928 59.29107058 62.01431162 59.30397175 51.14731789 59.30843151 C45.39358378 59.31103832 39.63990202 59.31716331 33.88618469 59.33171463 C28.46901981 59.34530362 23.05192877 59.34947446 17.63474846 59.34646988 C15.64820899 59.34701945 13.66166701 59.35098901 11.67514229 59.35866547 C8.958453 59.36864727 6.24204084 59.36621157 3.52534485 59.36076355 C2.74322128 59.36658923 1.96109772 59.37241492 1.15527344 59.37841713 C-9.56475516 59.32049488 -17.43619793 55.87129029 -25.10771179 48.37025452 C-30.856452 39.82926906 -32.51912473 31.93246478 -30.92802429 21.77650452 C-28.9859983 14.22122531 -23.48780063 7.87186722 -17.03349304 3.63587952 C-11.21923342 0.66963986 -6.40660096 -0.02319716 0 0 Z " fill="#C5645B" transform="translate(222.2952117919922,325.87974548339844)"/>
</svg>
