<?xml version="1.0" encoding="UTF-8"?>
<svg version="1.1" xmlns="http://www.w3.org/2000/svg" width="1666" height="1666">
<path d="M0 0 C4.97644815 0.0042113 9.95288212 -0.00325462 14.92932669 -0.00915251 C23.63205901 -0.01787601 32.3347678 -0.0192404 41.0375034 -0.01564924 C53.9796041 -0.01032292 66.92168217 -0.0164569 79.86378041 -0.02473217 C103.65663613 -0.03952812 127.449483 -0.04182485 151.24234232 -0.03941179 C154.60804489 -0.0390733 157.97374746 -0.03875121 161.33945004 -0.03844611 C162.00806902 -0.03838506 162.676688 -0.03832402 163.36556816 -0.03826112 C178.21594327 -0.03698653 193.06631695 -0.03959555 207.91669164 -0.04297217 C211.3126758 -0.04374293 214.70865996 -0.04448767 218.10464413 -0.04523719 C219.46771268 -0.04553888 220.83078124 -0.04584076 222.1938498 -0.04614283 C222.86952506 -0.04629251 223.54520032 -0.04644219 224.24135058 -0.0465964 C225.60812338 -0.04689994 226.97489617 -0.04720462 228.34166896 -0.04751045 C267.09900199 -0.05617776 305.85633376 -0.06083157 344.61366764 -0.05656282 C345.33060479 -0.05648476 346.04754194 -0.0564067 346.78620445 -0.05632628 C354.77986236 -0.05545357 362.77352026 -0.0545243 370.76717816 -0.05357565 C371.84963337 -0.05344738 371.84963337 -0.05344738 372.95395636 -0.05331653 C378.94825761 -0.05260595 378.94825761 -0.05260595 381.70896106 -0.0522743 C427.85146238 -0.04674044 473.99394368 -0.05427759 520.13644139 -0.07304517 C531.76211019 -0.07776788 543.387779 -0.08244861 555.01344792 -0.08688203 C555.72941087 -0.08715535 556.44537382 -0.08742868 557.18303261 -0.08771028 C579.27150868 -0.09608973 601.35998309 -0.10076201 623.44846074 -0.1015896 C624.14257678 -0.10161596 624.83669282 -0.10164233 625.55184269 -0.1016695 C640.79387318 -0.10221044 656.03590354 -0.10183747 671.27793399 -0.10062978 C676.73259647 -0.10020421 682.18725896 -0.09983907 687.64192145 -0.09950034 C688.99874982 -0.09941504 690.3555782 -0.0993261 691.71240658 -0.09923352 C712.60623387 -0.09783338 733.50004822 -0.10419973 754.39387242 -0.11518422 C777.39891356 -0.12725769 800.40392794 -0.12877053 823.4089695 -0.11639406 C836.26672696 -0.10978548 849.12442035 -0.11135012 861.98217263 -0.12498257 C870.59154681 -0.13327007 879.20087335 -0.13047411 887.81024372 -0.1190073 C892.70172839 -0.1127932 897.59308869 -0.11103884 902.48456583 -0.12287064 C959.01386621 -0.25006977 1014.48371641 7.48222125 1066.34933201 31.26313647 C1067.31580662 31.70528491 1068.28228123 32.14743334 1069.27804295 32.60298022 C1096.25872689 45.04393289 1120.85466928 60.10265233 1144.34933201 78.26313647 C1145.27230076 78.97083178 1146.19526951 79.67852709 1147.14620701 80.40766772 C1152.87701335 84.88828223 1158.22054455 89.7289784 1163.54464451 94.67719897 C1165.77783395 96.73621208 1168.03645623 98.73325251 1170.34933201 100.70063647 C1178.63395826 107.89563546 1186.28377237 115.8784702 1193.34933201 124.26313647 C1194.15628514 125.19255053 1194.96323826 126.12196459 1195.79464451 127.07954272 C1249.64319905 189.35231758 1283.85038488 272.21329092 1283.60380761 355.01805743 C1283.60620493 356.72381703 1283.60947487 358.42957559 1283.61352421 360.13533207 C1283.62206527 364.78306523 1283.61835098 369.43071663 1283.61246848 374.07845086 C1283.60827069 379.15007783 1283.61571561 384.22169062 1283.62162099 389.29331406 C1283.63035875 398.16924145 1283.63170375 407.04514576 1283.62811772 415.92107638 C1283.62279904 429.1205653 1283.62891776 442.32003198 1283.63720065 455.51951848 C1283.65200863 479.78362784 1283.654292 504.04772815 1283.65188027 528.31184028 C1283.65154179 531.74593641 1283.6512197 535.18003254 1283.65091459 538.61412867 C1283.65082302 539.63739272 1283.65082302 539.63739272 1283.65072961 540.68132877 C1283.64945578 555.82321518 1283.65206262 570.96510018 1283.65544065 586.10698617 C1283.65621141 589.56815583 1283.65695615 593.02932548 1283.65770567 596.49049514 C1283.65800736 597.87969507 1283.65830924 599.26889501 1283.65861131 600.65809495 C1283.65876099 601.34671642 1283.65891067 602.0353379 1283.65906489 602.74482669 C1283.65936842 604.13776804 1283.6596731 605.53070939 1283.65997893 606.92365073 C1283.66864818 646.43140761 1283.67329867 685.93916324 1283.6690313 725.44692095 C1283.66895324 726.17798015 1283.66887519 726.90903935 1283.66879476 727.66225185 C1283.66792203 735.81363995 1283.66699276 743.96502803 1283.66604413 752.11641612 C1283.66595862 752.85231285 1283.66587311 753.58820958 1283.66578501 754.34640622 C1283.66507438 760.45967934 1283.66507438 760.45967934 1283.66474278 763.2744338 C1283.65920874 810.33024606 1283.66674578 857.3860387 1283.68551365 904.44184741 C1283.69023624 916.29716607 1283.69491691 928.15248475 1283.69935051 940.00780352 C1283.69962384 940.73787764 1283.69989716 941.46795177 1283.70017876 942.22014935 C1283.70855633 964.73875851 1283.71323031 987.25736603 1283.71405808 1009.77597674 C1283.71408445 1010.48346221 1283.71411081 1011.19094768 1283.71413798 1011.9198721 C1283.71467888 1027.45443517 1283.71430603 1042.98899811 1283.71309826 1058.52356114 C1283.71267268 1064.0827462 1283.71230754 1069.64193127 1283.71196882 1075.20111634 C1283.71188352 1076.58398455 1283.71179458 1077.96685275 1283.711702 1079.34972095 C1283.71025624 1101.33849976 1283.71735995 1123.32726517 1283.72870596 1145.31604076 C1283.74038303 1168.09396055 1283.74088935 1190.87186202 1283.72886254 1213.64978292 C1283.7222465 1226.76608757 1283.72383599 1239.88232942 1283.73745105 1252.99862901 C1283.74572376 1261.77537976 1283.74296151 1270.55208369 1283.73147579 1279.32883067 C1283.72524722 1284.31926392 1283.72354578 1289.30957507 1283.73533912 1294.30000105 C1283.8724124 1356.62797379 1271.59574982 1415.80170063 1242.34933201 1471.26313647 C1241.95697361 1472.01594897 1241.56461522 1472.76876147 1241.16036717 1473.54438647 C1231.78511986 1491.44489741 1220.82927117 1508.3640359 1208.34933201 1524.26313647 C1207.72155857 1525.07137866 1207.09378514 1525.87962084 1206.44698826 1526.71235522 C1198.54471456 1536.74775803 1190.33286091 1546.54199391 1181.16573826 1555.44673022 C1179.22041316 1557.31991661 1179.22041316 1557.31991661 1177.28683201 1559.88813647 C1175.04357919 1562.63793025 1172.55139825 1564.77215194 1169.85323826 1567.06782397 C1167.96061856 1568.72718789 1166.13070213 1570.40663766 1164.31417576 1572.14594897 C1155.49271443 1580.57603652 1146.19443454 1588.06215986 1136.34933201 1595.26313647 C1135.64904881 1595.77763354 1134.94876561 1596.29213061 1134.2272617 1596.8222185 C1091.51150204 1628.05130405 1043.12592205 1649.10922971 991.41183201 1660.07563647 C990.13002049 1660.35359057 988.84820897 1660.63154467 987.52755467 1660.91792163 C961.33175153 1666.36764772 935.05653265 1666.70676073 908.43362189 1666.64853913 C903.36025829 1666.64083055 898.28692099 1666.65074717 893.21356127 1666.65826913 C884.34853762 1666.66903735 875.48356891 1666.668817 866.61854283 1666.66112765 C853.43542079 1666.64972424 840.25234462 1666.6556103 827.06922283 1666.66475257 C804.87940918 1666.67959759 782.68961218 1666.68020543 760.49979702 1666.67202243 C738.52638124 1666.66392328 716.55297564 1666.66076312 694.57955853 1666.66458377 C693.19631315 1666.66481621 691.81306777 1666.66504767 690.42982238 1666.66527818 C684.87035096 1666.66620967 679.31087954 1666.66716568 673.75140812 1666.66815747 C658.21302524 1666.67090771 642.67464233 1666.67262008 627.13625924 1666.67351588 C626.42883688 1666.67355682 625.72141452 1666.67359775 624.99255512 1666.67363993 C602.47049041 1666.67486671 579.9484288 1666.67149253 557.42636506 1666.66496714 C556.33156758 1666.66465102 556.33156758 1666.66465102 555.21465298 1666.66432852 C543.36408124 1666.66089417 531.51350957 1666.65723555 519.66293791 1666.65355799 C472.66736212 1666.63898957 425.67181198 1666.63966725 378.67623631 1666.65424975 C366.83027604 1666.65791368 354.98431576 1666.66154698 343.13835541 1666.66496714 C342.40883909 1666.66517849 341.67932277 1666.66538983 340.92769989 1666.66560758 C318.4270034 1666.67208134 295.92630904 1666.67481798 273.42561165 1666.67351588 C272.71873026 1666.67347513 272.01184887 1666.67343437 271.28354683 1666.67339239 C255.76268856 1666.67245473 240.24183053 1666.67055338 224.72097249 1666.66778437 C219.16695551 1666.66679706 213.61293851 1666.6658578 208.05892152 1666.66493224 C206.67737862 1666.66470007 205.29583572 1666.66446388 203.91429283 1666.66422365 C181.95087592 1666.66041495 159.98747019 1666.66467556 138.02405475 1666.67277408 C115.27838447 1666.68106933 92.53273441 1666.67795758 69.78706679 1666.66218019 C56.69071379 1666.65339468 43.59442198 1666.65276248 30.49807062 1666.66411872 C21.73493521 1666.67087695 12.97184854 1666.6666034 4.20872031 1666.65360441 C-0.77377534 1666.64651255 -5.75615002 1666.64393409 -10.73864159 1666.65482236 C-65.89780482 1666.76628818 -118.16531395 1657.19354215 -168.65066799 1634.26313647 C-169.58411037 1633.84161303 -170.51755275 1633.42008959 -171.47928127 1632.98579272 C-185.4503998 1626.63078419 -198.70435926 1619.50607276 -211.65066799 1611.26313647 C-212.33064846 1610.83146167 -213.01062893 1610.39978686 -213.71121486 1609.955031 C-231.22521778 1598.75289277 -247.64860341 1585.95886933 -262.87723049 1571.81782397 C-265.12143834 1569.75062406 -267.39252658 1567.74278567 -269.71316799 1565.76313647 C-277.63751989 1558.87885575 -284.85566655 1551.25073 -291.65066799 1543.26313647 C-292.50918361 1542.29376147 -293.36769924 1541.32438647 -294.25223049 1540.32563647 C-339.33853927 1489.17762254 -368.30165411 1424.2128621 -378.90066799 1357.07563647 C-379.05173 1356.12906176 -379.20279201 1355.18248706 -379.35843166 1354.20722827 C-379.8482653 1350.89774308 -380.25434998 1347.58526052 -380.65066799 1344.26313647 C-380.77566721 1343.23034904 -380.77566721 1343.23034904 -380.90319167 1342.17669722 C-383.12617465 1323.01290505 -382.93872464 1303.83662311 -382.91380446 1284.57752927 C-382.90959323 1279.59594811 -382.91705903 1274.61438111 -382.92295697 1269.63280352 C-382.93168054 1260.92105883 -382.93304483 1252.20933764 -382.92945369 1243.49758967 C-382.92412742 1230.54208773 -382.93026132 1217.58660839 -382.93853663 1204.6311089 C-382.95333264 1180.81362876 -382.9556293 1156.99615748 -382.95321625 1133.17867376 C-382.95287776 1129.80947896 -382.95255567 1126.44028416 -382.95225056 1123.07108935 C-382.95218952 1122.40177679 -382.95212848 1121.73246423 -382.95206558 1121.04286947 C-382.95079099 1106.17714288 -382.9534 1091.31141771 -382.95677663 1076.44569154 C-382.95754739 1073.04620508 -382.95829213 1069.64671862 -382.95904164 1066.24723216 C-382.95934334 1064.88275806 -382.95964522 1063.51828396 -382.95994729 1062.15380986 C-382.96017181 1061.13925194 -382.96017181 1061.13925194 -382.96040086 1060.1041979 C-382.9607044 1058.73601595 -382.96100908 1057.36783399 -382.96131491 1055.99965204 C-382.96998222 1017.20231769 -382.97463602 978.40498461 -382.97036728 939.60764941 C-382.97028922 938.88997107 -382.97021116 938.17229272 -382.97013074 937.43286655 C-382.96925803 929.43094294 -382.96832876 921.42901934 -382.96738011 913.42709573 C-382.9672946 912.70471261 -382.96720909 911.98232949 -382.96712099 911.23805597 C-382.96641041 905.23755229 -382.96641041 905.23755229 -382.96607876 902.47399674 C-382.96054489 856.28374769 -382.96808205 810.09351863 -382.98684963 763.90327319 C-382.99157234 752.26557283 -382.99625306 740.62787246 -383.00068649 728.99017199 C-383.00095981 728.27346829 -383.00123313 727.55676459 -383.00151474 726.81834259 C-383.00989418 704.7070501 -383.01456646 682.59575927 -383.01539405 660.48446521 C-383.01542042 659.78963323 -383.01544679 659.09480125 -383.01547395 658.37891376 C-383.01601489 643.12116977 -383.01564193 627.86342592 -383.01443424 612.60568197 C-383.01400866 607.14539747 -383.01364352 601.68511297 -383.0133048 596.22482846 C-383.01321949 594.86660138 -383.01313056 593.50837429 -383.01303798 592.15014721 C-383.01159315 570.56719588 -383.01868983 548.98425819 -383.03004194 527.40131013 C-383.04172727 505.03997513 -383.04221632 482.67866433 -383.03019851 460.31732919 C-383.02358989 447.44624104 -383.0251547 434.57521691 -383.03878703 421.70413393 C-383.04707443 413.08587389 -383.0442787 404.46766144 -383.03281176 395.84940521 C-383.02659755 390.95284538 -383.02484357 386.05640979 -383.0366751 381.15985748 C-383.18365554 315.78035381 -371.44285259 253.55768353 -340.65066799 195.26313647 C-340.04617824 194.1099895 -340.04617824 194.1099895 -339.42947658 192.93354663 C-329.74186144 174.55294551 -318.3547354 157.68106583 -305.65066799 141.26313647 C-304.9661758 140.37497241 -304.28168361 139.48680834 -303.57644924 138.57173022 C-301.63699714 136.10370628 -299.65545058 133.67840471 -297.65066799 131.26313647 C-297.23897365 130.76120776 -296.82727932 130.25927905 -296.40310939 129.74214038 C-289.21881839 121.02850731 -281.48735797 112.89066601 -273.52566799 104.88813647 C-272.61994045 103.97322436 -271.71421291 103.05831225 -270.78103908 102.11567553 C-264.71036745 96.0724432 -258.34064443 90.60509215 -251.65066799 85.26313647 C-250.6233048 84.39952589 -249.59991454 83.53111416 -248.58426174 82.65376147 C-200.22024422 41.17726444 -138.25740575 14.5353791 -75.58816799 4.51313647 C-74.34712307 4.31405688 -73.10607814 4.11497729 -71.8274258 3.90986499 C-47.89248344 0.30414178 -24.14595339 -0.03127644 0 0 Z " fill="#1455C6" transform="translate(382.6506679877639,-0.26313646975904703)"/>
<path d="M0 0 C2.45106559 3.18836372 4.32544731 6.37081294 6.15234375 9.9609375 C6.44827423 10.53890076 6.74420471 11.11686401 7.04910278 11.71234131 C7.68411451 12.95268031 8.31761465 14.19379416 8.94973755 15.43560791 C10.63164974 18.73790717 12.32657124 22.03348985 14.0234375 25.328125 C14.36357376 25.98857819 14.70371002 26.64903137 15.05415344 27.32949829 C17.97067444 32.97596991 20.99187775 38.56083786 24.0625 44.125 C30.39413444 55.61495026 36.39587625 67.27019175 42.41162109 78.92773438 C48.80545463 91.29478037 55.36933571 103.57026856 61.95245361 115.83731079 C69.59372997 130.07853096 77.1484371 144.3652616 84.70166016 158.65332031 C88.09146443 165.0650849 91.48571606 171.47449463 94.87966919 177.88406372 C95.99863106 179.99741452 97.11739132 182.11087192 98.23608398 184.22436523 C101.66530228 190.70286813 105.09539531 197.18090266 108.52890015 203.65713501 C110.47805929 207.33368003 112.42661502 211.01054467 114.375 214.6875 C114.94338593 215.75997986 114.94338593 215.75997986 115.52325439 216.85412598 C120.17565596 225.63474303 124.79714995 234.43021203 129.375 243.25 C133.07800899 250.38416262 136.87313762 257.45890528 140.75 264.5 C146.02655464 274.08577014 151.04693549 283.79247546 156.03991699 293.52758789 C160.25659756 301.74458175 164.53406225 309.91468962 169 318 C173.83335717 326.75050102 178.43845527 335.60602494 183 344.5 C188.0813721 354.40697996 193.25597552 364.24512722 198.6328125 373.99609375 C202.36178459 380.7769617 205.94887306 387.62451432 209.5 394.5 C213.53102409 402.3043299 217.63621546 410.05654924 221.875 417.75 C226.90274759 426.88038963 231.70649279 436.11736891 236.46972656 445.38720703 C240.50323368 453.23239872 244.60860641 461.0281802 248.875 468.75 C254.32526847 478.62021221 259.47306051 488.63545751 264.61120605 498.67016602 C269.45689599 508.12848237 274.40309764 517.51366432 279.54296875 526.81640625 C283.66512867 534.30817918 287.59233113 541.89513667 291.5 549.5 C296.37681167 558.99035271 301.36021649 568.40899784 306.51171875 577.75390625 C311.08816077 586.08694641 315.4401735 594.53086355 319.79370117 602.98193359 C323.39629503 609.95741078 327.08251594 616.87612263 330.875 623.75 C336.11359564 633.25026399 341.08898157 642.87454174 346.03945923 652.52667236 C350.72843797 661.66373732 355.52846479 670.72318212 360.4921875 679.71484375 C365.23736284 688.34824902 369.74457528 697.10160093 374.22290039 705.87548828 C374.79903076 706.99938965 375.37516113 708.12329102 375.96875 709.28125 C376.54278533 710.41802783 377.11682066 711.55480566 377.708251 712.7260313 C379.32498551 715.83409446 381.09885929 718.7926391 382.96910954 721.75450611 C391.42381989 735.48844956 393.72218406 746.1384982 393.40991211 762.09057617 C393.4114436 764.30615158 393.4182432 766.5217285 393.42982483 768.73727417 C393.44591114 774.68706692 393.38831161 780.63399439 393.31552196 786.58327651 C393.2509473 792.85785414 393.25338928 799.13244581 393.24745178 805.40730286 C393.22818384 815.94393727 393.16515187 826.47968393 393.07006836 837.01586914 C392.97293836 847.78804937 392.90904904 858.55967615 392.88549805 869.33227539 C392.88404157 869.99525158 392.8825851 870.65822776 392.88108449 871.34129413 C392.87673762 873.34374379 392.87243105 875.34619353 392.86814022 877.3486433 C392.84305179 889.00277232 392.79141805 900.65676185 392.7330277 912.31076646 C392.72095393 914.78887229 392.70972465 917.26698239 392.69936061 919.74509597 C392.41630078 987.1241036 382.82657236 1049.64568883 351 1110 C350.6076416 1110.7528125 350.2152832 1111.505625 349.81103516 1112.28125 C340.43578785 1130.18176094 329.47993916 1147.10089943 317 1163 C316.37222656 1163.80824219 315.74445313 1164.61648438 315.09765625 1165.44921875 C307.19538254 1175.48462156 298.98352889 1185.27885744 289.81640625 1194.18359375 C287.87108115 1196.05678014 287.87108115 1196.05678014 285.9375 1198.625 C283.69424718 1201.37479378 281.20206624 1203.50901547 278.50390625 1205.8046875 C276.61128655 1207.46405142 274.78137011 1209.14350119 272.96484375 1210.8828125 C264.14338242 1219.31290005 254.84510253 1226.79902339 245 1234 C244.2997168 1234.51449707 243.59943359 1235.02899414 242.87792969 1235.55908203 C200.16217003 1266.78816758 151.77659003 1287.84609324 100.0625 1298.8125 C98.78068848 1299.0904541 97.49887695 1299.3684082 96.17822266 1299.65478516 C73.38533012 1304.38892396 50.26920176 1305.4479522 27.0592041 1305.40113831 C24.36500735 1305.40676002 21.67083579 1305.41355219 18.97664785 1305.42173427 C13.17668391 1305.43700874 7.37679483 1305.44148114 1.57681274 1305.43836594 C-7.0474031 1305.43374529 -15.67153752 1305.44637518 -24.29573741 1305.46198981 C-40.59316771 1305.49082863 -56.89056946 1305.49943521 -73.18802232 1305.50116099 C-85.7636028 1305.50254397 -98.33917225 1305.50874145 -110.91474915 1305.51826286 C-114.54488324 1305.52095566 -118.17501735 1305.52362511 -121.80515146 1305.5262875 C-123.15902951 1305.52728221 -123.15902951 1305.52728221 -124.54025863 1305.52829702 C-149.87968989 1305.54672433 -175.21911734 1305.55860205 -200.5585556 1305.55726719 C-201.9879718 1305.55719708 -201.9879718 1305.55719708 -203.44626509 1305.55712556 C-208.27545402 1305.55687627 -213.10464294 1305.55657915 -217.93383187 1305.55627144 C-219.37232377 1305.55618169 -219.37232377 1305.55618169 -220.83987611 1305.55609012 C-222.77917971 1305.55596881 -224.71848331 1305.55584342 -226.65778691 1305.55571395 C-256.89885417 1305.55387153 -287.13982088 1305.57648631 -317.38085938 1305.61743164 C-351.39693738 1305.66346993 -385.41294932 1305.68933382 -419.42906046 1305.68654197 C-423.05165005 1305.68631809 -426.67423963 1305.68617196 -430.29682922 1305.68607903 C-431.63469394 1305.68602658 -431.63469394 1305.68602658 -432.99958622 1305.68597308 C-447.3650767 1305.68588068 -461.73047984 1305.70505187 -476.09594432 1305.73087582 C-490.50746526 1305.75624889 -504.91885786 1305.75931886 -519.33038872 1305.73954786 C-527.89703716 1305.72842984 -536.46329664 1305.73405164 -545.02990418 1305.76337488 C-550.74430781 1305.78128881 -556.4584278 1305.77758516 -562.17281807 1305.75596338 C-565.43310617 1305.74424639 -568.69248153 1305.74546383 -571.95274657 1305.76633544 C-575.45786132 1305.78730076 -578.96092394 1305.77181238 -582.46596527 1305.74666691 C-583.99762136 1305.76902372 -583.99762136 1305.76902372 -585.56022 1305.79183218 C-588.17818605 1305.75174018 -590.46821775 1305.6664037 -593 1305 C-595.55754709 1302.14718097 -595.55754709 1302.14718097 -597 1299 C-597.53238281 1297.97648437 -598.06476563 1296.95296875 -598.61328125 1295.8984375 C-599.17402344 1294.73570313 -599.73476563 1293.57296875 -600.3125 1292.375 C-603.01849935 1286.83103452 -605.85398986 1281.36563857 -608.78515625 1275.9375 C-609.11963272 1275.31759186 -609.45410919 1274.69768372 -609.79872131 1274.05899048 C-611.49082528 1270.926632 -613.18982734 1267.79819068 -614.89575195 1264.67333984 C-615.53219685 1263.49844446 -616.16851403 1262.32347988 -616.8046875 1261.1484375 C-617.37171387 1260.10864746 -617.93874023 1259.06885742 -618.52294922 1257.99755859 C-619.97654896 1255.04759204 -621.03893827 1252.14118833 -622 1249 C-622.66 1249 -623.32 1249 -624 1249 C-625.00460531 1246.87717331 -626.00355602 1244.75166979 -627 1242.625 C-627.8353125 1240.84996094 -627.8353125 1240.84996094 -628.6875 1239.0390625 C-630 1236 -630 1236 -630 1234 C-630.66 1234 -631.32 1234 -632 1234 C-633.00460531 1231.87717331 -634.00355602 1229.75166979 -635 1227.625 C-635.8353125 1225.84996094 -635.8353125 1225.84996094 -636.6875 1224.0390625 C-638 1221 -638 1221 -638 1219 C-638.66 1219 -639.32 1219 -640 1219 C-641.17133058 1216.54379149 -642.33721722 1214.08525083 -643.5 1211.625 C-643.83386719 1210.92632813 -644.16773438 1210.22765625 -644.51171875 1209.5078125 C-647 1204.2265625 -647 1204.2265625 -647 1202 C-647.66 1202 -648.32 1202 -649 1202 C-650.00460531 1199.87717331 -651.00355602 1197.75166979 -652 1195.625 C-652.8353125 1193.84996094 -652.8353125 1193.84996094 -653.6875 1192.0390625 C-655 1189 -655 1189 -655 1187 C-655.66 1187 -656.32 1187 -657 1187 C-657.50789063 1185.98421875 -658.01578125 1184.9684375 -658.5390625 1183.921875 C-658.86970703 1183.26074707 -659.20035156 1182.59961914 -659.54101562 1181.91845703 C-660.26679638 1180.46656859 -660.99205243 1179.01441774 -661.71679688 1177.56201172 C-663.42161746 1174.14709013 -665.13090178 1170.73498543 -666.8671875 1167.3359375 C-667.67542969 1165.74652344 -667.67542969 1165.74652344 -668.5 1164.125 C-668.9846875 1163.17882813 -669.469375 1162.23265625 -669.96875 1161.2578125 C-671 1159 -671 1159 -671 1157 C-671.66 1157 -672.32 1157 -673 1157 C-673.40089844 1156.18660156 -673.80179688 1155.37320312 -674.21484375 1154.53515625 C-678.631159 1145.6324255 -683.22000255 1136.83267432 -687.89892578 1128.06542969 C-688.92440348 1126.14180634 -689.94549426 1124.21593848 -690.96484375 1122.2890625 C-695.24093978 1114.21951458 -699.6163295 1106.20804676 -704.05615234 1098.22729492 C-706.773754 1093.31915675 -709.34789555 1088.36066475 -711.83666992 1083.33276367 C-713.43607673 1080.12555863 -715.11758463 1076.97039494 -716.8125 1073.8125 C-717.50654655 1072.51694644 -718.2005559 1071.22137295 -718.89453125 1069.92578125 C-719.24338379 1069.27561035 -719.59223633 1068.62543945 -719.95166016 1067.95556641 C-721.6397803 1064.80655793 -723.31957519 1061.65311954 -725 1058.5 C-725.6666244 1057.24997746 -726.33329112 1055.99997749 -727 1054.75 C-731 1047.24999999 -731 1047.24999999 -732.00024414 1045.37451172 C-732.66606321 1044.1261213 -733.331916 1042.87774886 -733.99780273 1041.62939453 C-735.67771655 1038.47991561 -737.35701956 1035.33011373 -739.03515625 1032.1796875 C-739.37095703 1031.5496582 -739.70675781 1030.91962891 -740.05273438 1030.27050781 C-740.72014996 1029.01765128 -741.38682992 1027.76440255 -742.05273438 1026.51074219 C-743.69794816 1023.41819819 -745.36048321 1020.33729679 -747.05859375 1017.2734375 C-747.38529053 1016.67998535 -747.7119873 1016.0865332 -748.04858398 1015.47509766 C-748.94448436 1013.85066038 -749.84702596 1012.22989091 -750.75 1010.609375 C-752 1008 -752 1008 -752 1005 C-752.66 1005 -753.32 1005 -754 1005 C-754.4125 1004.16339844 -754.825 1003.32679688 -755.25 1002.46484375 C-759.15053358 994.60013339 -759.15053358 994.60013339 -763.24609375 986.8359375 C-763.79426758 985.82672241 -763.79426758 985.82672241 -764.35351562 984.79711914 C-765.06679011 983.49121638 -765.78540743 982.1882153 -766.50976562 980.88842773 C-768.06554799 978.03911245 -769 976.30116442 -769 973 C-769.66 973 -770.32 973 -771 973 C-771.43828125 972.11183594 -771.8765625 971.22367188 -772.328125 970.30859375 C-780.66610048 953.48423222 -789.38526792 936.86689707 -798.42871094 920.41162109 C-802.79193743 912.44540582 -806.97354346 904.3906429 -811.14208984 896.32128906 C-815.16873719 888.54693799 -819.32486458 880.8522729 -823.54418945 873.18115234 C-827.71376943 865.57970319 -831.7169469 857.89768655 -835.70239258 850.19848633 C-838.95429598 843.93963088 -842.33667552 837.77610409 -845.84179688 831.65625 C-848.83279419 826.39603169 -851.52603209 821.01225854 -854.19018555 815.58081055 C-856.41607578 811.07490339 -858.87492117 806.79486605 -861.51953125 802.51953125 C-863.57075579 799.02866098 -865.33858171 795.41325526 -867.12670898 791.78222656 C-875.76436795 774.28039255 -885.2229378 757.16826487 -894.61254883 740.06225586 C-897.23940445 735.27282419 -899.80296764 730.47860024 -902.1875 725.5625 C-905.59814795 718.67299113 -909.29537248 711.96135727 -913.02441406 705.23999023 C-915.42089 700.90862763 -917.7643514 696.57416815 -919.9375 692.125 C-922.66574545 686.55124926 -925.63870983 681.12563184 -928.625 675.6875 C-933.07121345 667.56826638 -937.48229301 659.43178503 -941.8125 651.25 C-942.34633301 650.25572998 -942.88016602 649.26145996 -943.43017578 648.23706055 C-943.91341309 647.31836182 -944.39665039 646.39966309 -944.89453125 645.453125 C-945.32612549 644.64004883 -945.75771973 643.82697266 -946.20239258 642.98925781 C-946.46560303 642.33280273 -946.72881348 641.67634766 -947 641 C-946.67 640.34 -946.34 639.68 -946 639 C-945.63648438 639.45890625 -945.27296875 639.9178125 -944.8984375 640.390625 C-939.835959 646.56944491 -935.36703985 649.94287555 -927.47265625 651.4453125 C-924.78864985 652.04741188 -922.32456037 652.90813453 -919.75 653.875 C-911.95488051 656.7995138 -903.98672817 659.11506461 -896.0078125 661.48046875 C-895.12988037 661.74166504 -894.25194824 662.00286133 -893.34741211 662.27197266 C-891.6172852 662.78616733 -889.88636574 663.2977053 -888.15454102 663.80615234 C-883.65070438 665.14337579 -879.25804368 666.62396294 -874.8737793 668.31030273 C-871.98228611 669.37459827 -869.03206052 670.18362598 -866.0625 671 C-862.32668554 672.0293863 -858.62748822 673.10680739 -854.95703125 674.34692383 C-849.66350761 676.12055846 -844.34698518 677.81831761 -839.02734375 679.51171875 C-836.8873519 680.19460538 -834.74737857 680.87755008 -832.60742188 681.56054688 C-829.29798101 682.6161423 -825.98839993 683.67129088 -822.6784668 684.7253418 C-809.73623232 688.84798701 -796.81474743 693.02049629 -783.94468689 697.36405945 C-778.55468923 699.177205 -773.15600123 700.87645303 -767.6875 702.4375 C-760.21654613 704.57421543 -752.8633327 707.01880021 -745.5 709.5 C-736.02740641 712.69036326 -726.53633415 715.68489424 -716.9296875 718.43945312 C-708.49023488 720.89099452 -700.13212317 723.55237817 -691.875 726.5625 C-686.186651 728.62806564 -680.46088089 730.3494023 -674.6328125 731.97265625 C-665.67317207 734.50640403 -656.80846005 737.30416809 -648.0625 740.5 C-643.25218005 742.24676423 -638.42091649 743.78953291 -633.5 745.1875 C-623.88069448 747.92719738 -614.42070413 751.14652604 -604.94726562 754.34643555 C-597.00029374 757.02451491 -589.02278073 759.55947572 -581 762 C-578.0180314 762.92869748 -575.03997226 763.86949912 -572.0625 764.8125 C-571.26875977 765.06330322 -570.47501953 765.31410645 -569.65722656 765.57250977 C-565.33548869 766.93932445 -561.01616769 768.31344664 -556.69921875 769.6953125 C-554.88286865 770.27621726 -553.06646179 770.85694457 -551.25 771.4375 C-550.34217773 771.7277002 -549.43435547 772.01790039 -548.49902344 772.31689453 C-540.6997845 774.79946533 -532.87212467 777.18406614 -525.02636719 779.51538086 C-519.41756896 781.19913843 -513.91975182 783.08392597 -508.42700195 785.11401367 C-505.70496256 786.10770455 -502.96498897 786.98697985 -500.1875 787.8125 C-494.29587804 789.59530759 -488.42688035 791.44202227 -482.5625 793.3125 C-481.62108154 793.61260986 -480.67966309 793.91271973 -479.7097168 794.22192383 C-477.7714295 794.83999721 -475.8331976 795.45824432 -473.89501953 796.07666016 C-469.26415009 797.55363336 -464.63203265 799.02667977 -460 800.5 C-458.16666025 801.08331316 -456.33332693 801.66664653 -454.5 802.25 C-453.5925 802.53875 -452.685 802.8275 -451.75 803.125 C-399.50000002 819.74999999 -399.50000002 819.74999999 -396.74926758 820.62524414 C-394.9183842 821.20779055 -393.08749229 821.79031014 -391.2565918 822.37280273 C-386.63570327 823.84295467 -382.01497018 825.31359186 -377.39453125 826.78515625 C-368.76595915 829.53280211 -360.13611622 832.27614826 -351.5 835 C-341.92734166 838.01923937 -332.36248408 841.06280077 -322.79833984 844.10888672 C-319.11299677 845.28246046 -315.4273727 846.45514996 -311.74169922 847.62768555 C-309.91645261 848.20841628 -308.09125714 848.78930776 -306.26611328 849.37036133 C-301.596382 850.85686609 -296.92585659 852.34079563 -292.25390625 853.8203125 C-283.07056663 856.73099475 -273.89856556 859.66117982 -264.77734375 862.76171875 C-261.60203091 863.80264343 -258.41999394 864.79564504 -255.22436523 865.77148438 C-247.67592532 868.09009554 -240.15335676 870.48745023 -232.6328125 872.89453125 C-231.1642608 873.36398555 -229.69568828 873.83337474 -228.22709656 874.30270386 C-225.12674526 875.29364177 -222.02652846 876.28499887 -218.92642212 877.27670288 C-214.08230138 878.82628226 -209.23783606 880.37478233 -204.39331055 881.9230957 C-197.93739635 883.98649229 -191.48158171 886.05019993 -185.02587891 888.11425781 C-173.93357398 891.66072997 -162.84118756 895.20694531 -151.7477417 898.74984741 C-148.89887098 899.65990909 -146.05025984 900.57077984 -143.20166016 901.48168945 C-135.06421218 904.08174189 -126.921644 906.6587582 -118.75219727 909.15698242 C-114.8483855 910.3527477 -110.95470139 911.57955843 -107.0625 912.8125 C-105.88059082 913.18652954 -105.88059082 913.18652954 -104.67480469 913.56811523 C-102.99355613 914.10044491 -101.31240546 914.63308385 -99.63134766 915.16601562 C-97.83431922 915.73556927 -96.03711054 916.30455446 -94.23974609 916.87304688 C-75.8114613 922.70223957 -75.8114613 922.70223957 -66.9375 925.6875 C-61.50928749 927.51071642 -56.05961568 929.23407821 -50.58203125 930.90234375 C-46.19375218 932.24706176 -41.81497801 933.62059489 -37.4375 935 C-36.62079834 935.25595947 -35.80409668 935.51191895 -34.96264648 935.77563477 C-30.37701785 937.22010548 -25.84102118 938.75848991 -21.3125 940.375 C-15.86096204 942.20488687 -11.24783071 943.02563075 -5.625 941.25 C-3.56665382 939.66665678 -2.9712169 938.41056113 -2 936 C-1.69675171 933.35022435 -1.69675171 933.35022435 -1.73714447 930.41883087 C-1.72946218 929.27571332 -1.72177989 928.13259576 -1.7138648 926.95483828 C-1.71646425 925.07024692 -1.71646425 925.07024692 -1.71911621 923.14758301 C-1.71394828 921.79974512 -1.70792179 920.4519103 -1.70110941 919.10407972 C-1.68496927 915.39655281 -1.68139026 911.68910333 -1.67991447 907.98154545 C-1.67621323 903.98405441 -1.6611182 899.98660356 -1.64764404 895.98913574 C-1.62047357 887.24504969 -1.60842663 878.50098198 -1.59962273 869.75686073 C-1.59409701 864.29525489 -1.585622 858.83365612 -1.57661438 853.37205505 C-1.55222569 838.24655858 -1.53162958 823.12106778 -1.5248642 807.99555206 C-1.52442506 807.0273348 -1.52398593 806.05911754 -1.52353349 805.06156036 C-1.52309694 804.09103533 -1.52266038 803.12051031 -1.5222106 802.12057543 C-1.52132367 800.15395132 -1.52043054 798.18732722 -1.51953125 796.22070312 C-1.51908839 795.24519121 -1.51864553 794.2696793 -1.51818925 793.26460642 C-1.51029846 777.46869145 -1.47540784 761.67296131 -1.42881221 745.87711769 C-1.38134458 729.65446773 -1.35645856 713.43191041 -1.35412836 697.20918989 C-1.3522968 688.10294503 -1.34084208 678.99694079 -1.30448914 669.89076233 C-1.27363173 662.13384389 -1.26347827 654.37724039 -1.27996534 646.62027222 C-1.28775999 642.66519999 -1.28601213 638.7107614 -1.25785065 634.75576782 C-1.23225727 631.12810183 -1.23486447 627.50154174 -1.25903207 623.87387604 C-1.26475824 621.95424243 -1.24115929 620.03458869 -1.21618795 618.11510897 C-1.32682864 608.34374786 -4.03949757 599.60479417 -11.125 592.5625 C-19.24397148 586.46098834 -30.31369405 583.73760442 -39.82421875 580.53125 C-41.00989944 580.12845825 -42.19558014 579.7256665 -43.41719055 579.31066895 C-46.5412642 578.25080547 -49.6666379 577.19489203 -52.7925415 576.14044189 C-55.92523523 575.08168082 -59.05509901 574.01459834 -62.18554688 572.94921875 C-72.62624588 569.40781884 -83.05038738 565.89544146 -93.65715027 562.88378906 C-105.34527625 559.51782955 -116.79416414 555.32989262 -128.2890625 551.36572266 C-144.06752337 545.92456088 -144.06752337 545.92456088 -160.02960205 541.0619812 C-172.33095689 537.51605895 -184.45446297 533.33900417 -196.61120605 529.32989502 C-199.44852249 528.3947838 -202.28658964 527.46196409 -205.12469769 526.52925873 C-218.40640903 522.16437678 -231.68152201 517.78060021 -244.94129944 513.34945679 C-252.36943564 510.87002177 -259.81547665 508.44768506 -267.26547241 506.03488159 C-289.76407984 498.74398908 -312.22510793 491.33898481 -334.6875 483.9375 C-341.89579951 481.56239733 -349.104115 479.18734321 -356.3125 476.8125 C-357.20113235 476.5197286 -358.08976471 476.22695721 -359.00532532 475.92531395 C-375.7283372 470.41599916 -392.45665231 464.92296507 -409.1875 459.4375 C-432.96384446 451.64171179 -456.73325785 443.82501189 -480.5 436 C-503.87216602 428.30500933 -527.24636187 420.61631801 -550.62708282 412.94735718 C-553.19006462 412.10664572 -555.75299112 411.26576581 -558.31591415 410.42487526 C-570.78929035 406.33239245 -583.26309399 402.24121995 -595.73798275 398.15334988 C-602.18178462 396.04167325 -608.62512555 393.92859362 -615.06818485 391.81465244 C-618.94358047 390.54321974 -622.81918554 389.27243475 -626.69534302 388.00332642 C-630.31202941 386.81917134 -633.92813677 385.63326414 -637.54383659 384.44610023 C-638.86344497 384.0131605 -640.18325539 383.58083595 -641.50329781 383.14922142 C-653.01173679 379.38562627 -664.4518511 375.48638291 -675.67114258 370.92486572 C-679.60175044 369.36389233 -683.59424179 367.98983463 -687.59375 366.6171875 C-688.46592163 366.31684601 -689.33809326 366.01650452 -690.23669434 365.70706177 C-692.06470606 365.07886422 -693.89320315 364.45207738 -695.72216797 363.82666016 C-698.49543023 362.87656556 -701.2652807 361.91694739 -704.03515625 360.95703125 C-705.82531933 360.34316207 -707.61567757 359.72986166 -709.40625 359.1171875 C-710.22009155 358.83382538 -711.03393311 358.55046326 -711.87243652 358.2585144 C-716.76492319 356.59897903 -721.5919087 355.4169147 -726.66809082 354.46548462 C-729.90373315 353.81960109 -733.01074972 352.88166092 -736.15625 351.890625 C-736.80507645 351.6873056 -737.45390289 351.48398621 -738.12239075 351.27450562 C-740.25013612 350.60545182 -742.37514454 349.92817124 -744.5 349.25 C-746.01585557 348.76997667 -747.53172505 348.28999729 -749.04760742 347.81005859 C-761.50324075 343.85204939 -773.91311867 339.75537169 -786.3125 335.625 C-787.19615234 335.33081177 -788.07980469 335.03662354 -788.99023438 334.73352051 C-797.08049592 332.0363896 -805.15757576 329.32603591 -813.16796875 326.3984375 C-818.02039501 324.6470116 -822.90600275 323.10923568 -827.86328125 321.6875 C-837.97616739 318.78261439 -847.93800882 315.44219786 -857.91265869 312.09790039 C-861.25303123 310.97803046 -864.59492111 309.86277794 -867.93701172 308.74804688 C-878.46563374 305.23077552 -888.9807147 301.67914842 -899.46484375 298.03125 C-900.34140121 297.72719238 -901.21795868 297.42313477 -902.12107849 297.10986328 C-906.1804502 295.70129076 -910.23620994 294.28386166 -914.28588867 292.84765625 C-921.17628806 290.43166916 -927.63840081 288.33085839 -935 288 C-932.79599618 285.55212301 -930.7836609 284.26101642 -927.76953125 282.95703125 C-926.96708984 282.60576172 -926.16464844 282.25449219 -925.33789062 281.89257812 C-924.50451172 281.53615234 -923.67113281 281.17972656 -922.8125 280.8125 C-921.5450293 280.26045898 -921.5450293 280.26045898 -920.25195312 279.69726562 C-918.17062203 278.7918278 -916.08668118 277.89302209 -914 277 C-914 277.66 -914 278.32 -914 279 C-912.55753906 279.14695312 -912.55753906 279.14695312 -911.0859375 279.296875 C-906.36918693 279.97373936 -902.07864821 281.60631451 -897.625 283.25 C-891.35730752 285.50742433 -885.10044373 287.63283686 -878.6875 289.4375 C-871.8619742 291.36805073 -865.18641394 293.6341727 -858.5 296 C-851.93712616 298.3215899 -845.38953597 300.55296711 -838.6875 302.4375 C-830.19221853 304.82888829 -821.90579314 307.77691111 -813.58154297 310.70068359 C-806.8794285 313.04149204 -800.17226967 315.19599051 -793.33984375 317.1171875 C-786.292244 319.13274618 -779.41521891 321.61487035 -772.50708008 324.05883789 C-766.87655644 326.03776084 -761.24359226 327.87972592 -755.5 329.5 C-748.73633534 331.4080377 -742.12469117 333.65631083 -735.5 336 C-728.93711551 338.32156095 -722.38953765 340.55296664 -715.6875 342.4375 C-707.19221853 344.82888829 -698.90579314 347.77691111 -690.58154297 350.70068359 C-683.8794285 353.04149204 -677.17226967 355.19599051 -670.33984375 357.1171875 C-663.29001343 359.13338411 -656.41090705 361.61657154 -649.50048828 364.06103516 C-643.9338176 366.01734071 -638.36717128 367.84044392 -632.6875 369.4375 C-624.29092572 371.8011026 -616.08792341 374.68535367 -607.8737793 377.61499023 C-601.91807275 379.71938643 -595.94348005 381.63088731 -589.875 383.375 C-579.64772832 386.32201735 -569.63010329 389.83686573 -559.58398438 393.34326172 C-551.12205128 396.29123477 -542.65825245 399.18211435 -534.0625 401.71875 C-533.10706299 402.00123596 -533.10706299 402.00123596 -532.13232422 402.28942871 C-528.29449819 403.39951326 -524.4412126 404.37325138 -520.55493164 405.29956055 C-512.58831783 407.27682701 -504.84123881 409.89916383 -497.05859375 412.48828125 C-495.41981998 413.0298442 -493.78091089 413.57099782 -492.14187622 414.11177063 C-488.68615053 415.25276557 -485.23128798 416.39632077 -481.77713013 417.54205322 C-476.4171926 419.31988055 -471.05537938 421.09199728 -465.69311523 422.86279297 C-463.90821729 423.45226719 -462.12332043 424.04174471 -460.33842468 424.63122559 C-459.45992041 424.92135025 -458.58141613 425.21147491 -457.67629051 425.51039124 C-455.03171802 426.38398341 -452.38733236 427.25813899 -449.74299622 428.13244629 C-436.02794975 432.66635211 -422.30127331 437.16344358 -408.5625 441.625 C-407.67295624 441.91404205 -406.78341248 442.20308411 -405.86691284 442.50088501 C-401.24522741 444.00250325 -396.62300119 445.50243757 -392 447 C-392 447.66 -392 448.32 -392 449 C-390.824375 449.226875 -389.64875 449.45375 -388.4375 449.6875 C-382.65324365 450.934186 -377.18192622 453.01511131 -371.6484375 455.07421875 C-364.86584544 456.79528333 -359.24338796 454.55748838 -352.9375 452.1875 C-346.41745975 449.8055878 -339.87836317 447.77235216 -333.18359375 445.92578125 C-330.290892 445.08459068 -327.504595 444.1257945 -324.6875 443.0625 C-320.11509497 441.34617201 -315.50020602 439.92092014 -310.8125 438.5625 C-298.8975032 435.1072698 -287.11224277 431.43979583 -275.43896484 427.23510742 C-269.67054404 425.18119 -263.83899834 423.43721605 -257.95336914 421.75390625 C-254.07444943 420.63650343 -250.27937233 419.42725541 -246.5 418 C-241.99149759 416.30163828 -237.43660606 414.90309783 -232.8125 413.5625 C-220.89754124 410.10710915 -209.1122561 406.43980063 -197.43896484 402.23510742 C-191.67054404 400.18119 -185.83899834 398.43721605 -179.95336914 396.75390625 C-176.07444943 395.63650343 -172.27937233 394.42725541 -168.5 393 C-163.99149759 391.30163828 -159.43660606 389.90309783 -154.8125 388.5625 C-143.62705247 385.31867064 -132.52372121 381.94277699 -121.5625 378 C-113.81767468 375.21671724 -105.9833864 372.88108414 -98.07763672 370.60449219 C-89.14437838 368.0053444 -80.31651637 365.14884023 -71.5625 362 C-63.82344478 359.21879086 -55.99501066 356.88404258 -48.09521484 354.60888672 C-28.90635046 349.59903401 -28.90635046 349.59903401 -12 340 C-11.34 340 -10.68 340 -10 340 C-9.73316406 339.46246094 -9.46632813 338.92492187 -9.19140625 338.37109375 C-8.31553107 336.62795856 -7.42540673 334.8919647 -6.52734375 333.16015625 C-6.00269531 332.13792969 -5.47804688 331.11570312 -4.9375 330.0625 C-4.14666016 328.53302734 -4.14666016 328.53302734 -3.33984375 326.97265625 C-1.29481615 322.43543759 -0.87492352 318.34717371 -0.8613348 313.40281963 C-0.85312313 311.72108199 -0.85312313 311.72108199 -0.84474558 310.00536984 C-0.84376747 308.77872154 -0.84278936 307.55207324 -0.84178162 306.28825378 C-0.83437465 304.32786579 -0.83437465 304.32786579 -0.82681805 302.327874 C-0.81325065 298.70207185 -0.80582264 295.07627905 -0.79939139 291.45045817 C-0.79138131 287.53979625 -0.77768562 283.62915378 -0.76467896 279.71850586 C-0.74292485 272.94362688 -0.72477646 266.16874593 -0.70907402 259.39385033 C-0.6863657 249.59847737 -0.65822419 239.80312596 -0.62875474 230.00777129 C-0.58109065 214.11562332 -0.53782325 198.22346653 -0.49731445 182.33129883 C-0.45795352 166.89314081 -0.41652585 151.45499062 -0.37231445 136.0168457 C-0.36822804 134.58953875 -0.36822804 134.58953875 -0.36405908 133.1333973 C-0.35037951 128.35983165 -0.33665925 123.58626611 -0.32291877 118.81270063 C-0.20897257 79.20848337 -0.1021591 39.60424931 0 0 Z " fill="#0D52A7" transform="translate(1274,361)"/>
<path d="M0 0 C10.11634106 -1.06465308 18.70537354 2.12305183 28.07421875 5.40625 C29.72685223 5.97150121 31.3800064 6.53523209 33.03364563 7.09753418 C37.37781003 8.57909243 41.71488553 10.08039536 46.05065918 11.58630371 C50.38207226 13.08718917 54.71949516 14.57046618 59.05664062 16.0546875 C64.92025844 18.062962 70.78242625 20.07534876 76.64236641 22.09432983 C99.57380693 30.0297615 99.57380693 30.0297615 122.76564026 37.1522522 C130.80476544 39.47771141 138.69891514 42.22721183 146.60644531 44.96121216 C150.21948648 46.21011883 153.83562307 47.44994973 157.45153809 48.69050598 C160.07801606 49.59179664 162.70407372 50.4943033 165.33007812 51.39697266 C189.21075316 59.62942059 189.21075316 59.62942059 213.54980469 66.34301758 C219.58400343 67.84824351 225.46141246 69.67522732 231.35546875 71.65234375 C232.89609734 72.16445152 232.89609734 72.16445152 234.46784973 72.68690491 C236.61887057 73.40323699 238.76914906 74.12180188 240.91870117 74.8425293 C244.18773315 75.9375781 247.45987016 77.02294338 250.73242188 78.10742188 C252.83613017 78.80931862 254.93965233 79.51177356 257.04296875 80.21484375 C258.00881393 80.53476791 258.97465912 80.85469208 259.96977234 81.18431091 C264.12895347 82.58493057 268.18118239 84.03215237 272.15893555 85.89013672 C279.01679738 89.02414277 286.25917469 91.19567452 293.4140625 93.54296875 C295.01995344 94.07352368 296.62571487 94.60447073 298.23135376 95.13578796 C302.35691132 96.49969551 306.48426285 97.85808249 310.61219788 99.21477509 C313.59148529 100.19450899 316.56983303 101.17707602 319.54809475 102.1599226 C328.06915517 104.97187822 336.59372394 107.77309996 345.11913681 110.57182693 C349.03966071 111.85906211 352.95987587 113.14723697 356.88012695 114.43530273 C363.38917637 116.57385129 369.89838459 118.71191578 376.40771484 120.84960938 C385.54949025 123.85184045 394.69082801 126.85540229 403.83203125 129.859375 C406.73298965 130.81266851 409.63395044 131.76595473 412.53491211 132.71923828 C413.24897248 132.95388605 413.96303286 133.18853382 414.69873142 133.43029213 C422.67145088 136.05018428 430.64431128 138.66964746 438.6171875 141.2890625 C439.33500082 141.52489422 440.05281414 141.76072594 440.79237938 142.00370407 C445.86158235 143.66914791 450.93079048 145.33457608 456 147 C467.60419618 150.81241017 479.20837318 154.62487871 490.8125 158.4375 C491.5320071 158.6738982 492.25151421 158.9102964 492.99282455 159.15385818 C513.87242217 166.01399427 534.75125757 172.87644553 555.62938786 179.74104595 C560.94534143 181.48888695 566.26135273 183.23655228 571.57739258 184.98413086 C574.60368063 185.97899709 577.62996586 186.97387187 580.65625 187.96875 C581.40503103 188.21490618 582.15381207 188.46106236 582.92528343 188.71467781 C592.29625378 191.79536186 601.66686298 194.87714095 611.03702545 197.96028137 C617.40289106 200.054867 623.76897954 202.14877434 630.13521576 204.24223328 C633.88271867 205.4745949 637.63010978 206.70729374 641.37719727 207.94091797 C654.77007024 212.34998789 668.16465008 216.74987906 681.6015625 221.0234375 C695.90827128 225.57661894 710.13967124 230.35466941 724.375 235.125 C751.48180234 244.31599569 751.48180234 244.31599569 778.85006714 252.67947388 C793.23180045 256.79505048 807.32770019 261.82498361 821.47344971 266.67687988 C840.47030626 273.254415 840.47030626 273.254415 859.68617249 279.14625549 C869.25412669 281.88768594 878.66893946 285.12327691 888.09545898 288.31079102 C891.45269686 289.44262335 894.81509578 290.55816009 898.17773438 291.67382812 C900.34669119 292.40525137 902.51532293 293.13763942 904.68359375 293.87109375 C906.16671303 294.35889565 906.16671303 294.35889565 907.67979431 294.85655212 C918.98591685 298.72839311 928.62698869 303.90527259 934.13273716 314.88666916 C936.7510118 320.98229204 936.55161957 326.95769543 936.50120544 333.50079346 C936.50510351 334.85793793 936.510748 336.2150783 936.51797634 337.57220912 C936.53267588 341.28208503 936.522583 344.9915341 936.50823963 348.70139599 C936.49710263 352.70957166 936.50908124 356.71768879 936.51808167 360.7258606 C936.53199609 368.56904641 936.524472 376.41207095 936.50940608 384.25524905 C936.4925294 393.38923328 936.49575819 402.52317753 936.49950016 411.65717253 C936.5053751 427.95181947 936.49121974 444.24638906 936.46655273 460.54101562 C936.44261725 476.35419613 936.43555507 492.16727338 936.44604492 507.98046875 C936.45745026 525.20458902 936.45939017 542.42866156 936.44494683 559.65278125 C936.44342099 561.48864158 936.44190063 563.32450191 936.44038582 565.16036224 C936.439628 566.06363196 936.43887019 566.96690168 936.43808941 567.89754321 C936.43334485 574.26576081 936.43519913 580.6339571 936.43945122 587.00217438 C936.44437404 594.75875741 936.43841024 602.51524276 936.41855692 610.27180341 C936.40867587 614.22990315 936.40358862 618.18785404 936.41144943 622.14596176 C936.41849554 625.76787216 936.41172706 629.38948193 936.3938458 633.01135263 C936.38787259 634.94482025 936.39663712 636.87831598 936.40589231 638.81177068 C936.39745237 639.95872938 936.38901243 641.10568808 936.38031673 642.28740311 C936.37877304 643.77181644 936.37877304 643.77181644 936.37719816 645.28621793 C935.84636112 649.10536709 934.37463693 651.93083794 931.3125 654.3125 C924.76843556 656.25803267 919.16804161 654.71441891 913.0625 652.3125 C911.55475221 651.75022747 910.04559414 651.19172433 908.53515625 650.63671875 C907.77605957 650.35747559 907.01696289 650.07823242 906.23486328 649.79052734 C902.86126754 648.59720169 899.44125074 647.60243369 896 646.625 C879.85421184 641.99271678 863.920309 636.65978787 848 631.3125 C839.58398199 628.48722404 831.16066732 625.80523418 822.62573242 623.3659668 C817.37369585 621.83594237 812.17122526 620.15817059 806.96484375 618.48046875 C804.72696596 617.76188289 802.48900629 617.04355197 800.25097656 616.32543945 C799.07096069 615.94666656 797.89094482 615.56789368 796.6751709 615.17764282 C790.34233337 613.14839823 784.00515485 611.13279943 777.66796875 609.1171875 C776.32932916 608.69133398 774.99069087 608.2654764 773.65205383 607.83961487 C770.90764551 606.96658309 768.16319905 606.09367136 765.41873169 605.2208252 C761.08556705 603.84266457 756.75261622 602.4638324 752.41967773 601.08496094 C739.57064676 596.99626416 726.72100456 592.90956937 713.8671875 588.8359375 C710.09880752 587.6411 706.33057985 586.44578366 702.5625 585.25 C701.67729675 584.96913544 700.79209351 584.68827087 699.88006592 584.39889526 C688.06701696 580.64777837 676.29358218 576.7977318 664.54907227 572.83691406 C658.25775636 570.7232487 651.9481288 568.76135944 645.5637207 566.95092773 C637.60421497 564.66027579 629.7834981 561.9434834 621.9362793 559.29907227 C615.11337423 557.00948436 608.28147494 554.84868888 601.359375 552.8828125 C594.11552309 550.79896469 586.99649928 548.34871765 579.85595703 545.93896484 C574.16254421 544.02674915 568.46474536 542.20323768 562.6875 540.5625 C555.21347204 538.43767694 547.8625969 535.98109983 540.5 533.5 C533.19967109 531.03992746 525.91255035 528.60072277 518.5 526.5 C511.08744937 524.39927715 503.80033193 521.96006263 496.5 519.5 C489.26194647 517.06096715 482.03863549 514.63886172 474.6875 512.5625 C465.36249021 509.92714509 456.20434959 506.77006728 447.03198242 503.65258789 C439.76693761 501.19766908 432.48050721 498.93871735 425.09643555 496.86889648 C416.31183342 494.40383309 407.63163337 491.63121826 399.0625 488.5 C394.19100523 486.73053329 389.29519234 485.16968662 384.3125 483.75 C376.6304276 481.55898322 369.06894243 479.05239064 361.5 476.5 C353.34539464 473.75167912 345.19184563 471.0989159 336.91772461 468.7355957 C332.08619013 467.34659629 327.32293683 465.80252464 322.5625 464.1875 C315.03967817 461.63781597 307.46982218 459.26356736 299.875 456.9375 C298.75520752 456.59444824 297.63541504 456.25139648 296.48168945 455.89794922 C293.32143134 454.93096466 290.16078948 453.96524604 287 453 C278.03508707 450.26179233 269.15825742 447.37593906 260.34375 444.1796875 C256.1320823 442.69379539 251.88013902 441.38500241 247.60546875 440.09375 C236.16533264 436.62328617 224.79344642 432.95022454 213.4609375 429.14453125 C209.17381443 427.72678062 204.86242183 426.4012399 200.54296875 425.0859375 C186.81769573 420.87907322 173.15508336 416.46358627 159.47680664 412.10693359 C156.73652694 411.23449288 153.99611819 410.36246162 151.25561523 409.49072266 C138.42030007 405.4078395 125.58619081 401.32119203 112.75415039 397.22802734 C110.68651772 396.56861038 108.61880768 395.90943595 106.55102539 395.25048828 C103.49607655 394.27693054 100.44137253 393.30260806 97.38671875 392.328125 C96.47411789 392.03746155 95.56151703 391.7467981 94.6212616 391.44732666 C90.46389585 390.12022548 86.31421716 388.77595282 82.17749023 387.38574219 C79.0619237 386.34237169 75.94248334 385.37082347 72.7734375 384.5 C71.443125 384.12875 71.443125 384.12875 70.0859375 383.75 C68.27138767 383.24799198 66.45627689 382.74800738 64.640625 382.25 C59.55649675 380.82703699 54.85499112 379.09343654 50 377 C47.06562618 376.07400836 44.09982122 375.2847611 41.125 374.5 C33.83285695 372.52217126 26.71193228 370.3354423 19.6015625 367.77734375 C17.75691406 367.11412109 17.75691406 367.11412109 15.875 366.4375 C14.73804688 366.02371094 13.60109375 365.60992188 12.4296875 365.18359375 C10.08815575 364.37552528 7.71567356 363.6533274 5.32421875 363.0078125 C-3.17156819 360.43212151 -7.60164951 354.35392995 -12 347 C-12.99 345.515 -12.99 345.515 -14 344 C-14.86184448 340.04688347 -15.12793665 336.26444794 -15.1398077 332.22682476 C-15.14549894 331.09180859 -15.15119018 329.95679242 -15.15705389 328.78738183 C-15.15823376 327.55033071 -15.15941364 326.31327958 -15.16062927 325.03874207 C-15.16536425 323.70354116 -15.1705157 322.36834167 -15.17604691 321.03314382 C-15.18991247 317.36996876 -15.19752498 313.7068036 -15.2040199 310.04360902 C-15.21040406 306.90027156 -15.22047208 303.75695023 -15.23058056 300.61362287 C-15.26384954 290.26233484 -15.28541161 279.911037 -15.30378041 269.5597131 C-15.308578 266.86431911 -15.31356097 264.16892553 -15.31858563 261.47353196 C-15.34955028 244.72918217 -15.37622956 227.98482887 -15.39300442 211.24045849 C-15.39695376 207.36497682 -15.40095679 203.48949521 -15.4050293 199.61401367 C-15.40603766 198.65080829 -15.40704602 197.68760291 -15.40808494 196.69520948 C-15.42509929 181.08493108 -15.46622086 165.47481099 -15.51705229 149.86460992 C-15.56882661 133.83289106 -15.59794604 117.80125368 -15.6052013 101.76945192 C-15.60986278 92.7700731 -15.62460664 83.77095393 -15.6649456 74.77165794 C-15.69924999 67.10950087 -15.71318311 59.44765033 -15.70052146 51.78542086 C-15.6946962 47.87727627 -15.69854835 43.96978 -15.7286911 40.06173325 C-15.756087 36.48057241 -15.7555316 32.90051943 -15.73318065 29.31933359 C-15.72844363 27.41744936 -15.75319075 25.51556135 -15.77914995 23.61384839 C-15.68083289 14.67006874 -13.30495281 9.30495281 -7 3 C-4.67724823 2.59952556 -2.34260643 2.2602896 0 2 C0 1.34 0 0.68 0 0 Z " fill="#D5D6D7" transform="translate(337,649)"/>
<path d="M0 0 C6.00708425 6.11951037 5.71099086 11.95104648 5.64164734 20.21318054 C5.64812948 21.56361591 5.65678604 22.91404228 5.66742164 24.26445132 C5.69019831 27.96538768 5.6818649 31.66569402 5.66828239 35.36665142 C5.65902046 39.36207659 5.67852349 43.35737736 5.69425964 47.35276794 C5.7203444 55.17719845 5.71925897 63.00139915 5.70822146 70.82585659 C5.69965954 77.18811849 5.7004966 83.55031396 5.70801735 89.91257668 C5.70959968 91.27143475 5.70959968 91.27143475 5.71121398 92.6577445 C5.71338495 94.49820101 5.71557172 96.33865749 5.71777413 98.17911396 C5.73720473 115.43831275 5.72520687 132.69738276 5.70298818 149.95657102 C5.68475115 164.75198233 5.69562159 179.54714392 5.72729492 194.3425293 C5.76409287 211.5326654 5.7810657 228.72264555 5.76788265 245.91282111 C5.76654159 247.74799555 5.76523261 249.58317001 5.76395607 251.4183445 C5.76301007 252.77265656 5.76301007 252.77265656 5.76204496 254.15432846 C5.75902246 260.50324442 5.77025748 266.85204242 5.78720665 273.20093346 C5.80757393 280.94683481 5.8065983 288.69238419 5.77857425 296.43826737 C5.7648398 300.38725956 5.76053357 304.33563821 5.78252411 308.28460693 C5.80242668 311.90664239 5.794159 315.52752853 5.76432977 319.1494858 C5.75556573 321.06596208 5.77599768 322.98250501 5.79779834 324.89887732 C5.67076315 334.7214614 2.85723127 342.48421705 -3.5625 350 C-4.366875 350.66 -5.17125 351.32 -6 352 C-6.72058594 352.639375 -7.44117188 353.27875 -8.18359375 353.9375 C-11.432048 356.31639576 -14.74058296 357.6715283 -18.5 359 C-19.21140137 359.2585376 -19.92280273 359.5170752 -20.65576172 359.78344727 C-25.81337848 361.63568433 -31.01433207 363.30744987 -36.265625 364.875 C-41.15123159 366.34681454 -46.01295754 367.88986974 -50.875 369.4375 C-51.82834229 369.74075195 -52.78168457 370.04400391 -53.76391602 370.35644531 C-59.21051209 372.09435327 -64.64270304 373.86779615 -70.0625 375.6875 C-78.46843099 378.50773092 -86.94155228 381.08318384 -95.43359375 383.62890625 C-105.01617926 386.51094024 -114.52122796 389.45017431 -123.91796875 392.89453125 C-130.04656297 395.09274692 -136.30083646 396.89530464 -142.53759766 398.7578125 C-153.18119646 401.94177915 -163.76922854 405.17829443 -174.22314453 408.94311523 C-180.42504347 411.17301987 -186.68604934 413.11562923 -193 415 C-210.02402251 420.09147298 -210.02402251 420.09147298 -226.81640625 425.88671875 C-231.31896076 427.46123168 -235.90105205 428.69548705 -240.49609375 429.96875 C-245.27435382 431.37506066 -249.92297055 433.08493961 -254.6015625 434.7890625 C-260.01025644 436.71629827 -265.50043025 438.35503941 -271 440 C-288.0180341 445.08991162 -288.0180341 445.08991162 -304.8046875 450.8828125 C-309.37683353 452.48138678 -314.02952737 453.74141405 -318.6953125 455.03515625 C-322.61396283 456.17925392 -326.40345111 457.56429293 -330.22265625 459 C-334.36359735 460.49097176 -338.57573703 461.72480426 -342.79296875 462.98046875 C-346.71202843 464.22635739 -350.48959809 465.74674386 -354.26953125 467.36328125 C-361.69390525 469.09457304 -369.05872875 465.85497723 -376 463.4375 C-376.96550781 463.10814453 -377.93101562 462.77878906 -378.92578125 462.43945312 C-381.28629806 461.63313798 -383.64416717 460.81987837 -386 460 C-386 459.34 -386 458.68 -386 458 C-387.7327417 457.66500488 -387.7327417 457.66500488 -389.50048828 457.32324219 C-396.81919444 455.69069667 -403.8854233 453.1922882 -410.9921875 450.828125 C-412.56730177 450.30773655 -414.14255103 449.78775657 -415.71792603 449.26815796 C-419.04965668 448.16844193 -422.38051554 447.06614027 -425.71069336 445.96173096 C-430.89211581 444.24355059 -436.0757086 442.53198977 -441.25976562 440.82177734 C-448.07443038 438.57323761 -454.88854912 436.32305519 -461.70214844 434.07128906 C-472.41967227 430.52985772 -483.1390245 426.99411677 -493.86773682 423.48669434 C-495.59757475 422.92041678 -497.32688129 422.35251288 -499.05560303 421.78283691 C-507.05802741 419.14579413 -515.02965124 416.63778827 -523.23193359 414.68066406 C-528.06399418 413.49246642 -532.80912449 412.03001068 -537.5625 410.5625 C-538.64877686 410.22831055 -539.73505371 409.89412109 -540.85424805 409.54980469 C-552.22574339 406.00457845 -563.48242752 402.12901605 -574.73071289 398.21313477 C-582.03645837 395.67335847 -589.34946967 393.23992215 -596.75463867 391.00097656 C-603.5167878 388.91530655 -610.21023677 386.6136766 -616.91601562 384.35449219 C-624.51066681 381.79837619 -632.12275885 379.32972408 -639.7890625 376.99609375 C-646.53065489 374.90472385 -653.20635486 372.61051557 -659.89453125 370.35546875 C-665.37999555 368.51432675 -670.87065597 366.71629024 -676.40625 365.03125 C-684.29454316 362.62715341 -692.10197483 359.98705129 -699.91601562 357.35449219 C-707.51204187 354.79791339 -715.12567053 352.32981884 -722.79345703 349.99609375 C-728.37420949 348.26246576 -733.90189634 346.37177085 -739.4375 344.5 C-749.68654657 341.04290206 -749.68654657 341.04290206 -760.0625 338 C-767.93403505 335.8541167 -775.57973169 333.04816376 -783.27368164 330.34765625 C-789.31198191 328.23999263 -795.34200816 326.2265904 -801.5 324.5 C-809.93410513 322.1338853 -818.15699926 319.2010154 -826.41918945 316.29907227 C-833.11882054 313.95910784 -839.82331469 311.8044007 -846.65356445 309.88500977 C-852.75031341 308.14212591 -858.71031668 306.05034914 -864.6875 303.9375 C-871.91320645 301.38355615 -879.10118791 299.02213041 -886.49609375 297.0078125 C-893.7420393 294.92369438 -900.86318122 292.42748938 -908 290 C-908 289.34 -908 288.68 -908 288 C-905.23010036 287.32923511 -902.45920258 286.66323683 -899.6875 286 C-898.50897461 285.71382812 -898.50897461 285.71382812 -897.30664062 285.421875 C-896.1706543 285.15117188 -896.1706543 285.15117188 -895.01171875 284.875 C-894.31522217 284.70742188 -893.61872559 284.53984375 -892.90112305 284.3671875 C-891 284 -891 284 -888 284 C-888 283.34 -888 282.68 -888 282 C-881.69649264 279.86777912 -875.39870891 277.82820255 -869 276 C-867.10275497 275.35832562 -865.20708018 274.71200032 -863.3125 274.0625 C-859.19568 272.66966826 -855.1047852 271.49620424 -850.875 270.5 C-846.1644848 269.36996767 -841.8302014 267.84446928 -837.3671875 265.9765625 C-829.63076134 262.78496755 -821.42289406 260 -813 260 C-813 259.34 -813 258.68 -813 258 C-806.05699814 255.57993505 -799.218716 253.40608033 -792 252 C-791.08347656 251.814375 -790.16695312 251.62875 -789.22265625 251.4375 C-786.81638528 250.95152101 -784.4089029 250.47272833 -782 250 C-782 249.34 -782 248.68 -782 248 C-774.80886228 245.44995116 -767.68693584 243 -760 243 C-760 242.34 -760 241.68 -760 241 C-753.52484773 238.68744562 -747.00523614 236.94373091 -740.32226562 235.35839844 C-736.87525386 234.75991286 -736.87525386 234.75991286 -734 233 C-732.33382885 232.95936168 -730.66611905 232.957279 -729 233 C-729 232.34 -729 231.68 -729 231 C-727.08487728 230.49411853 -725.16783078 229.99551609 -723.25 229.5 C-721.64898438 229.08234375 -721.64898438 229.08234375 -720.015625 228.65625 C-717 228 -717 228 -713 228 C-713 227.34 -713 226.68 -713 226 C-692.72137405 219 -692.72137405 219 -685 219 C-685 218.34 -685 217.68 -685 217 C-678.16152846 214.86439759 -671.31114404 212.76953865 -664.4375 210.75 C-663.30183594 210.41484375 -662.16617188 210.0796875 -660.99609375 209.734375 C-658 209 -658 209 -654 209 C-654 208.34 -654 207.68 -654 207 C-653.10075806 206.75092896 -653.10075806 206.75092896 -652.18334961 206.49682617 C-649.43331269 205.73205754 -646.68541997 204.95983897 -643.9375 204.1875 C-642.99455078 203.92646484 -642.05160156 203.66542969 -641.08007812 203.39648438 C-637.09151791 202.27079316 -633.28710998 201.12304714 -629.47265625 199.48828125 C-624.06331422 197.16999181 -618.40904855 195.79001036 -612.73828125 194.25 C-607.61385528 192.83024562 -602.89293459 191.10089007 -598 189 C-594.6079248 187.93072797 -591.18161646 186.99591948 -587.75 186.0625 C-581.30337732 184.30648163 -575.039607 182.32713784 -568.77685547 179.99731445 C-564.13739395 178.33104047 -559.41356588 176.95947537 -554.6875 175.5625 C-547.15188702 173.30520236 -539.72528043 170.91870346 -532.34521484 168.19384766 C-529.24719348 167.08821896 -526.14342136 166.08749766 -522.99609375 165.1328125 C-521.86333008 164.78742432 -520.73056641 164.44203613 -519.56347656 164.08618164 C-518.3875293 163.7277417 -517.21158203 163.36930176 -516 163 C-513.64928058 162.27361919 -511.29902372 161.54573984 -508.94921875 160.81640625 C-507.76473145 160.44894287 -506.58024414 160.08147949 -505.35986328 159.70288086 C-502.84378177 158.92156077 -500.32780984 158.13989724 -497.81201172 157.35766602 C-486.94106993 153.97794781 -486.94106993 153.97794781 -482.37109375 152.5859375 C-474.69894815 150.23389286 -467.13120611 147.66423364 -459.5625 145 C-450.76120812 141.90262366 -441.92424363 139.12372536 -432.95458984 136.56347656 C-423.0406042 133.70543524 -413.292451 130.4266107 -403.5625 127 C-394.76558537 123.90400373 -385.93307903 121.12656316 -376.96777344 118.56787109 C-367.55861145 115.85252236 -358.28909014 112.77829612 -349.0625 109.5 C-340.79218604 106.56371921 -332.46301225 104.00633877 -324.02929688 101.58837891 C-314.30764689 98.76966182 -304.73764402 95.5861546 -295.21484375 92.16040039 C-289.73738647 90.20999846 -284.20348096 88.60715893 -278.59765625 87.0625 C-273.82158687 85.65197788 -269.14999613 83.99323241 -264.47460938 82.28125 C-258.05566213 79.94939157 -251.53512903 77.9785039 -245 76 C-241.7170508 75.00129562 -238.43445505 74.0014547 -235.15234375 73 C-232.96029974 72.33115224 -230.76758493 71.6644991 -228.57421875 71 C-222.44082501 69.12407551 -216.39952238 67.09863586 -210.38525391 64.87060547 C-207.53497109 63.83026683 -204.65877579 62.92480102 -201.75 62.0625 C-196.97239672 60.61902981 -192.22913462 59.09413794 -187.5 57.5 C-181.94818332 55.63252603 -176.37281793 53.86670595 -170.76953125 52.16015625 C-158.38745482 48.34929957 -146.04342703 44.40783984 -133.77734375 40.23828125 C-130.59526265 39.19513781 -127.40620628 38.20192472 -124.20336914 37.2253418 C-117.44365823 35.14896214 -110.71141147 32.99187936 -103.98512268 30.81022644 C-101.90569872 30.13580038 -99.82588089 29.46260083 -97.74597168 28.78967285 C-93.33031202 27.36081783 -88.91511886 25.93052505 -84.5 24.5 C-79.37331384 22.83892286 -74.24642441 21.17847857 -69.11903381 19.51957703 C-67.09566892 18.86460275 -65.07266674 18.20851739 -63.04968262 17.55236816 C-56.0007612 15.26957901 -48.9360213 13.04804877 -41.85061646 10.88110352 C-38.29095844 9.78084073 -34.76080372 8.61287785 -31.23046875 7.421875 C-29.89669909 6.97852021 -28.56270832 6.53583013 -27.22851562 6.09375 C-25.19489426 5.41940894 -23.1627827 4.74160711 -21.1340332 4.05273438 C-5.57916498 -1.21821489 -5.57916498 -1.21821489 0 0 Z " fill="#D6D7D8" transform="translate(1268,350)"/>
</svg>
