<?xml version="1.0" encoding="UTF-8"?>
<svg version="1.1" xmlns="http://www.w3.org/2000/svg" width="625" height="625">
<path d="M0 0 C1.43291942 -0.00258688 2.86583811 -0.00560094 4.29875582 -0.0090034 C8.22315228 -0.01703912 12.1475304 -0.01886106 16.0719341 -0.01960087 C20.31010192 -0.02145749 24.54826037 -0.02900801 28.78642273 -0.03573608 C38.04932471 -0.04929694 47.31222235 -0.05534101 56.57513261 -0.05974674 C62.36580067 -0.06251374 68.15646708 -0.066752 73.94713402 -0.07125092 C89.9983869 -0.08344211 106.04963847 -0.09374077 122.10089588 -0.09712601 C123.12753156 -0.09734557 124.15416724 -0.09756514 125.21191309 -0.09779136 C126.24093141 -0.09800964 127.26994973 -0.09822791 128.33015043 -0.09845281 C130.41514321 -0.09889626 132.500136 -0.09934283 134.58512878 -0.09979248 C135.61934543 -0.10001391 136.65356207 -0.10023534 137.71911862 -0.10046348 C154.45733123 -0.10440704 171.19550018 -0.12184822 187.93369595 -0.145152 C205.14300154 -0.168917 222.35228528 -0.18133025 239.56160754 -0.18249393 C249.2139964 -0.18340795 258.86632843 -0.18909107 268.51870155 -0.20731354 C276.74224329 -0.22278437 284.96571062 -0.22779419 293.18926416 -0.21957543 C297.37795582 -0.2156931 301.56649797 -0.21647876 305.75517082 -0.23063278 C350.59827603 -0.37319491 389.50677337 9.64030699 422.44377136 41.64044189 C447.84351878 66.93662959 462.94663126 102.374265 463.05949521 138.21892959 C463.05871517 139.55395788 463.05783642 140.88898611 463.05686951 142.22401428 C463.05945639 143.6569337 463.06247045 145.0898524 463.06587291 146.52277011 C463.07390863 150.44716656 463.07573056 154.37154468 463.07647038 158.29594839 C463.078327 162.53411621 463.08587751 166.77227465 463.09260559 171.01043701 C463.10616644 180.27333899 463.11221051 189.53623663 463.11661625 198.79914689 C463.11938325 204.58981495 463.12362151 210.38048136 463.12812042 216.1711483 C463.14031162 232.22240119 463.15061028 248.27365275 463.15399551 264.32491016 C463.15421508 265.35154584 463.15443465 266.37818152 463.15466087 267.43592737 C463.15487914 268.46494569 463.15509742 269.49396401 463.15532231 270.55416471 C463.15576577 272.63915749 463.15621233 274.72415028 463.15666199 276.80914307 C463.15688342 277.84335971 463.15710485 278.87757636 463.15733299 279.9431329 C463.16127654 296.68134551 463.17871773 313.41951447 463.20202151 330.15771023 C463.22578651 347.36701582 463.23819975 364.57629957 463.23936343 381.78562182 C463.24027746 391.43801069 463.24596057 401.09034271 463.26418304 410.74271584 C463.27965388 418.96625757 463.2846637 427.1897249 463.27644494 435.41327844 C463.27256261 439.6019701 463.27334826 443.79051225 463.28750229 447.9791851 C463.43006442 492.82229032 453.41656251 531.73078765 421.41642761 564.66778564 C396.12023992 590.06753306 360.68260451 605.17064554 324.83793992 605.28350949 C323.50291163 605.28272945 322.16788339 605.28185071 320.83285522 605.28088379 C319.39993581 605.28347067 317.96701711 605.28648473 316.5340994 605.28988719 C312.60970295 605.29792291 308.68532482 605.29974485 304.76092112 605.30048466 C300.5227533 605.30234128 296.28459486 605.30989179 292.0464325 605.31661987 C282.78353051 605.33018073 273.52063287 605.3362248 264.25772262 605.34063053 C258.46705455 605.34339753 252.67638815 605.34763579 246.88572121 605.3521347 C230.83446832 605.3643259 214.78321676 605.37462456 198.73195934 605.3780098 C197.70532366 605.37822936 196.67868799 605.37844893 195.62094213 605.37867515 C194.59192381 605.37889343 193.56290549 605.3791117 192.5027048 605.3793366 C190.41771201 605.37978005 188.33271923 605.38022662 186.24772644 605.38067627 C185.2135098 605.3808977 184.17929315 605.38111913 183.11373661 605.38134727 C166.375524 605.38529083 149.63735504 605.40273201 132.89915927 605.42603579 C115.68985368 605.44980079 98.48056994 605.46221403 81.27124768 605.46337771 C71.61885882 605.46429174 61.9665268 605.46997486 52.31415367 605.48819733 C44.09061194 605.50366816 35.86714461 605.50867798 27.64359107 605.50045922 C23.45489941 605.49657689 19.26635725 605.49736255 15.0776844 605.51151657 C-29.76542081 605.6540787 -68.67391814 595.64057679 -101.61091614 563.64044189 C-127.01066355 538.3442542 -142.11377604 502.90661879 -142.22663999 467.0619542 C-142.22585995 465.72692591 -142.2249812 464.39189767 -142.22401428 463.05686951 C-142.22660116 461.62395009 -142.22961522 460.19103139 -142.23301768 458.75811368 C-142.2410534 454.83371723 -142.24287534 450.90933911 -142.24361515 446.9849354 C-142.24547177 442.74676758 -142.25302229 438.50860914 -142.25975037 434.27044678 C-142.27331122 425.00754479 -142.27935529 415.74464715 -142.28376102 406.4817369 C-142.28652803 400.69106884 -142.29076628 394.90040243 -142.2952652 389.10973549 C-142.30745639 373.0584826 -142.31775505 357.00723104 -142.32114029 340.95597363 C-142.32135986 339.92933795 -142.32157942 338.90270227 -142.32180564 337.84495642 C-142.32202392 336.8159381 -142.3222422 335.78691978 -142.32246709 334.72671908 C-142.32291055 332.64172629 -142.32335711 330.55673351 -142.32380676 328.47174072 C-142.32402819 327.43752408 -142.32424962 326.40330743 -142.32447776 325.33775089 C-142.32842132 308.59953828 -142.3458625 291.86136932 -142.36916628 275.12317356 C-142.39293129 257.91386797 -142.40534453 240.70458422 -142.40650821 223.49526197 C-142.40742223 213.8428731 -142.41310535 204.19054108 -142.43132782 194.53816795 C-142.44679865 186.31462622 -142.45180847 178.09115889 -142.44358972 169.86760535 C-142.43970738 165.67891369 -142.44049304 161.49037154 -142.45464706 157.30169868 C-142.59720919 112.45859347 -132.58370729 73.55009614 -100.58357239 40.61309814 C-73.83821348 13.75824677 -37.59490825 -0.02722877 0 0 Z " fill="#1AA597" transform="translate(152.0835723876953,9.85955810546875)"/>
<path d="M0 0 C2.86734412 2.72470216 4.48031577 5.48048733 6.328125 8.99609375 C6.64021912 9.58487808 6.95231323 10.17366241 7.27386475 10.7802887 C8.27110538 12.66333577 9.26100979 14.55010858 10.25 16.4375 C11.54350496 18.89632184 12.84053492 21.35324757 14.140625 23.80859375 C14.46044342 24.4133403 14.78026184 25.01808685 15.10977173 25.64115906 C17.77997139 30.6579706 20.63287868 35.55666248 23.52148438 40.45092773 C25.19955444 43.34404687 26.69361718 46.29023741 28.125 49.3125 C31.24451038 55.66318108 34.67563622 61.79610126 38.1875 67.9375 C42.62908797 75.70996033 46.90324113 83.54042733 51 91.5 C54.90353666 99.07685163 58.95227603 106.54101879 63.1875 113.9375 C68.49698952 123.21839389 73.56672335 132.61054865 78.5625 142.0625 C78.92648895 142.751091 79.29047791 143.43968201 79.66549683 144.1491394 C80.02781403 144.83460846 80.39013123 145.52007751 80.76342773 146.22631836 C81.48415341 147.58971209 82.20493725 148.95307508 82.92578125 150.31640625 C83.27690475 150.98053024 83.62802826 151.64465424 83.98979187 152.3289032 C88.42266875 160.7026354 92.97926024 169.0081154 97.53320312 177.31640625 C100.20395948 182.20271682 102.85070318 187.10203173 105.5 192 C110.72900792 201.66313146 115.9806705 211.31369944 121.24609375 220.95703125 C121.66443985 221.75060028 122.08278595 222.54416931 122.5138092 223.36178589 C123.91316795 225.97396116 123.91316795 225.97396116 125.55589294 228.0987854 C132.09203413 237.64525309 130.82906025 248.67547266 130.7265625 259.75390625 C130.72552301 261.98192849 130.72656725 264.20995258 130.72958374 266.43797302 C130.72940487 271.09898419 130.70867729 275.75929944 130.67236328 280.42016602 C130.62717563 286.34511794 130.62587325 292.26904676 130.63939857 298.19412327 C130.64614033 302.79549475 130.63269939 307.39664034 130.61314011 311.99796867 C130.60552845 314.1796646 130.60310059 316.36138589 130.6063118 318.54309273 C130.61601678 357.99809045 115.52926214 392.39152077 87.7109375 420.32373047 C70.97784997 436.71776286 48.7223482 449.15391206 26 455 C25.07654754 455.24621157 24.15309507 455.49242313 23.2016592 455.74609566 C10.7880194 458.6485437 -1.56657163 458.48186382 -14.25952148 458.51513672 C-16.79060119 458.53232489 -19.32167341 458.55064618 -21.85273743 458.57000732 C-29.39716583 458.6225673 -36.94153506 458.6500953 -44.48610339 458.67285842 C-48.04894603 458.6842547 -51.61177583 458.69876423 -55.17460823 458.71295547 C-67.02789661 458.75908084 -78.88117429 458.79838828 -90.73454189 458.81632805 C-93.79690494 458.82103676 -96.85926797 458.82575668 -99.92163086 458.83056641 C-100.68262846 458.83175532 -101.44362607 458.83294423 -102.22768421 458.83416916 C-114.5856775 458.85476649 -126.94292727 458.92302705 -139.30060553 459.01108728 C-152.01603765 459.10095593 -164.73109225 459.14942612 -177.44684464 459.15698445 C-184.57571565 459.16222504 -191.70352861 459.18536839 -198.83209038 459.25472641 C-205.52801824 459.3197126 -212.22168 459.328441 -218.91796684 459.29906464 C-221.37383101 459.29730066 -223.82979186 459.31435505 -226.28537369 459.35163498 C-244.83733844 459.61733966 -244.83733844 459.61733966 -250.14541817 455.64770889 C-252.23557082 452.82771405 -253.60689539 450.20942402 -255 447 C-256.16875216 445.23802756 -257.36676659 443.49476845 -258.60546875 441.78125 C-259.80114803 440.02196641 -260.99511499 438.26151801 -262.1875 436.5 C-263.50509648 434.5611219 -264.82280674 432.62232112 -266.140625 430.68359375 C-266.79095703 429.72565918 -267.44128906 428.76772461 -268.11132812 427.78076172 C-270.88043309 423.70370567 -273.65654495 419.6314809 -276.4375 415.5625 C-276.96005371 414.79768311 -277.48260742 414.03286621 -278.02099609 413.24487305 C-281.58233688 408.0431146 -285.1816758 402.86890758 -288.79321289 397.7019043 C-295.80644241 387.66665205 -302.6896583 377.55812492 -309.42114258 367.33129883 C-313.14447168 361.69523707 -317.01276411 356.2031957 -321.00976562 350.75830078 C-324.30198309 346.19555876 -327.39940236 341.50664513 -330.5 336.8125 C-331.44746094 335.38454102 -331.44746094 335.38454102 -332.4140625 333.92773438 C-333.94487793 331.61991414 -335.47349515 329.31067271 -337 327 C-333.91219954 325.97073318 -331.8224753 325.87870964 -328.58758831 325.88533211 C-326.89124863 325.88512068 -326.89124863 325.88512068 -325.16063946 325.88490498 C-323.28888546 325.89234378 -323.28888546 325.89234378 -321.37931824 325.89993286 C-320.0445704 325.90164426 -318.70982192 325.90290688 -317.37507325 325.90375793 C-313.69930733 325.90735316 -310.02357975 325.91716289 -306.34782875 325.92791152 C-302.38659009 325.93837787 -298.4253445 325.94302246 -294.46409607 325.94824219 C-287.59696405 325.95796227 -280.72984488 325.97100693 -273.8627224 325.98596573 C-263.01064558 326.00931318 -252.15856785 326.02233246 -241.30647278 326.03366089 C-237.5950765 326.03766252 -233.88368031 326.04173119 -230.17228413 326.04582024 C-229.24472793 326.04683946 -228.31717173 326.04785869 -227.36150777 326.04890881 C-216.79951519 326.06065537 -206.23752579 326.07453305 -195.67553711 326.08935547 C-194.22700388 326.09138412 -194.22700388 326.09138412 -192.74920736 326.09345375 C-177.09797808 326.11563697 -161.44677027 326.14550523 -145.79555806 326.17732288 C-129.73344371 326.20969697 -113.67134061 326.23057585 -97.60919744 326.24159515 C-87.69825512 326.24882483 -77.78741887 326.26554655 -67.87651549 326.29439591 C-61.0854904 326.3133752 -54.29450771 326.32148163 -47.50345632 326.32099093 C-43.58373311 326.32105404 -39.6641765 326.3260577 -35.74449158 326.34415817 C-32.15624727 326.36063117 -28.56826866 326.363272 -24.97999875 326.35490941 C-23.0668407 326.35406326 -21.15369388 326.36806082 -19.24059075 326.38258183 C-11.18354267 326.40267108 -11.18354267 326.40267108 -4 323 C-1.04849299 318.54784774 -1.7001364 312.88608111 -1.69702148 307.72851562 C-1.68856233 306.67857202 -1.68010317 305.62862841 -1.67138767 304.54686832 C-1.64524338 300.99999 -1.63325385 297.45320191 -1.62109375 293.90625 C-1.60508962 291.33543876 -1.58821939 288.76463278 -1.57055664 286.1938324 C-1.53347609 280.59350833 -1.50370817 274.99318233 -1.47872925 269.39279175 C-1.44211736 261.19023334 -1.39448913 252.98776703 -1.34434426 244.78528154 C-1.25940016 230.83622263 -1.18398917 216.88712593 -1.11328125 202.93798828 C-1.03520522 187.54830825 -0.95154172 172.158668 -0.86328125 156.76904297 C-0.85738444 155.74047692 -0.85148763 154.71191086 -0.84541214 153.65217614 C-0.81534642 148.41176205 -0.78520584 143.17134839 -0.75503349 137.93093491 C-0.49045241 91.95402467 -0.24124291 45.97703809 0 0 Z " fill="#259286" transform="translate(484,156)"/>
<path d="M0 0 C1.18888824 -0.0071553 2.37777649 -0.01431061 3.60269165 -0.02168274 C4.9138797 -0.02437164 6.22506775 -0.02706055 7.57598877 -0.02983093 C8.96554739 -0.03609485 10.35510433 -0.04274158 11.74465942 -0.04974365 C15.52580917 -0.06716135 19.30694626 -0.07770776 23.08812618 -0.08594918 C25.45040799 -0.09109832 27.81268587 -0.09717413 30.1749649 -0.10346031 C37.56570893 -0.12251561 44.95644295 -0.13674532 52.34720683 -0.14507228 C60.87892033 -0.15484325 69.41037429 -0.18115751 77.94199634 -0.22157317 C84.53570868 -0.25173666 91.12934665 -0.26654141 97.72312665 -0.26985329 C101.66151006 -0.27220377 105.59961631 -0.28116325 109.53792572 -0.30631447 C113.24472965 -0.32960419 116.95107413 -0.33382511 120.65793228 -0.32355309 C122.66305729 -0.32282206 124.668159 -0.34190758 126.67318726 -0.36161804 C137.73438312 -0.29762121 137.73438312 -0.29762121 142.40899658 4.14717102 C144.84600097 7.8026776 144.69986589 10.52310871 144.68988037 14.74989319 C144.69582262 15.53155956 144.70176486 16.31322592 144.70788717 17.11857915 C144.72527523 19.74631686 144.72827877 22.37387248 144.73126221 25.00166321 C144.74051765 26.88235362 144.75056684 28.76304027 144.76135254 30.64372253 C144.78761494 35.75955277 144.80049338 40.87533049 144.80937386 45.99121761 C144.81523344 49.18687842 144.82344272 52.38252483 144.8323822 55.57817841 C144.85973684 65.57506519 144.87906742 75.57191912 144.88678598 85.56884074 C144.89574683 97.1116702 144.93083836 108.65402591 144.98878717 120.1967113 C145.03201475 129.11656248 145.05219422 138.03628035 145.05486822 146.95623517 C145.05696491 152.28472165 145.06879142 157.61276295 145.10450745 162.94113922 C145.13745897 167.95473634 145.14178591 172.96755345 145.12422943 177.98122025 C145.12268804 179.81984419 145.13138321 181.65850997 145.15114594 183.49702835 C145.30882995 199.08224966 145.30882995 199.08224966 142.23297119 203.73881531 C137.37407178 207.9374226 130.56370308 207.12072867 124.51251221 207.05293274 C123.09278671 207.06242572 121.67307847 207.0748937 120.25340271 207.09010315 C116.40800457 207.12195136 112.56392443 207.10967136 108.71850395 207.08744955 C104.68939609 207.06969348 100.66039904 207.0861723 96.63128662 207.09715271 C89.86574089 207.10987843 83.10073051 207.09313048 76.33526611 207.05976868 C68.51976765 207.02167336 60.70554747 207.03401395 52.89007998 207.07255352 C46.17303691 207.10434737 39.45637806 207.1087887 32.73928404 207.09048283 C28.73044101 207.07958443 24.72219832 207.07807228 20.71339417 207.10123825 C16.94368652 207.12150193 13.17562225 207.10736265 9.40609169 207.06697845 C8.02506041 207.0577442 6.64389014 207.06034503 5.26291466 207.07581711 C-6.41609075 207.1945749 -6.41609075 207.1945749 -10.41200256 203.73583984 C-14.62884346 197.35226422 -13.4111133 188.16982014 -13.35150146 180.82270813 C-13.35799828 178.93979887 -13.36706188 177.05689699 -13.37849426 175.17401123 C-13.40154539 170.07062203 -13.38687438 164.9679821 -13.36402488 159.86461711 C-13.3450919 154.52092997 -13.35626975 149.17729258 -13.3629303 143.83358765 C-13.36926792 134.86141576 -13.35101509 125.88954367 -13.31829834 116.91743469 C-13.28079362 106.54657309 -13.28258847 96.17627909 -13.30533952 85.80538744 C-13.32629097 75.82445698 -13.31901389 65.84373616 -13.29902077 55.86281013 C-13.29103716 51.61688304 -13.29302339 47.37113339 -13.30304527 43.12521172 C-13.31359895 38.12549933 -13.29946211 33.12644822 -13.26630211 28.12684059 C-13.25809696 26.29267042 -13.25837648 24.45843963 -13.2677803 22.62427521 C-13.27921386 20.11899654 -13.25982048 17.61577184 -13.23265076 15.11065674 C-13.24312225 14.38584655 -13.25359373 13.66103637 -13.26438254 12.91426224 C-13.15058028 7.27690569 -11.44250308 4.96869946 -7.59100342 1.14717102 C-4.94807157 -0.17429491 -2.96093438 0.0121959 0 0 Z " fill="#DEE0E1" transform="translate(338.59100341796875,141.8528289794922)"/>
<path d="M0 0 C1.77483513 -0.01279495 1.77483513 -0.01279495 3.58552551 -0.02584839 C5.52749565 -0.02448883 5.52749565 -0.02448883 7.50869751 -0.02310181 C8.88870101 -0.02908751 10.26870115 -0.03589315 11.6486969 -0.04345703 C15.39462912 -0.06112009 19.14046996 -0.06581253 22.8864398 -0.0670886 C25.2276336 -0.06851059 27.56880419 -0.07278109 29.90999222 -0.07808304 C38.08011601 -0.09658433 46.25017456 -0.10475353 54.4203186 -0.10317993 C62.03210002 -0.1019785 69.64359789 -0.12308072 77.25530756 -0.15466726 C83.79387029 -0.18083212 90.33234043 -0.19154714 96.87095511 -0.19026911 C100.77464048 -0.18975954 104.67807385 -0.19544005 108.581707 -0.21662521 C112.25408803 -0.23601138 115.92597677 -0.23612996 119.59837532 -0.22159195 C121.58438123 -0.21850905 123.57038719 -0.23517767 125.55632019 -0.25247192 C136.51613449 -0.17513616 136.51613449 -0.17513616 141.20645142 4.26742554 C143.67333895 7.96775683 143.46230479 9.81228089 143.47387695 14.23149109 C143.47840807 14.94444263 143.48293918 15.65739417 143.4876076 16.39195031 C143.50029393 18.78711228 143.49862852 21.18204809 143.49697876 23.57723999 C143.50296144 25.29206638 143.50976638 27.00689007 143.51733398 28.72171021 C143.53502926 33.38502419 143.53969089 38.04826482 143.54096556 42.71160913 C143.54286312 46.60322605 143.55021913 50.49482583 143.55730975 54.38643616 C143.57360524 63.56837307 143.5784777 72.75027075 143.57705688 81.93222046 C143.57585561 91.40541577 143.59695193 100.87838319 143.62854421 110.35152084 C143.65469441 118.48240428 143.66542469 126.61321324 143.66414607 134.74413842 C143.663636 139.60132519 143.66934373 144.45830957 143.69050217 149.31545448 C143.70986302 153.88489929 143.71002382 158.45394824 143.6954689 163.02340698 C143.69337692 164.69956731 143.69810491 166.37575227 143.71018982 168.05187035 C143.72563427 170.3425151 143.71634093 172.63179358 143.70092773 174.92240906 C143.70201727 176.20349202 143.7031068 177.48457499 143.70422935 178.80447865 C143.10953172 182.94167752 141.86692127 185.0712384 139.20645142 188.26742554 C136.05064261 190.53792891 133.23772911 190.52238429 129.41290283 190.53485107 C128.22967941 190.54338104 127.04645599 190.55191101 125.82737732 190.56069946 C124.53273056 190.55979309 123.2380838 190.55888672 121.90420532 190.55795288 C120.52420183 190.56393858 119.14420168 190.57074423 117.76420593 190.57830811 C114.01827371 190.59597116 110.27243287 190.60066361 106.52646303 190.60193968 C104.18526924 190.60336167 101.84409864 190.60763216 99.50291061 190.61293411 C91.33278682 190.63143541 83.16272828 190.6396046 74.99258423 190.63803101 C67.38080281 190.63682957 59.76930494 190.65793179 52.15759528 190.68951833 C45.61903254 190.7156832 39.0805624 190.72639822 32.54194772 190.72512019 C28.63826235 190.72461061 24.73482898 190.73029112 20.83119583 190.75147629 C17.1588148 190.77086246 13.48692606 190.77098103 9.81452751 190.75644302 C7.82852161 190.75336013 5.84251564 190.77002875 3.85658264 190.787323 C-7.23626374 190.70904852 -7.23626374 190.70904852 -11.79354858 186.26742554 C-14.18211513 182.66951342 -14.04985796 179.42269608 -14.06097412 175.17637634 C-14.06550523 174.46186481 -14.07003635 173.74735328 -14.07470477 173.01118988 C-14.08736588 170.61679971 -14.08572732 168.2226365 -14.08407593 165.82821655 C-14.09006005 164.11162015 -14.09686533 162.39502644 -14.10443115 160.67843628 C-14.12210863 156.01524863 -14.12678722 151.35213436 -14.12806273 146.68891644 C-14.12996134 142.79715509 -14.13731832 138.90541085 -14.14440691 135.01365608 C-14.16069457 125.83318175 -14.16557547 116.65274664 -14.16415405 107.47225952 C-14.16295201 97.99845553 -14.18406544 88.52487912 -14.21564138 79.05113274 C-14.24177972 70.91939552 -14.2525224 62.78773275 -14.25124323 54.65595382 C-14.25073295 49.79825494 -14.25645306 44.94075835 -14.27759933 40.08310127 C-14.29694103 35.51528775 -14.2971342 30.94787039 -14.28256607 26.38004303 C-14.28047191 24.70346181 -14.28521494 23.02685606 -14.29728699 21.350317 C-14.31270027 19.0615632 -14.30345892 16.77418214 -14.2880249 14.48545837 C-14.28911444 13.20475244 -14.29020397 11.9240465 -14.29132652 10.60453129 C-13.70056011 6.64403035 -12.63178593 5.04782329 -9.79354858 2.26742554 C-6.58150763 0.06280119 -3.84384366 0.01252877 0 0 Z " fill="#E4E5E6" transform="translate(155.79354858398438,292.7325744628906)"/>
<path d="M0 0 C1.19170807 -0.00708481 2.38341614 -0.01416962 3.61123657 -0.02146912 C4.92040039 -0.0189917 6.22956421 -0.01651428 7.57839966 -0.01396179 C8.96972935 -0.01830856 10.36105665 -0.02349159 11.75238037 -0.02944946 C15.5334365 -0.04285588 19.31439277 -0.04341622 23.09546804 -0.04088616 C26.25152236 -0.03981737 29.4075564 -0.04469758 32.56360638 -0.04949158 C40.00995911 -0.06059287 47.4562614 -0.06102097 54.90261841 -0.05497742 C62.5842205 -0.04893875 70.26563937 -0.06124442 77.94721019 -0.08254749 C84.54178596 -0.10016351 91.13630341 -0.10616477 97.73090184 -0.10290974 C101.669731 -0.10109643 105.60842953 -0.10373762 109.5472374 -0.11762428 C113.25237144 -0.13019777 116.95722005 -0.12826326 120.6623497 -0.11521339 C122.66881809 -0.11171908 124.67529516 -0.12302968 126.68173218 -0.13478088 C127.8790799 -0.12776657 129.07642761 -0.12075226 130.31005859 -0.11352539 C131.34871 -0.11369313 132.38736141 -0.11386087 133.45748711 -0.1140337 C137.66966433 0.44479625 140.18410513 2.09483161 143.07028294 5.15965462 C144.482893 7.60900618 144.66114458 9.064014 144.66969299 11.87736511 C144.67959763 12.79974976 144.68950226 13.7221344 144.69970703 14.67247009 C144.69520538 15.67724396 144.69070374 16.68201782 144.68606567 17.71723938 C144.69292892 18.78107849 144.69979218 19.8449176 144.7068634 20.94099426 C144.72518174 24.46175949 144.72128622 27.9820812 144.71560669 31.50288391 C144.72016642 33.94902187 144.72547136 36.39515854 144.73149109 38.84129333 C144.74043238 43.97089335 144.7379878 49.10033777 144.72805786 54.22993469 C144.71657361 60.80299245 144.73676684 67.37551257 144.765975 73.94849968 C144.78432426 79.00142326 144.78404691 84.05421775 144.77833748 89.10716629 C144.77818407 91.53046039 144.78424414 93.95376314 144.79662895 96.3770256 C144.81151045 99.76681435 144.80088116 103.15560675 144.78372192 106.54536438 C144.79822388 108.04645248 144.79822388 108.04645248 144.8130188 109.5778656 C144.7526455 115.27515098 144.26958712 118.84779305 140.28201294 123.26069641 C136.99527095 125.36500253 134.34341358 125.51369322 130.48173523 125.52139282 C128.70473236 125.53202003 128.70473236 125.53202003 126.89183044 125.54286194 C125.59561264 125.54038452 124.29939484 125.5379071 122.96389771 125.53535461 C121.58227259 125.53970277 120.20064988 125.54488626 118.81903076 125.55084229 C115.06902433 125.5642324 111.31911867 125.56481096 107.56909299 125.56227899 C104.43784172 125.56120929 101.30661085 125.56609259 98.17536396 125.57088441 C90.78796516 125.58197961 83.40061721 125.58241691 76.01321411 125.57637024 C68.39350668 125.5703293 60.77398384 125.5826444 53.1543079 125.60394031 C46.61066688 125.62155603 40.06708461 125.62755772 33.52342075 125.62430257 C29.61590521 125.62248953 25.70852136 125.62512783 21.8010273 125.63901711 C18.12624791 125.65159045 14.45175631 125.64965625 10.77698135 125.63660622 C8.78722128 125.63311218 6.79745244 125.64442202 4.807724 125.65617371 C3.02649139 125.64565224 3.02649139 125.64565224 1.20927429 125.63491821 C-0.33569308 125.63516983 -0.33569308 125.63516983 -1.91187191 125.63542652 C-6.09288687 125.07709156 -8.74006853 123.36918609 -11.50523376 120.2348175 C-13.33583441 115.74550544 -13.14360734 111.4789661 -13.12203979 106.67475891 C-13.12890305 105.60916748 -13.1357663 104.54357605 -13.14283752 103.44569397 C-13.16112969 99.92555902 -13.15726478 96.40586866 -13.15158081 92.88569641 C-13.15614109 90.43859207 -13.1614462 87.99148901 -13.16746521 85.54438782 C-13.17640083 80.41656795 -13.17396751 75.28890379 -13.16403198 70.16108704 C-13.1525357 63.58683886 -13.17276228 57.01312726 -13.20194912 50.43894958 C-13.22028511 45.38606854 -13.22002391 40.33331673 -13.2143116 35.28041077 C-13.2141581 32.85629015 -13.22022593 30.43216092 -13.23260307 28.0080719 C-13.24746334 24.62058211 -13.23687184 21.23409218 -13.21969604 17.84663391 C-13.22936401 16.84388428 -13.23903198 15.84113464 -13.24899292 14.80799866 C-13.20315235 10.49527625 -13.14841016 7.96955399 -10.87413025 4.22407532 C-7.10014392 0.78749226 -5.01657209 0.00992234 0 0 Z " fill="#F9F9FA" transform="translate(154.71798706054688,141.7393035888672)"/>
<path d="M0 0 C1.17198944 -0.01004562 2.34397888 -0.02009125 3.55148315 -0.03044128 C4.83880341 -0.03627228 6.12612366 -0.04210327 7.45245361 -0.04811096 C8.82083373 -0.05765101 10.18921144 -0.06754224 11.55758667 -0.07775879 C16.0527867 -0.10912602 20.54800513 -0.1294083 25.04327393 -0.14796448 C25.80843858 -0.1512618 26.57360323 -0.15455912 27.36195469 -0.15795636 C34.58005544 -0.1887358 41.79816043 -0.2154391 49.01630783 -0.23237514 C58.24354901 -0.25428039 67.47020822 -0.29625269 76.69721675 -0.36581272 C83.18820013 -0.41308223 89.67902665 -0.43731255 96.17017674 -0.44457203 C100.04558413 -0.44952381 103.92033534 -0.46455802 107.79555511 -0.50431633 C111.44343681 -0.54124953 115.09028942 -0.54957155 118.73832321 -0.5363102 C120.70871947 -0.53638963 122.67904497 -0.56619681 124.64920044 -0.59700012 C134.33795867 -0.51763138 134.33795867 -0.51763138 138.65881348 3.07919312 C142.76563075 7.28165523 142.52494088 10.98063756 142.53253174 16.64598083 C142.53749664 17.52421005 142.54246155 18.40243927 142.5475769 19.30728149 C142.56221939 22.22194698 142.56900472 25.136558 142.57452393 28.05125427 C142.58027456 30.07426455 142.58603231 32.0972748 142.59179688 34.12028503 C142.60231342 38.3672969 142.60815151 42.6142898 142.6116333 46.86131287 C142.61711317 52.29988023 142.64112767 57.73819661 142.66960526 63.17668533 C142.6882439 67.35802437 142.69343794 71.53930317 142.69496918 75.72068024 C142.69799449 77.72531758 142.70601892 79.72995389 142.71915436 81.73455048 C142.73623701 84.54245983 142.7343289 87.34975913 142.72784424 90.15769958 C142.73705902 90.98390305 142.7462738 91.81010651 142.75576782 92.66134644 C142.72064201 97.52449238 142.26610001 101.05960407 139.37139893 105.16062927 C135.23136992 107.63890309 132.13859356 108.53759742 127.33734131 108.55503845 C125.55838219 108.57206314 125.55838219 108.57206314 123.7434845 108.58943176 C122.45602829 108.58650116 121.16857208 108.58357056 119.84210205 108.58055115 C118.46180028 108.58789679 117.08150466 108.59648447 115.70121765 108.60621643 C111.96363131 108.62838587 108.22626572 108.63136554 104.48862267 108.62946892 C101.36480973 108.62934904 98.24104326 108.63792001 95.11724329 108.64624643 C87.74701478 108.66546292 80.37689953 108.66837027 73.00665283 108.66160583 C65.4095226 108.65496147 57.81287744 108.67784893 50.21584558 108.71491957 C43.68572015 108.74562496 37.15575073 108.75697585 30.62555456 108.75308275 C26.72855853 108.75101662 22.83194031 108.7564735 18.93501282 108.78097534 C15.27070957 108.80325516 11.60719527 108.80135552 7.94288826 108.78104782 C5.96166864 108.77601843 3.98043423 108.79564599 1.99931335 108.8160553 C-7.71199284 108.72427233 -7.71199284 108.72427233 -11.41168213 105.80967712 C-15.16504468 101.32469718 -14.79851296 97.06926063 -14.83734131 91.48582458 C-14.84712509 90.59930206 -14.85690887 89.71277954 -14.86698914 88.7993927 C-14.89692834 85.86252848 -14.91832449 82.92570974 -14.93719482 79.98875427 C-14.94376665 78.98524681 -14.95033848 77.98173935 -14.95710945 76.94782257 C-14.98969662 71.63595997 -15.01414906 66.32411739 -15.03363037 61.01219177 C-15.05144394 56.61801459 -15.08626628 52.22447907 -15.13616943 47.83055115 C-15.19637556 42.52317719 -15.22710667 37.21639823 -15.23680305 31.90869904 C-15.24535798 29.8880852 -15.26417699 27.86748728 -15.29354668 25.84706879 C-15.33249795 23.01501328 -15.33349128 20.18527228 -15.32562256 17.35301208 C-15.34562317 16.52262421 -15.36562378 15.69223633 -15.38623047 14.83668518 C-15.31784983 9.33845571 -13.95003654 6.49226554 -10.20956516 2.46636581 C-7.06471864 -0.13099934 -3.8976459 0.02624189 0 0 Z " fill="#C8CACC" transform="translate(340.62860107421875,374.83937072753906)"/>
<path d="M0 0 C3.51331175 2.09303679 5.66913575 4.1183126 7 8 C7.04125 9.155 7.0825 10.31 7.125 11.5 C7.59510061 14.9801063 7.59510061 14.9801063 9.6640625 16.19921875 C11.72189763 17.20517146 11.72189763 17.20517146 13.796875 17.98046875 C18.85932604 20.32319875 21.80217783 23.7626297 24.6875 28.4375 C25.26886719 29.36433594 25.85023438 30.29117188 26.44921875 31.24609375 C29.11012865 35.97138715 30.29162581 39.54487904 30.3125 45 C30.32925781 46.010625 30.34601563 47.02125 30.36328125 48.0625 C29.82580211 52.40856792 28.15747802 55.04094679 24.8125 57.8125 C21.11508457 59.37363096 17.90737826 59.7661526 14 59 C9.88776248 56.82749716 8.49388424 55.58086092 7.10546875 51.13671875 C6.62884244 49.04924844 6.20303645 46.94933262 5.8359375 44.83984375 C4.84705036 41.48040005 3.75969315 40.1251113 1 38 C-3.17335756 36.63376667 -6.87241359 36.5441672 -10.9375 38.1875 C-13.63530552 40.55829879 -14.89948375 42.55926715 -15.15234375 46.18359375 C-15.08144531 46.92738281 -15.01054687 47.67117187 -14.9375 48.4375 C-14.88464844 49.17871094 -14.83179688 49.91992188 -14.77734375 50.68359375 C-13.61745145 54.13995622 -11.82941438 55.74422032 -9 58 C-5.84583084 58.80795469 -5.84583084 58.80795469 -2.4375 58.9375 C7.31862973 60.04196752 15.85668733 63.70994129 22.53515625 71.07421875 C29.90941069 80.76890526 30.83535726 90.08387433 30 102 C28.32335578 110.26993431 23.22072418 116.49134599 17 122 C14.44921875 123.45703125 14.44921875 123.45703125 12 124.625 C9.75363829 125.63603356 9.75363829 125.63603356 8 127 C7.28509573 129.10571804 7.18970545 130.85388864 7.15625 133.0703125 C6.89904612 136.24678046 5.21418784 137.84907467 3 140 C-1.40370555 142.70143281 -5.11853116 142.15934885 -10 141 C-12.9375 139.5625 -12.9375 139.5625 -15 137 C-15.27743708 135.3825418 -15.501161 133.75546623 -15.6875 132.125 C-16.19272864 128.82898459 -16.43346466 127.45903338 -19.05859375 125.33203125 C-20.80428536 124.3834591 -22.56143933 123.45574797 -24.328125 122.546875 C-30.69492648 118.86083204 -35.68029584 112.41862615 -38.375 105.59765625 C-39.68194731 100.16565648 -39.90442176 94.5063325 -39 89 C-36.83490059 85.60041409 -34.85381626 83.31684455 -31 82 C-27.04467846 81.59008486 -23.46400924 81.98478852 -20.15234375 84.28125 C-16.19912518 88.39959072 -15.40342069 92.24413567 -14.53125 97.75390625 C-14.10959701 100.23897247 -14.10959701 100.23897247 -11.9375 102.625 C-7.88260768 104.5230347 -4.39543407 104.95552915 0 104 C3.02409364 101.72872666 3.02409364 101.72872666 5 99 C5.33 98.67 5.66 98.34 6 98 C6.50226229 92.27169014 6.50226229 92.27169014 4.3125 87.125 C0.10001923 83.25407173 -4.06070097 82.79607904 -9.625 82.3125 C-19.21857541 81.02531169 -26.81832486 76.47664621 -32.7890625 68.83203125 C-38.93363822 59.53588282 -40.4131111 49.97764199 -39 39 C-37.55781148 34.56696413 -35.57515881 30.87200138 -33 27 C-32.61714844 26.38769531 -32.23429687 25.77539062 -31.83984375 25.14453125 C-28.45501666 20.42518452 -23.10411507 17.54754062 -18 15 C-17.34 15 -16.68 15 -16 15 C-16.103125 13.80375 -16.20625 12.6075 -16.3125 11.375 C-16.33070512 7.95850513 -15.81131276 6.19761597 -13.625 3.5625 C-9.38100608 -0.58044645 -5.7547761 -0.72681428 0 0 Z " fill="#2BAFA0" transform="translate(409,175)"/>
<path d="M0 0 C5.81842699 3.56307581 10.33365035 8.95364493 12.3984375 15.46875 C13.39095655 22.98188841 12.39327436 29.96886351 8.3984375 36.46875 C5.44679276 39.6712262 2.3113658 42.51228585 -1.6015625 44.46875 C-0.98410156 44.67628906 -0.36664063 44.88382812 0.26953125 45.09765625 C15.09573746 50.49105546 24.18189146 61.15016022 30.953125 75.0390625 C34.43815255 83.30893868 34.3984375 87.74520777 34.3984375 97.46875 C3.7084375 97.46875 -26.9815625 97.46875 -58.6015625 97.46875 C-58.6015625 80.91334935 -53.73918953 67.90617603 -42.18359375 55.8828125 C-36.28126557 50.36444818 -30.24803336 46.97123137 -22.6015625 44.46875 C-23.12105469 44.1284375 -23.64054687 43.788125 -24.17578125 43.4375 C-30.10015505 39.32000545 -34.10554441 34.95680428 -36.4140625 28.03125 C-36.4759375 27.185625 -36.5378125 26.34 -36.6015625 25.46875 C-36.67503906 24.82421875 -36.74851563 24.1796875 -36.82421875 23.515625 C-37.27654106 16.88156448 -35.29395082 11.93757703 -31.6015625 6.46875 C-23.09321127 -3.15114355 -11.5774518 -5.11307019 0 0 Z " fill="#17A395" transform="translate(232.6015625,340.53125)"/>
</svg>
