<?xml version="1.0" encoding="UTF-8"?>
<svg version="1.1" xmlns="http://www.w3.org/2000/svg" width="625" height="625">
<path d="M0 0 C1.43291942 -0.00258688 2.86583811 -0.00560094 4.29875582 -0.0090034 C8.22315228 -0.01703912 12.1475304 -0.01886106 16.0719341 -0.01960087 C20.31010192 -0.02145749 24.54826037 -0.02900801 28.78642273 -0.03573608 C38.04932471 -0.04929694 47.31222235 -0.05534101 56.57513261 -0.05974674 C62.36580067 -0.06251374 68.15646708 -0.066752 73.94713402 -0.07125092 C89.9983869 -0.08344211 106.04963847 -0.09374077 122.10089588 -0.09712601 C123.12753156 -0.09734557 124.15416724 -0.09756514 125.21191309 -0.09779136 C126.24093141 -0.09800964 127.26994973 -0.09822791 128.33015043 -0.09845281 C130.41514321 -0.09889626 132.500136 -0.09934283 134.58512878 -0.09979248 C135.61934543 -0.10001391 136.65356207 -0.10023534 137.71911862 -0.10046348 C154.45733123 -0.10440704 171.19550018 -0.12184822 187.93369595 -0.145152 C205.14300154 -0.168917 222.35228528 -0.18133025 239.56160754 -0.18249393 C249.2139964 -0.18340795 258.86632843 -0.18909107 268.51870155 -0.20731354 C276.74224329 -0.22278437 284.96571062 -0.22779419 293.18926416 -0.21957543 C297.37795582 -0.2156931 301.56649797 -0.21647876 305.75517082 -0.23063278 C350.59827603 -0.37319491 389.50677337 9.64030699 422.44377136 41.64044189 C447.84351878 66.93662959 462.94663126 102.374265 463.05949521 138.21892959 C463.05871517 139.55395788 463.05783642 140.88898611 463.05686951 142.22401428 C463.05945639 143.6569337 463.06247045 145.0898524 463.06587291 146.52277011 C463.07390863 150.44716656 463.07573056 154.37154468 463.07647038 158.29594839 C463.078327 162.53411621 463.08587751 166.77227465 463.09260559 171.01043701 C463.10616644 180.27333899 463.11221051 189.53623663 463.11661625 198.79914689 C463.11938325 204.58981495 463.12362151 210.38048136 463.12812042 216.1711483 C463.14031162 232.22240119 463.15061028 248.27365275 463.15399551 264.32491016 C463.15421508 265.35154584 463.15443465 266.37818152 463.15466087 267.43592737 C463.15487914 268.46494569 463.15509742 269.49396401 463.15532231 270.55416471 C463.15576577 272.63915749 463.15621233 274.72415028 463.15666199 276.80914307 C463.15688342 277.84335971 463.15710485 278.87757636 463.15733299 279.9431329 C463.16127654 296.68134551 463.17871773 313.41951447 463.20202151 330.15771023 C463.22578651 347.36701582 463.23819975 364.57629957 463.23936343 381.78562182 C463.24027746 391.43801069 463.24596057 401.09034271 463.26418304 410.74271584 C463.27965388 418.96625757 463.2846637 427.1897249 463.27644494 435.41327844 C463.27256261 439.6019701 463.27334826 443.79051225 463.28750229 447.9791851 C463.43006442 492.82229032 453.41656251 531.73078765 421.41642761 564.66778564 C396.12023992 590.06753306 360.68260451 605.17064554 324.83793992 605.28350949 C323.50291163 605.28272945 322.16788339 605.28185071 320.83285522 605.28088379 C319.39993581 605.28347067 317.96701711 605.28648473 316.5340994 605.28988719 C312.60970295 605.29792291 308.68532482 605.29974485 304.76092112 605.30048466 C300.5227533 605.30234128 296.28459486 605.30989179 292.0464325 605.31661987 C282.78353051 605.33018073 273.52063287 605.3362248 264.25772262 605.34063053 C258.46705455 605.34339753 252.67638815 605.34763579 246.88572121 605.3521347 C230.83446832 605.3643259 214.78321676 605.37462456 198.73195934 605.3780098 C197.70532366 605.37822936 196.67868799 605.37844893 195.62094213 605.37867515 C194.59192381 605.37889343 193.56290549 605.3791117 192.5027048 605.3793366 C190.41771201 605.37978005 188.33271923 605.38022662 186.24772644 605.38067627 C185.2135098 605.3808977 184.17929315 605.38111913 183.11373661 605.38134727 C166.375524 605.38529083 149.63735504 605.40273201 132.89915927 605.42603579 C115.68985368 605.44980079 98.48056994 605.46221403 81.27124768 605.46337771 C71.61885882 605.46429174 61.9665268 605.46997486 52.31415367 605.48819733 C44.09061194 605.50366816 35.86714461 605.50867798 27.64359107 605.50045922 C23.45489941 605.49657689 19.26635725 605.49736255 15.0776844 605.51151657 C-29.76542081 605.6540787 -68.67391814 595.64057679 -101.61091614 563.64044189 C-127.01066355 538.3442542 -142.11377604 502.90661879 -142.22663999 467.0619542 C-142.22585995 465.72692591 -142.2249812 464.39189767 -142.22401428 463.05686951 C-142.22660116 461.62395009 -142.22961522 460.19103139 -142.23301768 458.75811368 C-142.2410534 454.83371723 -142.24287534 450.90933911 -142.24361515 446.9849354 C-142.24547177 442.74676758 -142.25302229 438.50860914 -142.25975037 434.27044678 C-142.27331122 425.00754479 -142.27935529 415.74464715 -142.28376102 406.4817369 C-142.28652803 400.69106884 -142.29076628 394.90040243 -142.2952652 389.10973549 C-142.30745639 373.0584826 -142.31775505 357.00723104 -142.32114029 340.95597363 C-142.32135986 339.92933795 -142.32157942 338.90270227 -142.32180564 337.84495642 C-142.32202392 336.8159381 -142.3222422 335.78691978 -142.32246709 334.72671908 C-142.32291055 332.64172629 -142.32335711 330.55673351 -142.32380676 328.47174072 C-142.32402819 327.43752408 -142.32424962 326.40330743 -142.32447776 325.33775089 C-142.32842132 308.59953828 -142.3458625 291.86136932 -142.36916628 275.12317356 C-142.39293129 257.91386797 -142.40534453 240.70458422 -142.40650821 223.49526197 C-142.40742223 213.8428731 -142.41310535 204.19054108 -142.43132782 194.53816795 C-142.44679865 186.31462622 -142.45180847 178.09115889 -142.44358972 169.86760535 C-142.43970738 165.67891369 -142.44049304 161.49037154 -142.45464706 157.30169868 C-142.59720919 112.45859347 -132.58370729 73.55009614 -100.58357239 40.61309814 C-73.83821348 13.75824677 -37.59490825 -0.02722877 0 0 Z " fill="#F6BB33" transform="translate(152.0835723876953,9.85955810546875)"/>
<path d="M0 0 C2.4700005 3.11977983 4.39385318 6.3657279 6.30078125 9.85546875 C6.76976837 10.71010963 6.76976837 10.71010963 7.24822998 11.58201599 C7.9210383 12.80870029 8.59249434 14.03612708 9.26272583 15.26422119 C11.05942526 18.5559329 12.86637403 21.84201663 14.671875 25.12890625 C15.2210836 26.12969208 15.2210836 26.12969208 15.78138733 27.1506958 C19.17379806 33.32826844 22.61133781 39.48006635 26.0625 45.625 C32.7799117 57.59474426 39.44872879 69.59109673 46.10888672 81.59277344 C49.23745051 87.22951966 52.36882607 92.8647034 55.5 98.5 C59.263131 105.27265455 63.02565148 112.0456442 66.78515625 118.8203125 C69.90996322 124.4506135 73.0376166 130.07932309 76.16796875 135.70654297 C77.37684259 137.879745 78.58518727 140.05324147 79.79296875 142.22705078 C86.7636934 154.76627649 93.82090014 167.24442041 101.11938477 179.59643555 C102.20482152 181.44003269 103.27776455 183.29104226 104.33813477 185.14916992 C105.48733968 187.12056199 106.69272909 189.05987289 107.94116211 190.9699707 C113.6852297 200.29780058 114.00705758 208.07606525 113.6875 218.6875 C113.66108877 220.30183057 113.63521326 221.91616999 113.60986328 223.53051758 C113.37282802 234.42564461 112.4223918 244.60448492 109 255 C108.58273434 256.39044539 108.16608404 257.78107556 107.75 259.171875 C96.68256988 294.45183484 71.35844142 323.84730659 38.86816406 341.13427734 C19.70475329 350.94318231 -0.72141102 356.89797823 -22.33325195 357.27502441 C-23.13325811 357.29210685 -23.93326427 357.30918929 -24.75751305 357.32678938 C-27.41769949 357.38194946 -30.07795705 357.43049073 -32.73828125 357.47851562 C-34.65436422 357.51591837 -36.57044594 357.55338547 -38.48652649 357.59091187 C-55.95127919 357.92178107 -73.41778886 358.11747758 -90.8848877 358.27381134 C-102.61358081 358.38133252 -114.33850426 358.53224794 -126.06494141 358.79003906 C-136.31685388 359.01535906 -146.56611122 359.15872294 -156.8204546 359.20470572 C-162.23990308 359.23171012 -167.65207781 359.29794928 -173.06924438 359.46235657 C-206.93126534 360.449371 -206.93126534 360.449371 -214.35609818 354.74405098 C-219.64213428 349.45939955 -222.96637981 343.53986123 -225.83360672 336.68636513 C-227.39517407 333.08985944 -229.41764815 330.16734743 -231.7109375 326.99609375 C-232.93426738 325.14453301 -234.15571109 323.29172429 -235.375 321.4375 C-240.21961909 314.11893298 -245.15871214 306.91636975 -250.3125 299.8125 C-254.75286558 293.59598818 -258.89818174 287.17211686 -263.1171875 280.8046875 C-266.66064746 275.46944024 -270.2389993 270.18408205 -274 265 C-279.26069456 257.74877237 -284.16960286 250.27170639 -289.1171875 242.8046875 C-292.66064746 237.46944024 -296.2389993 232.18408205 -300 227 C-304.5109901 220.78214877 -308.75711308 214.40324921 -313 208 C-318.07616117 200.34133374 -323.22518491 192.76868566 -328.609375 185.32421875 C-331.47704234 181.35500687 -334.27526218 177.33846008 -337.0625 173.3125 C-337.54050049 172.62800781 -338.01850098 171.94351563 -338.51098633 171.23828125 C-340.39023016 168.5143216 -341.94778716 166.15663853 -343 163 C-342.113125 163.33 -341.22625 163.66 -340.3125 164 C-333.29164037 165.96926551 -325.04034576 166.40312892 -318.375 163.1875 C-316.5770726 162.20895125 -316.5770726 162.20895125 -315 161 C-314.45601562 160.60425781 -313.91203125 160.20851563 -313.3515625 159.80078125 C-310.73548844 156.3152028 -310.83266158 152.58565917 -311.27197266 148.42285156 C-311.72630319 145.47658692 -312.25444951 142.55334632 -312.8125 139.625 C-312.99103516 138.635 -313.16957031 137.645 -313.35351562 136.625 C-314.32249293 131.32186068 -315.39810854 126.05975349 -316.65161133 120.81640625 C-317.69005797 115.40222054 -314.68529476 111.44751945 -312 107 C-309.93306941 102.86613881 -310.44013502 97.34085279 -311.49609375 92.92578125 C-312.70167748 89.78581459 -313.77421024 88.15091813 -316.58056641 86.27514648 C-319 84 -319 84 -319.58349609 80.57446289 C-319.58937685 79.2070601 -319.56760233 77.83935828 -319.5234375 76.47265625 C-319.51909698 75.73504562 -319.51475647 74.997435 -319.51028442 74.23747253 C-319.48967997 71.84480012 -319.433048 69.45453138 -319.375 67.0625 C-319.35300467 65.42743224 -319.33282609 63.79233904 -319.31445312 62.15722656 C-319.15755057 50.42854162 -318.76934852 38.70508817 -318 27 C-311.49090419 28.85952891 -305.17951261 30.98152217 -298.89453125 33.4921875 C-298.03686661 33.83050598 -297.17920197 34.16882446 -296.29554749 34.51739502 C-294.43880788 35.24991819 -292.58272253 35.9841015 -290.72723389 36.7197876 C-285.64367696 38.73458148 -280.55453656 40.73514086 -275.46484375 42.734375 C-274.38809387 43.15739899 -273.31134399 43.58042297 -272.20196533 44.01626587 C-256.8397624 50.0387414 -241.40952177 55.88473557 -225.98364258 61.74169922 C-224.32867516 62.37115952 -224.32867516 62.37115952 -222.64027405 63.01333618 C-220.48305485 63.83354309 -218.32514123 64.65192627 -216.16648865 65.46835327 C-211.13899521 67.37892976 -206.14381704 69.33746052 -201.18847656 71.42871094 C-200.27921417 71.80865204 -199.36995178 72.18859314 -198.43313599 72.58004761 C-196.75201599 73.28756827 -195.076503 74.00864342 -193.40841675 74.74636841 C-186.33508553 77.71550712 -181.24412729 76.70663951 -174.15625 73.92578125 C-173.08238037 73.50844727 -172.00851074 73.09111328 -170.90209961 72.66113281 C-169.77940674 72.21608398 -168.65671387 71.77103516 -167.5 71.3125 C-166.33670166 70.85842773 -165.17340332 70.40435547 -163.97485352 69.93652344 C-156.79972293 67.12949431 -149.65337397 64.25414511 -142.51171875 61.36328125 C-137.73832888 59.51020777 -132.90332202 57.85294942 -128.06347656 56.18310547 C-123.09839583 54.44772636 -118.36604694 52.40972715 -113.61328125 50.15234375 C-109.78036074 48.46219196 -105.82207686 47.24061329 -101.8359375 45.96484375 C-99.30139779 45.10254167 -96.92609857 44.1254645 -94.5 43 C-91.10181251 41.4235845 -87.69303324 40.20445408 -84.125 39.0625 C-80.10825884 37.76595697 -76.31783468 36.29889329 -72.5 34.5 C-67.707222 32.2417314 -62.85671141 30.57276126 -57.81640625 28.95703125 C-55.38938323 28.13231469 -53.13039465 27.21025703 -50.8125 26.125 C-46.47431263 24.11055833 -42.01544602 22.56085294 -37.5 21 C-32.30249932 19.20045688 -27.22910818 17.33704205 -22.24609375 14.99609375 C-19.31534293 13.69636947 -16.31896477 12.61262869 -13.3125 11.5 C-6.70845758 9.00700434 -6.70845758 9.00700434 -1 5 C-0.03780298 2.37233611 -0.03780298 2.37233611 0 0 Z " fill="#C99F37" transform="translate(501,258)"/>
<path d="M0 0 C3.30333235 1.27026006 6.56605949 2.61805857 9.82861328 3.98974609 C11.7828497 4.79429719 13.73901619 5.59403826 15.69523621 6.39375305 C17.13965711 6.98457192 18.58349523 7.57681717 20.02680969 8.17033386 C29.73021892 12.1550269 39.4914968 15.9945858 49.24758911 19.84799194 C52.39890506 21.09312995 55.54930494 22.34055863 58.69946289 23.58862305 C67.67856008 27.14416072 76.66175756 30.68357473 85.68237305 34.13256836 C89.91735231 35.76586951 94.12181781 37.47299419 98.32861328 39.17724609 C104.16584778 41.531886 110.00953529 43.79411673 115.95361328 45.86474609 C120.97390711 47.61628385 125.73471391 49.66415125 130.54345703 51.92333984 C134.95538395 53.86604017 139.49797072 55.40630994 144.04736328 56.99365234 C147.68139034 58.27999603 151.24869973 59.68532271 154.81689453 61.14208984 C158.95605492 62.80654736 163.13673289 64.36248499 167.31298828 65.93115234 C175.43162501 69.21775782 175.43162501 69.21775782 178.39111328 72.17724609 C178.82861328 75.55224609 178.82861328 75.55224609 178.39111328 79.17724609 C172.63385159 85.92713911 161.45451388 88.59236959 153.27783203 91.22021484 C149.85929692 92.35355869 146.55052395 93.67968108 143.21923828 95.04443359 C139.63145027 96.481531 136.01312358 97.82921886 132.39111328 99.17724609 C127.19424262 101.11442008 122.02296367 103.09586824 116.88330078 105.18115234 C113.87828593 106.38221627 110.85379174 107.52795774 107.82861328 108.67724609 C104.10670068 110.09905149 100.44524309 111.56902037 96.82861328 113.23974609 C92.44627605 115.2382845 87.93726081 116.69580996 83.35986328 118.18115234 C79.85326578 119.35770809 76.44506039 120.70828466 73.02392578 122.11083984 C69.97551138 123.34558336 66.90374095 124.51069534 63.82861328 125.67724609 C60.21091172 127.05961986 56.65084236 128.47868283 53.14111328 130.11474609 C48.87949691 132.06111968 44.50100411 133.58224875 40.07861328 135.11474609 C35.20590064 136.80391814 30.38818911 138.52946055 25.64111328 140.55224609 C19.99555484 142.95494551 14.29933914 145.21083406 8.57861328 147.42724609 C7.68239258 147.78093262 6.78617188 148.13461914 5.86279297 148.49902344 C4.56776855 148.99716553 4.56776855 148.99716553 3.24658203 149.50537109 C2.47983154 149.8034668 1.71308105 150.1015625 0.9230957 150.40869141 C-6.24586181 152.58474755 -10.53106716 151.95737338 -17.24169922 149.16162109 C-18.06253998 148.83514587 -18.88338074 148.50867065 -19.72909546 148.17230225 C-22.40346751 147.10519369 -25.06832693 146.01615664 -27.73388672 144.92724609 C-29.60099245 144.17867091 -31.46883918 143.43194146 -33.33740234 142.68701172 C-37.0619404 141.20155693 -40.78393722 139.70999837 -44.50439453 138.21435547 C-51.00511523 135.60974318 -57.55022266 133.13225075 -64.10888672 130.67724609 C-75.99623055 126.1991194 -87.83791199 121.6080018 -99.67138672 116.98974609 C-100.51894531 116.6592627 -101.36650391 116.3287793 -102.23974609 115.98828125 C-114.72334225 111.11870726 -127.17424315 106.1704384 -139.60888672 101.17724609 C-139.59353882 103.04328491 -139.59353882 103.04328491 -139.57788086 104.94702148 C-139.44583687 122.69926157 -140.06079846 140.4358041 -140.60888672 158.17724609 C-139.99400391 158.45826172 -139.37912109 158.73927734 -138.74560547 159.02880859 C-135.44580124 160.80237796 -133.15888916 163.44763316 -132.01513672 167.04443359 C-130.58349812 174.56053625 -131.31130759 180.77793118 -135.60888672 187.17724609 C-136.26888672 187.83724609 -136.92888672 188.49724609 -137.60888672 189.17724609 C-137.39775504 195.8278939 -136.01861015 202.13710806 -134.60888672 208.61474609 C-130.68717537 226.77055534 -130.68717537 226.77055534 -132.73388672 232.11474609 C-137.03538371 236.84639279 -141.21826971 239.8038875 -147.65966797 240.51318359 C-156.23530044 240.61588578 -161.75434353 239.74269854 -168.10888672 233.86474609 C-171.08153537 228.53875059 -169.46097526 222.61500542 -168.26123047 216.88818359 C-167.98310954 215.52102175 -167.70511858 214.15383346 -167.42724609 212.78662109 C-166.98690035 210.66193444 -166.54338324 208.53796121 -166.09692383 206.41455078 C-165.66434593 204.34485023 -165.24353206 202.27300732 -164.82373047 200.20068359 C-164.43882446 198.35869385 -164.43882446 198.35869385 -164.04614258 196.47949219 C-163.22124254 190.24967763 -165.09163081 187.23330146 -168.60888672 182.17724609 C-170.45520638 176.6382871 -170.85029928 170.0813448 -168.52685547 164.64599609 C-167.05810981 162.30954766 -165.5636289 160.13198827 -163.60888672 158.17724609 C-163.48507834 156.12246156 -163.43090469 154.06345649 -163.40356445 152.00512695 C-163.38871506 151.03930443 -163.38871506 151.03930443 -163.37356567 150.05397034 C-163.34187144 147.91671478 -163.31716223 145.77943696 -163.29248047 143.64208984 C-163.27191776 142.16377674 -163.25092148 140.6854696 -163.22950745 139.20716858 C-163.17421613 135.30932438 -163.12483815 131.41142651 -163.07666016 127.51348877 C-163.02649652 123.53872887 -162.97078371 119.56404726 -162.91552734 115.58935547 C-162.80785948 107.78538524 -162.70643385 99.98135008 -162.60888672 92.17724609 C-163.20604996 91.98103165 -163.8032132 91.7848172 -164.41847229 91.58265686 C-169.88342522 89.77620026 -175.22602296 87.80992723 -180.54638672 85.61474609 C-181.67657227 85.15938477 -181.67657227 85.15938477 -182.82958984 84.69482422 C-188.36658049 82.41955232 -188.36658049 82.41955232 -190.60888672 80.17724609 C-190.98388672 76.80224609 -190.98388672 76.80224609 -190.60888672 73.17724609 C-187.89884627 69.84548588 -185.23658073 68.33776457 -181.27294922 66.79443359 C-180.16935059 66.3586499 -179.06575195 65.92286621 -177.92871094 65.47387695 C-176.70941895 65.00473877 -175.49012695 64.53560059 -174.23388672 64.05224609 C-172.92769061 63.54089998 -171.62187559 63.02857957 -170.31640625 62.51538086 C-167.39473022 61.36913324 -164.47050144 60.22971527 -161.54443359 59.09472656 C-156.14934332 57.0011441 -150.76185276 54.8883299 -145.37451172 52.77490234 C-137.4209148 49.65614873 -129.4651721 46.54294925 -121.50732422 43.43505859 C-100.68375077 35.30203833 -79.88436268 27.10792509 -59.09228516 18.89477539 C-51.03612839 15.71271223 -42.97858531 12.53425604 -34.91748047 9.36474609 C-33.37605731 8.75846514 -31.83463478 8.15218262 -30.29321289 7.54589844 C-27.39142022 6.4046076 -24.48916704 5.26449793 -21.58666992 4.125 C-20.28676663 3.61381332 -18.9868796 3.10258529 -17.68701172 2.59130859 C-16.55682617 2.1473877 -15.42664063 1.7034668 -14.26220703 1.24609375 C-8.9812454 -0.88125719 -5.58236907 -1.76048884 0 0 Z " fill="#EEEEEE" transform="translate(322.60888671875,183.82275390625)"/>
<path d="M0 0 C2.71071591 0.8405211 5.21331449 1.7294901 7.82104492 2.81054688 C8.5702269 3.10981079 9.31940887 3.40907471 10.09129333 3.71740723 C12.55910509 4.70647623 15.01962783 5.71247688 17.48046875 6.71875 C19.21574374 7.41809463 20.95145452 8.11635881 22.68757629 8.81359863 C27.26268645 10.65432016 31.83182987 12.50942036 36.39984131 14.36767578 C40.97863887 16.227546 45.5627223 18.07428215 50.14648438 19.921875 C56.1405335 22.33912965 62.13311911 24.75987708 68.12146473 27.19123077 C69.69270487 27.82827409 71.26460502 28.46369218 72.83719158 29.09740448 C77.03695395 30.79039852 81.22349452 32.50971434 85.39810181 34.26391602 C87.18636401 35.00476111 88.97464279 35.7455662 90.76293945 36.48632812 C91.58404552 36.83785698 92.40515158 37.18938583 93.25113964 37.55156708 C99.3379703 40.05265319 104.79996664 41.26007587 111.13208008 38.66503906 C111.87291336 38.36849426 112.61374664 38.07194946 113.37702942 37.76641846 C114.16655502 37.43615662 114.95608063 37.10589478 115.76953125 36.765625 C116.62355026 36.42005554 117.47756927 36.07448608 118.35746765 35.71844482 C121.1804557 34.57335738 123.99628151 33.41162501 126.8125 32.25 C128.78853778 31.44532482 130.76511076 30.64196281 132.7421875 29.83984375 C136.94677821 28.13300604 141.14904606 26.42060674 145.35009766 24.70507812 C155.5995905 20.52710061 165.88306466 16.4338046 176.16317749 12.33190918 C181.49543152 10.20351366 186.82578635 8.07037451 192.15625 5.9375 C197.50933233 3.79618548 197.50933233 3.79618548 199.93505859 2.83007812 C201.59456146 2.16298073 203.24513712 1.47369626 204.89257812 0.77734375 C208.07733311 -0.39738515 210.64507563 -0.36599175 214 0 C216.75570271 2.09190034 217.86629219 3.28439328 218.50793457 6.71847534 C218.51111694 7.75738922 218.51429932 8.7963031 218.51757812 9.86669922 C218.53018677 11.04827606 218.54279541 12.22985291 218.55578613 13.44723511 C218.54768921 14.7201944 218.53959229 15.99315369 218.53125 17.3046875 C218.5350769 18.61656036 218.53890381 19.92843323 218.54284668 21.28005981 C218.54873856 24.05587624 218.54019263 26.8311772 218.52148438 29.60693359 C218.49873826 33.15350019 218.51179029 36.698853 218.53577423 40.24537468 C218.55376716 43.64024091 218.54113894 47.03478685 218.53125 50.4296875 C218.53934692 51.69859833 218.54744385 52.96750916 218.55578613 54.27487183 C218.44095494 65.09330932 218.44095494 65.09330932 214 70 C213.4328125 70.73863281 212.865625 71.47726562 212.28125 72.23828125 C204.06878573 81.80147977 194.10592215 88.2538194 183 94 C181.498246 94.87198619 179.99816294 95.74685831 178.5 96.625 C165.72208459 103.66635127 150.93393429 106.25510784 136.6875 108.6875 C135.9958374 108.80681885 135.3041748 108.9261377 134.59155273 109.04907227 C123.29781456 110.88253158 112.00762384 111.18649526 100.59277344 111.18530273 C98.26739013 111.18748369 95.94248717 111.20569851 93.6171875 111.22460938 C80.28891659 111.27576476 67.20704198 110.21099159 54.25 106.875 C53.42491943 106.66399658 52.59983887 106.45299316 51.74975586 106.2355957 C28.84806715 100.09166276 6.71357968 89.19685857 -8 70 C-10.42472077 65.78230924 -11.37884185 62.7296167 -11.40405273 57.87451172 C-11.41673691 56.68663055 -11.42942108 55.49874939 -11.44248962 54.27487183 C-11.43955399 53.005961 -11.43661835 51.73705017 -11.43359375 50.4296875 C-11.4388356 49.11590118 -11.44407745 47.80211487 -11.44947815 46.44851685 C-11.45838439 43.67635446 -11.4560128 40.9044806 -11.44604492 38.13232422 C-11.43452582 34.58342195 -11.45482242 31.03551039 -11.48396206 27.4867382 C-11.50672606 24.09266842 -11.4998588 20.69883183 -11.49609375 17.3046875 C-11.50732773 16.03172821 -11.51856171 14.75876892 -11.53013611 13.44723511 C-11.52075516 12.26565826 -11.51137421 11.08408142 -11.50170898 9.86669922 C-11.50154282 8.82778534 -11.50137665 7.78887146 -11.50120544 6.71847534 C-11 4 -11 4 -9.40614319 1.6333313 C-6.03068727 -0.65798612 -4.02802249 -0.45858503 0 0 Z " fill="#D1D2D3" transform="translate(213,310)"/>
</svg>
