<?xml version="1.0" encoding="UTF-8"?>
<svg version="1.1" xmlns="http://www.w3.org/2000/svg" width="625" height="625">
<path d="M0 0 C1.43291942 -0.00258688 2.86583811 -0.00560094 4.29875582 -0.0090034 C8.22315228 -0.01703912 12.1475304 -0.01886106 16.0719341 -0.01960087 C20.31010192 -0.02145749 24.54826037 -0.02900801 28.78642273 -0.03573608 C38.04932471 -0.04929694 47.31222235 -0.05534101 56.57513261 -0.05974674 C62.36580067 -0.06251374 68.15646708 -0.066752 73.94713402 -0.07125092 C89.9983869 -0.08344211 106.04963847 -0.09374077 122.10089588 -0.09712601 C123.12753156 -0.09734557 124.15416724 -0.09756514 125.21191309 -0.09779136 C126.24093141 -0.09800964 127.26994973 -0.09822791 128.33015043 -0.09845281 C130.41514321 -0.09889626 132.500136 -0.09934283 134.58512878 -0.09979248 C135.61934543 -0.10001391 136.65356207 -0.10023534 137.71911862 -0.10046348 C154.45733123 -0.10440704 171.19550018 -0.12184822 187.93369595 -0.145152 C205.14300154 -0.168917 222.35228528 -0.18133025 239.56160754 -0.18249393 C249.2139964 -0.18340795 258.86632843 -0.18909107 268.51870155 -0.20731354 C276.74224329 -0.22278437 284.96571062 -0.22779419 293.18926416 -0.21957543 C297.37795582 -0.2156931 301.56649797 -0.21647876 305.75517082 -0.23063278 C350.59827603 -0.37319491 389.50677337 9.64030699 422.44377136 41.64044189 C447.84351878 66.93662959 462.94663126 102.374265 463.05949521 138.21892959 C463.05871517 139.55395788 463.05783642 140.88898611 463.05686951 142.22401428 C463.05945639 143.6569337 463.06247045 145.0898524 463.06587291 146.52277011 C463.07390863 150.44716656 463.07573056 154.37154468 463.07647038 158.29594839 C463.078327 162.53411621 463.08587751 166.77227465 463.09260559 171.01043701 C463.10616644 180.27333899 463.11221051 189.53623663 463.11661625 198.79914689 C463.11938325 204.58981495 463.12362151 210.38048136 463.12812042 216.1711483 C463.14031162 232.22240119 463.15061028 248.27365275 463.15399551 264.32491016 C463.15421508 265.35154584 463.15443465 266.37818152 463.15466087 267.43592737 C463.15487914 268.46494569 463.15509742 269.49396401 463.15532231 270.55416471 C463.15576577 272.63915749 463.15621233 274.72415028 463.15666199 276.80914307 C463.15688342 277.84335971 463.15710485 278.87757636 463.15733299 279.9431329 C463.16127654 296.68134551 463.17871773 313.41951447 463.20202151 330.15771023 C463.22578651 347.36701582 463.23819975 364.57629957 463.23936343 381.78562182 C463.24027746 391.43801069 463.24596057 401.09034271 463.26418304 410.74271584 C463.27965388 418.96625757 463.2846637 427.1897249 463.27644494 435.41327844 C463.27256261 439.6019701 463.27334826 443.79051225 463.28750229 447.9791851 C463.43006442 492.82229032 453.41656251 531.73078765 421.41642761 564.66778564 C396.12023992 590.06753306 360.68260451 605.17064554 324.83793992 605.28350949 C323.50291163 605.28272945 322.16788339 605.28185071 320.83285522 605.28088379 C319.39993581 605.28347067 317.96701711 605.28648473 316.5340994 605.28988719 C312.60970295 605.29792291 308.68532482 605.29974485 304.76092112 605.30048466 C300.5227533 605.30234128 296.28459486 605.30989179 292.0464325 605.31661987 C282.78353051 605.33018073 273.52063287 605.3362248 264.25772262 605.34063053 C258.46705455 605.34339753 252.67638815 605.34763579 246.88572121 605.3521347 C230.83446832 605.3643259 214.78321676 605.37462456 198.73195934 605.3780098 C197.70532366 605.37822936 196.67868799 605.37844893 195.62094213 605.37867515 C194.59192381 605.37889343 193.56290549 605.3791117 192.5027048 605.3793366 C190.41771201 605.37978005 188.33271923 605.38022662 186.24772644 605.38067627 C185.2135098 605.3808977 184.17929315 605.38111913 183.11373661 605.38134727 C166.375524 605.38529083 149.63735504 605.40273201 132.89915927 605.42603579 C115.68985368 605.44980079 98.48056994 605.46221403 81.27124768 605.46337771 C71.61885882 605.46429174 61.9665268 605.46997486 52.31415367 605.48819733 C44.09061194 605.50366816 35.86714461 605.50867798 27.64359107 605.50045922 C23.45489941 605.49657689 19.26635725 605.49736255 15.0776844 605.51151657 C-29.76542081 605.6540787 -68.67391814 595.64057679 -101.61091614 563.64044189 C-127.01066355 538.3442542 -142.11377604 502.90661879 -142.22663999 467.0619542 C-142.22585995 465.72692591 -142.2249812 464.39189767 -142.22401428 463.05686951 C-142.22660116 461.62395009 -142.22961522 460.19103139 -142.23301768 458.75811368 C-142.2410534 454.83371723 -142.24287534 450.90933911 -142.24361515 446.9849354 C-142.24547177 442.74676758 -142.25302229 438.50860914 -142.25975037 434.27044678 C-142.27331122 425.00754479 -142.27935529 415.74464715 -142.28376102 406.4817369 C-142.28652803 400.69106884 -142.29076628 394.90040243 -142.2952652 389.10973549 C-142.30745639 373.0584826 -142.31775505 357.00723104 -142.32114029 340.95597363 C-142.32135986 339.92933795 -142.32157942 338.90270227 -142.32180564 337.84495642 C-142.32202392 336.8159381 -142.3222422 335.78691978 -142.32246709 334.72671908 C-142.32291055 332.64172629 -142.32335711 330.55673351 -142.32380676 328.47174072 C-142.32402819 327.43752408 -142.32424962 326.40330743 -142.32447776 325.33775089 C-142.32842132 308.59953828 -142.3458625 291.86136932 -142.36916628 275.12317356 C-142.39293129 257.91386797 -142.40534453 240.70458422 -142.40650821 223.49526197 C-142.40742223 213.8428731 -142.41310535 204.19054108 -142.43132782 194.53816795 C-142.44679865 186.31462622 -142.45180847 178.09115889 -142.44358972 169.86760535 C-142.43970738 165.67891369 -142.44049304 161.49037154 -142.45464706 157.30169868 C-142.59720919 112.45859347 -132.58370729 73.55009614 -100.58357239 40.61309814 C-73.83821348 13.75824677 -37.59490825 -0.02722877 0 0 Z " fill="#A91C36" transform="translate(152.0835723876953,9.85955810546875)"/>
<path d="M0 0 C1.21550537 -0.00708481 2.43101074 -0.01416962 3.68334961 -0.02146912 C5.03248633 -0.01917521 6.3816227 -0.01666549 7.73075867 -0.01396179 C9.15002206 -0.01830852 10.5692831 -0.02349153 11.98854065 -0.02944946 C15.84610723 -0.04285752 19.70357593 -0.04341596 23.56116128 -0.04088616 C26.78173971 -0.0398173 30.00229826 -0.04469783 33.22287244 -0.04949158 C40.82268422 -0.06059381 48.42244659 -0.06102069 56.02226257 -0.05497742 C63.85948559 -0.04894105 71.69652892 -0.06123835 79.53372127 -0.08254749 C86.26334315 -0.10017164 92.99290789 -0.10616342 99.722552 -0.10290974 C103.74133669 -0.10109745 107.75999331 -0.10372726 111.7787571 -0.11762428 C115.56022438 -0.13021069 119.34141217 -0.12825099 123.12287521 -0.11521339 C124.50877032 -0.11284952 125.89468513 -0.11557559 127.28055763 -0.12383652 C129.17659588 -0.13432098 131.0727139 -0.12439122 132.96875 -0.11352539 C134.55852897 -0.113777 134.55852897 -0.113777 136.18042469 -0.1140337 C139.71535023 0.32833594 142.13020557 1.43750676 145.17485046 3.26069641 C146.56850461 6.04800471 146.31499579 8.34845996 146.33256531 11.46699524 C146.34282745 12.77207535 146.3530896 14.07715546 146.36366272 15.42178345 C146.36710064 16.12154108 146.37053856 16.82129871 146.37408066 17.54226112 C146.38586697 19.73240845 146.40531981 21.92235835 146.42720032 24.11242676 C146.488819 30.33992419 146.54282463 36.56740249 146.57621765 42.79512024 C146.59718962 46.60365949 146.63251498 50.41184052 146.67697525 54.22017479 C146.69111817 55.67015548 146.69985384 57.12019956 146.70302963 58.57024574 C146.70795031 60.60231286 146.73273936 62.63430227 146.75834656 64.66621399 C146.76643341 65.82156143 146.77452026 66.97690887 146.78285217 68.16726685 C147.23442661 71.73083774 147.76479893 73.57800293 150.17485046 76.26069641 C153.37870922 77.00009779 153.37870922 77.00009779 157.13725281 76.85664368 C157.84167007 76.86070221 158.54608734 76.86476074 159.27185059 76.86894226 C160.80073941 76.87446104 162.32970336 76.86844631 163.85851669 76.85228157 C166.28022736 76.82689891 168.70023264 76.83164589 171.12202454 76.84417725 C176.26481976 76.86494809 181.40708982 76.84523698 186.54985046 76.82319641 C192.50275139 76.8020893 198.45510394 76.79754627 204.40799332 76.82369804 C206.79082411 76.8270569 209.1726065 76.80584174 211.55531311 76.78329468 C213.02143073 76.7858067 214.48754706 76.78936749 215.95365906 76.79414368 C217.23034454 76.7879451 218.50703003 76.78174652 219.82240295 76.77536011 C223.99906804 77.380019 225.35470963 78.1107275 228.17485046 81.26069641 C228.93427636 84.62743824 228.84902347 87.94987589 228.80976868 91.38885498 C228.81756863 92.4300507 228.82536858 93.47124642 228.8334049 94.54399353 C228.85340027 98.0442373 228.8375299 101.54340293 228.82182312 105.0436554 C228.82859588 107.54842262 228.83749708 110.05318486 228.84837341 112.55793762 C228.86884081 118.66196201 228.86579694 124.76558504 228.85131021 130.86961489 C228.84002368 135.83041043 228.8384845 140.79111982 228.84392929 145.75192451 C228.84469546 146.45765606 228.84546162 147.1633876 228.846251 147.89050495 C228.84784962 149.32414518 228.84947068 150.75778539 228.85111396 152.19142557 C228.86537681 165.63956665 228.84897095 179.08753741 228.82211213 192.53565056 C228.79977764 204.07567632 228.80364877 215.61545059 228.82670593 227.1554718 C228.85346292 240.55353391 228.86399836 253.95144662 228.84864461 267.34953171 C228.84705186 268.77823863 228.84548 270.20694558 228.84392929 271.63565254 C228.84315791 272.33861715 228.84238654 273.04158176 228.84159178 273.76584832 C228.83727409 278.72038429 228.84456287 283.67482554 228.85632706 288.62934685 C228.87181402 295.29840924 228.86078949 301.96692299 228.83185577 308.63596344 C228.82523308 311.08655824 228.82716267 313.53719295 228.8381691 315.98777199 C228.85178854 319.32757691 228.83475013 322.66584762 228.80976868 326.0055542 C228.82092229 326.98045333 228.83207589 327.95535246 228.84356749 328.95979398 C228.78065831 333.28162144 228.56211028 335.64725191 226.21679592 339.36238098 C222.00961407 341.98785811 218.7404928 341.95458548 213.86880493 341.8888855 C212.92813803 341.89597989 211.98747112 341.90307427 211.01829916 341.91038364 C207.86425756 341.92799483 204.71144315 341.90984249 201.55741882 341.89179993 C199.29718463 341.89693749 197.03695444 341.90421754 194.7767334 341.91348267 C188.63631047 341.93202426 182.49632078 341.91904075 176.35591578 341.89939237 C169.93557511 341.88302954 163.51526239 341.89181537 157.09490967 341.89691162 C146.31344468 341.90143489 135.53219509 341.88565163 124.7507782 341.85762024 C113.65662942 341.82877614 102.56272763 341.82170252 91.46855164 341.83711243 C78.09948818 341.85565674 64.73060418 341.85394204 51.3615284 341.83489799 C46.25432347 341.82801645 41.14721031 341.82907127 36.04000664 341.83644295 C30.02924727 341.84408999 24.01884475 341.83203103 18.00814629 341.80459404 C15.79901692 341.79769287 13.58985434 341.79763066 11.38072586 341.80480957 C8.37138645 341.81346384 5.36315855 341.79761615 2.35391235 341.77536011 C1.47405621 341.78360087 0.59420007 341.79184164 -0.31231838 341.80033213 C-6.22123972 341.71934587 -6.22123972 341.71934587 -9.3363409 339.35352993 C-11.75130816 335.95878577 -11.95137896 334.04688543 -11.9565773 329.90606976 C-11.96041845 328.7626174 -11.96425959 327.61916505 -11.96821713 326.44106263 C-11.96735065 325.17406787 -11.96648417 323.90707311 -11.96559143 322.60168457 C-11.96817371 321.25058654 -11.97118649 319.89948927 -11.97459483 318.54839307 C-11.98268422 314.8228448 -11.98445548 311.09731578 -11.9851923 307.37175977 C-11.9870395 303.35870492 -11.99458514 299.34566014 -12.00132751 295.33261108 C-12.01492516 286.55168348 -12.02093779 277.77076044 -12.02533817 268.98982406 C-12.0280982 263.50986048 -12.03233511 258.02989867 -12.03684235 252.54993629 C-12.04903692 237.38590067 -12.05933584 222.22186647 -12.06271744 207.05782604 C-12.062937 206.0867776 -12.06315657 205.11572917 -12.06338279 204.11525502 C-12.06360107 203.14184557 -12.06381934 202.16843613 -12.06404424 201.16552943 C-12.06448771 199.19293861 -12.06493427 197.22034778 -12.06538391 195.24775696 C-12.06560534 194.26927787 -12.06582677 193.29079878 -12.06605491 192.28266881 C-12.07000387 176.42376316 -12.08746003 160.56490345 -12.11074343 144.70601555 C-12.13443981 128.4348777 -12.14691851 112.1637629 -12.14808536 95.89260751 C-12.14900309 86.7525392 -12.15478001 77.61253072 -12.17290497 68.47247887 C-12.18828286 60.6901257 -12.19344013 52.90785085 -12.18516687 45.12548538 C-12.18125212 41.15324536 -12.18222994 37.18116315 -12.19622421 33.20894241 C-12.208914 29.57382058 -12.20780932 25.93897592 -12.1956335 22.30385474 C-12.19273542 20.36307899 -12.20464951 18.42229867 -12.21705556 16.48156041 C-12.21046571 15.33028482 -12.20387587 14.17900922 -12.19708633 12.99284649 C-12.19768342 11.99944309 -12.19828051 11.00603969 -12.19889569 9.98253316 C-11.75347773 6.73874067 -10.75452445 4.88853604 -8.82514954 2.26069641 C-5.36849192 -0.043742 -4.07384117 0.00789921 0 0 Z " fill="#E2E2E3" transform="translate(203.8251495361328,141.7393035888672)"/>
<path d="M0 0 C2.06242617 -0.02717692 4.12495703 -0.0464758 6.1875 -0.0625 C7.33605469 -0.07410156 8.48460937 -0.08570313 9.66796875 -0.09765625 C12.59300586 -0.01192832 15.16316291 0.32150977 18 1 C17.83865067 1.71837036 17.67730133 2.43674072 17.51106262 3.17687988 C17.01723613 5.90478726 16.85397234 8.40159631 16.82299805 11.16992188 C16.81016281 12.17446411 16.79732758 13.17900635 16.78410339 14.21398926 C16.77671646 15.2880603 16.76932953 16.36213135 16.76171875 17.46875 C16.74961113 19.13834778 16.74961113 19.13834778 16.73725891 20.8416748 C16.72345053 23.19179744 16.71271392 25.54193985 16.70483398 27.89208984 C16.68756228 31.48703627 16.64363922 35.08107667 16.59960938 38.67578125 C16.58948684 40.96093075 16.58096937 43.24608805 16.57421875 45.53125 C16.54795662 47.14235657 16.54795662 47.14235657 16.52116394 48.78601074 C16.52408951 49.79055298 16.52701508 50.79509521 16.5300293 51.83007812 C16.52416306 52.70990356 16.51829681 53.589729 16.51225281 54.49621582 C17.18631378 57.95641657 18.4531641 59.58594903 21 62 C23.77853417 62.75260808 23.77853417 62.75260808 26.8984375 62.64697266 C28.08646973 62.66273346 29.27450195 62.67849426 30.49853516 62.69473267 C31.77776855 62.68461151 33.05700195 62.67449036 34.375 62.6640625 C36.34992432 62.67123795 36.34992432 62.67123795 38.36474609 62.67855835 C41.14906194 62.68592183 43.93257458 62.67524329 46.71679688 62.65185547 C50.28172737 62.62336533 53.84477599 62.6397725 57.40963745 62.66971779 C60.81490829 62.69215449 64.21967571 62.67643498 67.625 62.6640625 C68.9042334 62.67418365 70.1834668 62.68430481 71.50146484 62.69473267 C73.28351318 62.67109146 73.28351318 62.67109146 75.1015625 62.64697266 C76.14650879 62.64299469 77.19145508 62.63901672 78.26806641 62.63491821 C81.95828111 61.77728956 82.9619084 60.10469142 85 57 C85.70885894 55.68861096 86.39456452 54.36222983 87 53 C87.53403442 54.00075562 87.53403442 54.00075562 88.07885742 55.02172852 C94.92974711 67.84372789 101.85003211 80.61143989 109.03637695 93.24926758 C113.1922033 100.55929802 117.29582117 107.89693078 121.375 115.25 C122.31460571 116.94370728 122.31460571 116.94370728 123.27319336 118.67163086 C124.54660467 120.96781534 125.81979721 123.26412116 127.09277344 125.56054688 C130.22493416 131.20902105 133.36271918 136.85436857 136.5 142.5 C137.75002765 144.74998464 139.00002763 146.99998465 140.25 149.25 C140.86875 150.36375 141.4875 151.4775 142.125 152.625 C162.74999999 189.74999999 162.74999999 189.74999999 164.62524414 193.12548828 C165.87437505 195.37389139 167.12356119 197.62226382 168.37280273 199.87060547 C171.51155491 205.5197867 174.64932443 211.1695096 177.78515625 216.8203125 C183.83744729 227.72444017 189.90104306 238.62189422 196 249.5 C202.73527072 261.51303568 209.42616786 273.5504417 216.10888672 285.59277344 C219.23745051 291.22951966 222.36882607 296.8647034 225.5 302.5 C229.263131 309.27265455 233.02565148 316.0456442 236.78515625 322.8203125 C237.41035156 323.9458252 238.03554688 325.07133789 238.6796875 326.23095703 C239.92606344 328.47773067 241.16959631 330.72608404 242.41015625 332.97607422 C245.23595551 338.08960345 248.08607223 343.18151356 251.06517029 348.20718384 C252.07624124 349.91453011 253.07713664 351.62788898 254.07788086 353.34130859 C255.32396819 355.47008728 256.58810601 357.58844228 257.87329102 359.69384766 C260.94001482 364.97274352 262.87048035 368.78815395 261.62597656 374.91357422 C260.60336338 378.32201895 259.38505677 381.52783947 257.875 384.75 C257.40477417 385.78133057 257.40477417 385.78133057 256.92504883 386.83349609 C240.05916255 423.33335006 211.88175471 450.23978611 174.12109375 464.5 C158.4699521 469.98361167 143.79700307 471.46122073 127.33032227 471.51513672 C125.29184536 471.53233569 123.25337767 471.55065798 121.21492004 471.57000732 C115.72373466 471.61750863 110.23263718 471.64537732 104.74129224 471.66642904 C101.30567845 471.67972903 97.87008958 471.69598361 94.43449211 471.71295547 C83.66932353 471.76457569 72.90421797 471.80277097 62.13894516 471.8233813 C49.73724033 471.84747567 37.33691073 471.91792702 24.93567234 472.02738369 C15.32426737 472.10928726 5.71325575 472.14901834 -3.8984924 472.15698445 C-9.63022442 472.16272952 -15.36052873 472.18649698 -21.09188652 472.25472641 C-26.47465108 472.3177369 -31.85501007 472.32841137 -37.23803902 472.29906464 C-39.21015118 472.2973031 -41.18238472 472.31430323 -43.15414429 472.35163498 C-58.02852168 472.61727763 -58.02852168 472.61727763 -62.86294746 468.65141678 C-64.93357879 465.84908689 -66.4673994 463.12192733 -68 460 C-69.19997664 458.20806815 -70.42217129 456.43061051 -71.67578125 454.67578125 C-72.88967953 452.88914668 -74.10188571 451.10136141 -75.3125 449.3125 C-76.62605847 447.37874075 -77.93986217 445.44514805 -79.25390625 443.51171875 C-79.89086426 442.57376465 -80.52782227 441.63581055 -81.18408203 440.66943359 C-83.6940811 436.97968772 -86.21935407 433.30060496 -88.75 429.625 C-89.18803955 428.98860596 -89.6260791 428.35221191 -90.07739258 427.6965332 C-90.9479539 426.43204248 -91.81863933 425.16763718 -92.68945312 423.90332031 C-94.49934686 421.27479358 -96.3072156 418.64487701 -98.11499023 416.01489258 C-99.03884291 414.6708848 -99.96283396 413.32697213 -100.88696289 411.9831543 C-103.11801471 408.73881177 -105.34777126 405.49359804 -107.57421875 402.24609375 C-113.0777358 394.22328093 -118.62309972 386.2307238 -124.1875 378.25 C-128.92580426 371.45201754 -133.6317545 364.64324819 -138.18359375 357.71875 C-139.58914895 355.61495125 -141.01703303 353.53758849 -142.47265625 351.46875 C-142.89297119 350.8701416 -143.31328613 350.2715332 -143.74633789 349.65478516 C-144.93111157 347.97279876 -146.12163127 346.29486405 -147.3125 344.6171875 C-149 342 -149 342 -149 340 C-147.82348248 339.99853344 -146.64696495 339.99706688 -145.43479538 339.99555588 C-117.51797232 339.95986782 -89.60124929 339.90364687 -61.68452142 339.82207905 C-58.24980507 339.81206137 -54.81508825 339.80221728 -51.38037109 339.79248047 C-50.69656955 339.7905391 -50.01276801 339.78859772 -49.30824521 339.78659752 C-38.23055925 339.75556111 -27.15289401 339.73859231 -16.07517275 339.72680578 C-4.71168567 339.71440268 6.65167331 339.6866223 18.01509929 339.64538693 C24.39917459 339.62270993 30.78309428 339.60709306 37.16721344 339.60811615 C43.17216653 339.60885908 49.1767748 339.59105643 55.18163872 339.55883217 C57.38914608 339.55029097 59.59669194 339.54861163 61.80420876 339.55419731 C64.81163217 339.56079523 67.81794486 339.54301749 70.82525635 339.51898193 C72.14432004 339.53062256 72.14432004 339.53062256 73.49003148 339.54249835 C77.05459824 339.49184968 79.38785303 339.33684069 82.54167557 337.60141468 C84.85290615 333.47855351 84.55033708 329.50829155 84.50793457 324.85838318 C84.51417453 323.81577632 84.5204145 322.77316947 84.52684355 321.69896847 C84.54283913 318.19418536 84.5301432 314.6900914 84.51757812 311.18530273 C84.52299627 308.67729282 84.53011718 306.16928608 84.53881836 303.6612854 C84.55519129 297.5499586 84.55275793 291.43888838 84.5411678 285.32755809 C84.53213982 280.36198727 84.5309067 275.39647153 84.53526306 270.43089485 C84.53618246 269.37143137 84.53618246 269.37143137 84.53712043 268.29056459 C84.53839931 266.8557929 84.53969616 265.42102123 84.5410108 263.98624957 C84.55242032 250.52865505 84.53929666 237.07116947 84.51780933 223.61359281 C84.4999341 212.0604559 84.50304517 200.50747972 84.52148438 188.9543457 C84.54287788 175.54386611 84.55132574 162.13348199 84.53903532 148.72298771 C84.5377611 147.29375495 84.53650361 145.86452217 84.53526306 144.43528938 C84.53464596 143.73204335 84.53402886 143.02879732 84.53339306 142.3042408 C84.52993587 137.34276708 84.53577632 132.38135381 84.54518127 127.41988945 C84.55755407 120.745977 84.54877855 114.07241591 84.52560425 107.39851761 C84.52029849 104.94385472 84.52186257 102.48916635 84.53065491 100.03451347 C84.54151985 96.69420282 84.52795578 93.35488017 84.50793457 90.01463318 C84.51685746 89.03390837 84.52578034 88.05318355 84.53497362 87.04273981 C84.52454263 86.15096759 84.51411164 85.25919536 84.50336456 84.34039974 C84.50271515 83.56907772 84.50206574 82.7977557 84.50139666 82.00306028 C84.14645632 79.82866599 84.14645632 79.82866599 82.17055178 78.25238377 C79.03777385 76.44480642 76.49297096 76.62101846 72.89233398 76.61523438 C72.18455811 76.6098616 71.47678223 76.60448883 70.74755859 76.59895325 C69.21489119 76.58918892 67.6821686 76.58622705 66.14947319 76.58930969 C63.72430413 76.59379026 61.29986376 76.57978275 58.87477112 76.56091309 C52.85417297 76.51790157 46.83359107 76.50687084 40.81286621 76.49468994 C35.7211416 76.48317235 30.62974974 76.45964647 25.53816414 76.41999817 C23.14773321 76.40640152 20.7577489 76.41060288 18.36729431 76.41540527 C16.90428086 76.40606712 15.44127238 76.39589892 13.97827148 76.38476562 C12.70016098 76.38271118 11.42205048 76.38065674 10.10520935 76.37854004 C7 76 7 76 5.12635803 74.66345215 C2.72670952 71.11955193 2.86059279 67.80982821 2.82641602 63.66430664 C2.81292618 62.35607437 2.79943634 61.0478421 2.78553772 59.69996643 C2.78047777 59.0010837 2.77541782 58.30220097 2.77020454 57.58213997 C2.75377147 55.3921944 2.73053336 53.20241886 2.70530701 51.01255798 C2.63459089 44.78686007 2.57440343 38.56109348 2.52319336 32.33520508 C2.49138107 28.52558629 2.45010247 24.71616476 2.40299797 20.90670586 C2.38699439 19.45589179 2.37466521 18.00503234 2.36609077 16.55415535 C2.35392093 14.52439366 2.3287354 12.49472264 2.30297852 10.46508789 C2.28751732 8.73326012 2.28751732 8.73326012 2.27174377 6.96644592 C2.00928992 4.10141185 1.49126227 2.42589023 0 0 Z " fill="#981A2F" transform="translate(347,143)"/>
<path d="M0 0 C1.69100915 1.19545662 3.35934451 2.4238236 5 3.6875 C6.16402344 4.54601562 6.16402344 4.54601562 7.3515625 5.421875 C18.9893699 14.78011188 26.33719658 29.07766387 28.27783203 43.79443359 C29.74532809 59.78977289 24.87108095 74.68214517 14.96875 87.26953125 C6.83382688 96.8223371 -2.24325247 102.47809109 -14 106.6875 C-14.66386719 106.935 -15.32773437 107.1825 -16.01171875 107.4375 C-30.37741436 111.92483225 -46.8361263 107.92999105 -60 101.6875 C-63.29449043 99.63292665 -66.13925241 97.30590065 -69 94.6875 C-69.77214844 93.99527344 -70.54429687 93.30304688 -71.33984375 92.58984375 C-82.88012406 81.70242455 -88.86289413 67.98768674 -89.34350586 52.16601562 C-89.56709567 35.01373092 -84.20542629 21.19392705 -72.4375 8.5 C-64.18201735 0.60891461 -54.14754236 -4.78655875 -43 -7.3125 C-42.39800781 -7.49167969 -41.79601562 -7.67085937 -41.17578125 -7.85546875 C-27.27517956 -10.77534379 -11.99442781 -7.29368274 0 0 Z " fill="#8E192F" transform="translate(343,255.3125)"/>
<path d="M0 0 C1.03245205 -0.00551503 1.03245205 -0.00551503 2.08576173 -0.01114148 C4.4033886 -0.0221974 6.72097067 -0.02602536 9.03862 -0.02983093 C10.69580732 -0.03609411 12.35299324 -0.04274078 14.01017761 -0.04974365 C18.52057674 -0.06716614 23.03096525 -0.07770868 27.5413897 -0.08594918 C30.35794971 -0.09109639 33.1745064 -0.09717223 35.99106407 -0.10346031 C44.79940658 -0.12251534 53.60774068 -0.13674616 62.41609985 -0.14507228 C72.59142911 -0.15484875 82.76654107 -0.18117763 92.94179374 -0.22157317 C100.80172167 -0.25170859 108.66158722 -0.26653868 116.52157182 -0.26985329 C121.21834996 -0.27220661 125.91489603 -0.28120349 130.61161232 -0.30631447 C135.03000413 -0.32955546 139.44801042 -0.33384455 143.86644745 -0.32355309 C145.48820717 -0.32305665 147.10998562 -0.32940871 148.73168755 -0.34310913 C150.9461007 -0.36077026 153.15912163 -0.35375202 155.37353516 -0.34057617 C156.61259267 -0.34296453 157.85165018 -0.34535288 159.12825489 -0.34781361 C162.98340424 0.23951992 164.62765626 1.43673286 167.37724304 4.14717102 C169.11946015 7.63160524 168.96399458 11.34604147 168.37724304 15.14717102 C166.67472585 18.22186625 164.56497796 20.55330356 161.37724304 22.14717102 C159.19909337 22.25020542 157.01771487 22.28671556 154.83714294 22.29434204 C153.8179999 22.29985707 153.8179999 22.29985707 152.7782681 22.30548352 C150.49061418 22.31653898 148.20300564 22.32036734 145.91532898 22.32417297 C144.27946833 22.33043625 142.64360911 22.33708293 141.00775146 22.34408569 C136.55513466 22.36150867 132.10252859 22.37205111 127.64988613 22.38029122 C124.86883037 22.38543892 122.08777795 22.39151477 119.30672455 22.39780235 C110.60783689 22.41685856 101.90895773 22.43108845 93.21005321 22.43941432 C83.16434378 22.44918756 73.11885466 22.47550751 63.07322288 22.51591522 C55.31179228 22.54606482 47.55042488 22.56088212 39.78893685 22.56419533 C35.15192923 22.56654726 30.51515684 22.575526 25.87821198 22.60065651 C21.51480765 22.62392191 17.15179368 22.62817672 12.78834343 22.61789513 C11.18796682 22.61739927 9.58757109 22.62373443 7.98725319 22.63745117 C5.79946057 22.65515202 3.61307158 22.6480745 1.42527771 22.63491821 C-0.40980284 22.63850074 -0.40980284 22.63850074 -2.28195572 22.64215565 C-6.3184185 22.04409941 -8.46244055 20.6865109 -11.62275696 18.14717102 C-14.08193282 14.45840722 -14.43867633 11.42872812 -13.62275696 7.14717102 C-10.0994028 1.04351661 -6.73537874 0.02325139 0 0 Z " fill="#8E1A2F" transform="translate(234.6227569580078,431.8528289794922)"/>
<path d="M0 0 C1.03245205 -0.00551503 1.03245205 -0.00551503 2.08576173 -0.01114148 C4.4033886 -0.0221974 6.72097067 -0.02602536 9.03862 -0.02983093 C10.69580732 -0.03609411 12.35299324 -0.04274078 14.01017761 -0.04974365 C18.52057674 -0.06716614 23.03096525 -0.07770868 27.5413897 -0.08594918 C30.35794971 -0.09109639 33.1745064 -0.09717223 35.99106407 -0.10346031 C44.79940658 -0.12251534 53.60774068 -0.13674616 62.41609985 -0.14507228 C72.59142911 -0.15484875 82.76654107 -0.18117763 92.94179374 -0.22157317 C100.80172167 -0.25170859 108.66158722 -0.26653868 116.52157182 -0.26985329 C121.21834996 -0.27220661 125.91489603 -0.28120349 130.61161232 -0.30631447 C135.03000413 -0.32955546 139.44801042 -0.33384455 143.86644745 -0.32355309 C145.48820717 -0.32305665 147.10998562 -0.32940871 148.73168755 -0.34310913 C150.9461007 -0.36077026 153.15912163 -0.35375202 155.37353516 -0.34057617 C156.61259267 -0.34296453 157.85165018 -0.34535288 159.12825489 -0.34781361 C162.98340424 0.23951992 164.62765626 1.43673286 167.37724304 4.14717102 C169.10710959 7.60690413 168.86155794 11.36427901 168.37724304 15.14717102 C166.3188578 18.48317469 164.63791664 19.97338862 161.37724304 22.14717102 C158.41675854 22.40443993 158.41675854 22.40443993 154.71688843 22.41459656 C153.69646374 22.42139323 153.69646374 22.42139323 152.65542442 22.4283272 C150.37081552 22.44100997 148.08644384 22.43934836 145.80180359 22.43769836 C144.16579379 22.44368127 142.52978681 22.45048627 140.89378357 22.45805359 C136.44533807 22.47574666 131.99696947 22.4804104 127.54849219 22.48168516 C123.83581852 22.48358296 120.12316282 22.49093925 116.41049606 22.49802935 C107.65046043 22.51432405 98.89046591 22.51919738 90.13041687 22.51777649 C81.09346955 22.51657527 72.05676114 22.53767055 63.01987427 22.56926382 C55.26266025 22.5954171 47.50552429 22.60614416 39.74826652 22.60486567 C35.11464122 22.60435569 30.48122811 22.61005869 25.84764671 22.63122177 C21.48831441 22.65058783 17.129397 22.65073993 12.77005005 22.63618851 C11.17129218 22.63409715 9.57250847 22.63882078 7.97379494 22.65090942 C5.78822589 22.66636317 3.60408716 22.65705488 1.41854858 22.64164734 C0.19646037 22.64273687 -1.02562784 22.64382641 -2.28474903 22.64494896 C-6.84581254 21.96478377 -10.1915142 20.0338092 -12.99775696 16.33467102 C-13.93983091 13.03741219 -14.03536352 10.56591112 -13.62275696 7.14717102 C-9.98320041 1.08575342 -6.8006051 0.02347656 0 0 Z " fill="#8E1A2F" transform="translate(234.6227569580078,396.8528289794922)"/>
<path d="M0 0 C3.01308697 1.96110402 5.44321045 4.48691626 8 7 C9.40761646 8.29181255 10.8155325 9.5833222 12.22973633 10.86791992 C13.77844481 12.27585934 15.31981486 13.69144131 16.859375 15.109375 C19.9020988 17.91079233 22.95042038 20.70604985 26 23.5 C27.00002704 24.41663717 28.00002701 25.33330387 29 26.25 C29.495 26.70375 29.99 27.1575 30.5 27.625 C32 29 33.5 30.375 35 31.75 C35.4959668 32.20391113 35.99193359 32.65782227 36.50292969 33.12548828 C37.49609392 34.0373465 38.48636755 34.95236372 39.47363281 35.87060547 C42.06258062 38.27072243 44.68828314 40.58556254 47.421875 42.8203125 C55.48853924 49.53515844 55.48853924 49.53515844 56.890625 53.55078125 C57.06202005 57.2908661 56.69649974 59.13555861 54.31687927 62.08895874 C51.39398894 64.49985864 49.87259285 64.51610593 46.11743164 64.54931641 C44.93262711 64.56838043 43.74782257 64.58744446 42.52711487 64.60708618 C41.25101852 64.60526337 39.97492218 64.60344055 38.66015625 64.6015625 C37.34591171 64.61013275 36.03166718 64.618703 34.67759705 64.62753296 C31.89761203 64.64244009 29.11813506 64.64188851 26.33813477 64.63134766 C22.78211168 64.61975889 19.22817244 64.65361681 15.67249393 64.700037 C12.27246159 64.73665501 8.87288462 64.7291401 5.47265625 64.7265625 C3.56154808 64.75419174 3.56154808 64.75419174 1.61183167 64.78237915 C-8.21806132 64.67929738 -8.21806132 64.67929738 -11.30493164 61.67749023 C-14.1286438 57.07986356 -13.67371476 51.64699643 -13.59375 46.43359375 C-13.59379028 45.32194351 -13.59383057 44.21029327 -13.59387207 43.06495667 C-13.58852262 40.72073699 -13.57096482 38.37651743 -13.54199219 36.0324707 C-13.50010185 32.44621965 -13.50092918 28.86184536 -13.5078125 25.27539062 C-13.49732081 22.99477863 -13.48438282 20.7141763 -13.46875 18.43359375 C-13.46854858 17.36265976 -13.46834717 16.29172577 -13.46813965 15.18833923 C-13.31933392 5.82417372 -13.31933392 5.82417372 -10 2 C-6.15691236 -0.56205842 -4.5659696 -0.67366765 0 0 Z " fill="#EEECED" transform="translate(376,142)"/>
<path d="M0 0 C3.02508145 1.73602105 5.41790069 3.83580137 7 7 C7.90607735 13.56906077 7.90607735 13.56906077 5.71875 17.0234375 C3.896824 19.1186524 1.98947964 21.06337181 0 23 C-0.64839844 23.67160156 -1.29679687 24.34320313 -1.96484375 25.03515625 C-5.80346504 28.98019477 -9.82752427 32.63302867 -14 36.21875 C-16.08337078 38.0742521 -18.04281207 40.01223101 -20 42 C-32.45944633 54.60660515 -32.45944633 54.60660515 -39.375 55.375 C-47.12398988 54.57338036 -51.02357676 49.06706308 -55.875 43.4453125 C-57.86867642 41.08005393 -57.86867642 41.08005393 -59.6875 39.3671875 C-62.67249918 36.39914854 -63.37080461 34.00503661 -63.5625 29.9375 C-63.34183195 25.49739145 -62.36688485 23.06980677 -59 20 C-55.45121804 18.22560902 -51.85344768 18.21458391 -48 19 C-45.6289052 20.63523779 -43.72375372 22.39758874 -41.7265625 24.46875 C-40.01054827 26.33176146 -40.01054827 26.33176146 -37 26 C-35.16556169 24.65850426 -35.16556169 24.65850426 -33.33984375 22.81640625 C-32.27938843 21.80139038 -32.27938843 21.80139038 -31.19750977 20.76586914 C-30.45170654 20.03875732 -29.70590332 19.31164551 -28.9375 18.5625 C-27.4043535 17.09301132 -25.87050219 15.62425762 -24.3359375 14.15625 C-23.2217041 13.08503906 -23.2217041 13.08503906 -22.08496094 11.9921875 C-19.44762482 9.47220357 -16.76948945 7.00752273 -14.0625 4.5625 C-13.31097656 3.88316406 -12.55945313 3.20382812 -11.78515625 2.50390625 C-8.22097355 -0.4987422 -4.50379579 -0.76873694 0 0 Z " fill="#E2E2E3" transform="translate(339,278)"/>
</svg>
